/* XPM */
static char *e093d38564ca4e2e83d2d75a96b9322boU9v8WK3UAQMfE67[] = {
/* columns rows colors chars-per-pixel */
"40 40 186 2 ",
"   c None",
".  c #27241E",
"X  c #332A23",
"o  c #4F421D",
"O  c #794400",
"+  c #7C5800",
"@  c #70501C",
"#  c #494139",
"$  c #775724",
"%  c #785522",
"&  c #3D4345",
"*  c #4D5255",
"=  c #595246",
"-  c #655E4A",
";  c #66655E",
":  c #656564",
">  c #9C1224",
",  c #953924",
"<  c #BA2A2C",
"1  c #BE362A",
"2  c #BC3532",
"3  c #C0042A",
"4  c #D20227",
"5  c #DB002A",
"6  c #D30928",
"7  c #CB1E28",
"8  c #DD1B2E",
"9  c #D81B2D",
"0  c #DE1832",
"q  c #E20029",
"w  c #E8082B",
"e  c #E41D2B",
"r  c #E40031",
"t  c #E41831",
"y  c #D5222C",
"u  c #C2342C",
"i  c #CF2F32",
"p  c #DA2331",
"a  c #DB2B33",
"s  c #D52732",
"d  c #C73533",
"f  c #DD3F34",
"g  c #D33834",
"h  c #E22731",
"j  c #E13435",
"k  c #E73128",
"l  c #855A0B",
"z  c #A74A00",
"x  c #944027",
"c  c #9A512C",
"v  c #AD4E2C",
"b  c #BD552F",
"n  c #AC4F39",
"m  c #B44134",
"M  c #BB4334",
"N  c #BA4C37",
"B  c #A15A30",
"V  c #BF5A33",
"C  c #B75339",
"Z  c #BA5538",
"A  c #A45924",
"S  c #8B652D",
"D  c #956424",
"F  c #986427",
"G  c #A6612E",
"H  c #A56520",
"J  c #B06A2E",
"K  c #A36F31",
"L  c #B36B34",
"P  c #BC6138",
"I  c #AC733E",
"U  c #AB7236",
"Y  c #B5723E",
"T  c #B9763B",
"R  c #B67539",
"E  c #CC4B2D",
"W  c #C7462E",
"Q  c #DF4428",
"!  c #D25A2C",
"~  c #C44A34",
"^  c #DD4235",
"/  c #DB4638",
"(  c #DC4E3C",
")  c #D64B38",
"_  c #C45538",
"`  c #DB5334",
"'  c #D65839",
"]  c #E4532F",
"[  c #E04830",
"{  c #E25C37",
"}  c #E55836",
"|  c #D8612B",
" . c #C76939",
".. c #DF6535",
"X. c #D36539",
"o. c #DD693C",
"O. c #D9673D",
"+. c #E6623B",
"@. c #E36E3B",
"#. c #E56437",
"$. c #E8723D",
"%. c #8D6D4B",
"&. c #916844",
"*. c #9A714C",
"=. c #A26F40",
"-. c #A57244",
";. c #B67846",
":. c #AC7D53",
">. c #C95C41",
",. c #DB5F43",
"<. c #D26E40",
"1. c #C27745",
"2. c #D37D44",
"3. c #D67B4A",
"4. c #E46141",
"5. c #E47444",
"6. c #EF7D4A",
"7. c #BF8938",
"8. c #CD923D",
"9. c #D1923C",
"0. c #DBA13E",
"q. c #AF855A",
"w. c #B48154",
"e. c #BA8659",
"r. c #96836B",
"t. c #AD8A66",
"y. c #C7884B",
"u. c #D5884F",
"i. c #C99544",
"p. c #D69846",
"a. c #DFA546",
"s. c #DBA758",
"d. c #EDA354",
"f. c #EBAE52",
"g. c #E2A951",
"h. c #F6A953",
"j. c #F3B155",
"k. c #E4A746",
"l. c #F4AD64",
"z. c #EBB161",
"x. c #FCBE66",
"c. c #868787",
"v. c #87898C",
"b. c #8D928E",
"n. c #A7ADAF",
"m. c #AEACA9",
"M. c #A7A8A7",
"N. c #B4B0AA",
"B. c #B4B5B5",
"V. c #B4BABB",
"C. c #BCBCBC",
"Z. c #B9B6B5",
"A. c #AAB2B5",
"S. c #C0BFBE",
"D. c #C2C0BE",
"F. c #B9BFC2",
"G. c #BCC1C3",
"H. c #C4C4C4",
"J. c #C9C7C6",
"K. c #CCCAC6",
"L. c #CDCCCB",
"P. c #C4CACD",
"I. c #D0CECE",
"U. c #D4D0CD",
"Y. c #CCCFD1",
"T. c #CED2D4",
"R. c #D5D4D4",
"E. c #DBD9D6",
"W. c #D6DADD",
"Q. c #DBDCDC",
"!. c #D8D7D7",
"~. c #E0DFDD",
"^. c #E0DCD6",
"/. c #E3E1DE",
"(. c #D9DEE0",
"). c #DEE2E3",
"_. c #E4E4E5",
"`. c #E9E6E4",
"'. c #E6EAEB",
"]. c #ECEBEB",
"[. c #EBEAE7",
"{. c #F0EFEF",
"}. c #F2F0EE",
"|. c #F4F3F3",
" X c #FDFCFC",
".X c #F8F7F6",
/* pixels */
"                                                                                ",
"                                                                                ",
"                                                                                ",
"                                  U.`.!.                                        ",
"                                  ]. X].                                        ",
"                              /.E.`. X_.K.^.                                    ",
"                            K. X!.L..XJ.L. X~.                                  ",
"                            J. XQ.!.].H.!. XR.                                  ",
"                            C..X_.R._.C.Q.!.m.                                  ",
"                          ].C.].Q.L._.Z._.H.H.|.                                ",
"                        R. XJ.R.Q.Z.L.B.].H.!. XL.                              ",
"                        U. XR.C.Z.& & * Z.C._..XD.                              ",
"                        m._.~.c.X % S @ . M.].Q.N.                              ",
"                      }.!.C.!.# D K F U l : !.B.|.|.                            ",
"                      ]..XB.c.+ B x S , G % v.Z. X/.                            ",
"                      ].|.L.o G 3  .7.v > F = R..X).                            ",
"                      C._.V.O >.r ..k.+.3 c $ Y.].D.                            ",
"                      Z.B.b.z j q @.f.+.q u O M.C.Z.                            ",
"                      .XB.-  .e q o.s.' q j A ; J..X                            ",
"                      .XW.%.! p q 5.f.{ q s | r._.|.                            ",
"                      |.T.-.W d t @.f.+.p < ! t.).].                            ",
"                      J.n.R _ M 8 o.s.4.y m V q.V.S.                            ",
"                      J.C.D ;.I ~ 5.z.O.Z I Y *.G.!.                            ",
"                      {._.U Z C 4 6.x.+.7 n P :.Q..X                            ",
"                      ].).;.1 u 5 5.g.{ 8 < W e.).[.                            ",
"                      !.V.L f 6 ' 2.p.3.( 4 Q -.F.J.                            ",
"                      J.V.T ( w _ u.h.y._ r ' =.G.!.                            ",
"                      }.).R k j ) 2.j.<.) h k -.(..X                            ",
"                      {.Q.J ( e >.u.p.1.,.w ` :.).{.                            ",
"                      !.n.1.f y u  .9.P g 9 Q w.P.I.                            ",
"                      J.V.y.W 2 r #.0.] 0 2 E :.V.L.                            ",
"                      |.'.;.V C a ..p.` g C V w.)..X                            ",
"                      |.R.D ;.I ~ ! i.' Z I Y &.).|.                            ",
"                      I.B.H N M 5 @.f.{ 6 m b -.T.L.                            ",
"                      J.C.L u 1 q $.a.] 8 < E w.A.D.                            ",
"                      |.'.L ^ g a X.i.' a i } e.W..X                            ",
"                      .X).R ` / ^ O.8.X./ / +.e.W.].                            ",
"                      ~.Y.y.h.d.d.p.p.l.l.l.d.:.T.Q.                            ",
"                                                                                ",
"                                                                                "
};
