/* XPM */
static char *_489c7f49d434918ceb59dbc51911647wN5fhfOYywW6tmwi[] = {
/* columns rows colors chars-per-pixel */
"40 40 184 2 ",
"   c None",
".  c black",
"X  c #140702",
"o  c #2A231A",
"O  c #35393C",
"+  c #7F4C00",
"@  c #744D2C",
"#  c #7B5A28",
"$  c #676054",
"%  c #696865",
"&  c #777363",
"*  c #75787B",
"=  c #A00024",
"-  c #BF0029",
";  c #9A2720",
":  c #983C28",
">  c #A52C23",
",  c #BA2729",
"<  c #AD332A",
"1  c #B4382A",
"2  c #B82630",
"3  c #AF3C32",
"4  c #B53231",
"5  c #D21400",
"6  c #DE001F",
"7  c #D83600",
"8  c #CD0028",
"9  c #D2042A",
"0  c #DD012A",
"q  c #CE1624",
"w  c #D51932",
"e  c #E5002B",
"r  c #E6052A",
"t  c #E31D30",
"y  c #C8232A",
"u  c #C32C2A",
"i  c #D3252E",
"p  c #D52A2E",
"a  c #DA272B",
"s  c #D23D2E",
"d  c #CF2B32",
"f  c #DB2834",
"g  c #CD3B34",
"h  c #CB3331",
"j  c #D23332",
"k  c #E7322F",
"l  c #E62D32",
"z  c #EA3731",
"x  c #E53D33",
"c  c #E33836",
"v  c #9B5D19",
"b  c #906212",
"n  c #844A26",
"m  c #834F2A",
"M  c #964D2A",
"N  c #84542E",
"B  c #8D502B",
"V  c #995528",
"C  c #935C33",
"Z  c #985833",
"A  c #895935",
"S  c #B8402E",
"D  c #A5582D",
"F  c #B74932",
"G  c #A45C38",
"H  c #BD5434",
"J  c #B65836",
"K  c #94692E",
"L  c #92632E",
"P  c #806737",
"I  c #916935",
"U  c #B46B3B",
"Y  c #B86635",
"T  c #AA713D",
"R  c #AF7034",
"E  c #B4743E",
"W  c #D75E1F",
"Q  c #D86800",
"!  c #D84E2A",
"~  c #C8572A",
"^  c #D6552B",
"/  c #DD413B",
"(  c #D94A39",
")  c #D74736",
"_  c #CB503B",
"`  c #C35F37",
"'  c #DD5433",
"]  c #DD5A3D",
"[  c #D75A34",
"{  c #E54426",
"}  c #E54136",
"|  c #E85939",
" . c #F45B35",
".. c #C2663E",
"X. c #E8623C",
"o. c #F5633C",
"O. c #F8663D",
"+. c #9E744E",
"@. c #916F53",
"#. c #967456",
"$. c #AA6A40",
"%. c #B86C40",
"&. c #A47B56",
"*. c #A27E59",
"=. c #D96244",
"-. c #C67B49",
";. c #DB7C50",
":. c #ED6943",
">. c #E76F46",
",. c #F36542",
"<. c #E77347",
"1. c #DC9718",
"2. c #C7893E",
"3. c #CD903F",
"4. c #DD943F",
"5. c #AF855E",
"6. c #B2855D",
"7. c #9C8F7C",
"8. c #A68361",
"9. c #AC8A6C",
"0. c #B48A65",
"q. c #CD8C45",
"w. c #CA8B47",
"e. c #D68E4D",
"r. c #D68947",
"t. c #CB9243",
"y. c #DB954C",
"u. c #D69A4D",
"i. c #D99946",
"p. c #DB9D52",
"a. c #EF864E",
"s. c #F38347",
"d. c #E19745",
"f. c #EB9E4B",
"g. c #E39849",
"h. c #E29D58",
"j. c #F59A59",
"k. c #DDA257",
"l. c #ECA34C",
"z. c #F1A54F",
"x. c #ECAC52",
"c. c #EBAE5D",
"v. c #E7A855",
"b. c #F6AA5B",
"n. c #F2AA56",
"m. c #DDA662",
"M. c #F4B465",
"N. c #F4B669",
"B. c #FFC26D",
"V. c #9D9D9C",
"C. c #AEACAC",
"Z. c #A4A6A6",
"A. c #B0B0AF",
"S. c #B4B4B3",
"D. c #B9B5B3",
"F. c #BCB9B7",
"G. c #BBBBBB",
"H. c #B4B9BC",
"J. c #DEAC8B",
"K. c #C2C0BF",
"L. c #EAD2BC",
"P. c #BEC4C7",
"I. c #C5C5C5",
"U. c #CAC7C6",
"Y. c #CDCCCC",
"T. c #C6C9CA",
"R. c #D3CFCB",
"E. c #D9D3CF",
"W. c #CDD1D3",
"Q. c #D4D4D3",
"!. c #D6D9DB",
"~. c #DCDCDB",
"^. c #D9D7D3",
"/. c #E1E0DF",
"(. c #E3E3E3",
"). c #EAE7E5",
"_. c #E5E9EB",
"`. c #EBEBEB",
"'. c #E8E9E7",
"]. c #F2EFEF",
"[. c #EBEEF0",
"{. c #F4F4F4",
"}. c #FDFDFD",
"|. c #F9F8F7",
/* pixels */
"                                                                                ",
"                                                                                ",
"                                      ~.`.^.                                    ",
"                                      |.}.).                                    ",
"                                  `.E./.}.Q.R.).                                ",
"                                Y.}.Q.Q.{.G.Q.}.~.                              ",
"                                U.}.~.~.`.G.(.|.U.                              ",
"                              R.G.|.~.Q.(.G.(.I.S.                              ",
"                              }.G.`.Q.Q.(.G.`.G.Q.|.                            ",
"                            ~.}.I.Q.~.C.S.C.`.G.(.}.U.                          ",
"                      t.    Y.|.Y.D.V.o o O Z.G.`.`.D.                          ",
"                      l.1.Y.C.(.~.% .   I K X Z.`.Y.F.                          ",
"                      q.Q L.W.G.U.X     K R b % Y.A.}.                          ",
"                      r.s e.).G.%       L : D # * U.}.~.                        ",
"                      d./ 7 L.W..       2.H = v $ ~.|.(.                        ",
"                      z.x 5 J.Z.        x.O.- M # W.(.C.                        ",
"                      g.x 6 ;.&         v.o.e u + V.G.Y.                        ",
"                      f.x e X.P         p.X.e c V % /.}.                        ",
"                      f.x 0 ] T         x.o.0 d W 7.{.{.                        ",
"                      n.} d s           c.,.w 2 ~ 9.(.(.                        ",
"                      h.x h 1 C         m.,.g F Y 8.H.D.                        ",
"                      b.( U U A         M.:.J T E #.!.`.                        ",
"                      b.x F G N         M.O.9 3 ` 0._.|.                        ",
"                      d.k i < C         u.:.f , ! 0._.).                        ",
"                      y.=.p u B         y.e.( 0 ' +.H.K.                        ",
"                      l.-.l p m         n.r._ r ' +.!.`.                        ",
"                      l.../ q n         v.<.( t { &._.|.                        ",
"                      y.=.} y m         w.-.] e ^ 9.[.].                        ",
"                      2.%.k , B         i.[ i y ! 5.P.K.                        ",
"                      4.a j > M         i. .f 2 ~ 6.W.~.                        ",
"                      4.z g : N         t.| _ Y Y 8.[.|.                        ",
"                      r.) %.C @         u.| H $.U @.`.{.                        ",
"                      g.x S : n         x.o.9 4 ~ &.T.F.                        ",
"                      f.z y ; Z         i. .a , [ 6.T.Q.                        ",
"                      4.} j < G         w.] w w | 0._.|.                        ",
"                      q.j 8 < Z         3.s.>.<.s.0._.`.                        ",
"                      d.a.j.e.L         k.M.N.N.l.*.Q.Q.                        ",
"                      p.B.c.                                                    ",
"                                                                                ",
"                                                                                "
};
