/* XPM */
static char *fa615ddcf0bf46d0c0f89782151b9945AlXiwzm8U5Uh63So[] = {
/* columns rows colors chars-per-pixel */
"40 40 155 2 ",
"   c None",
".  c #8B371A",
"X  c #8E3C1E",
"o  c #963B15",
"O  c #9D3C12",
"+  c #933B19",
"@  c #9C3F19",
"#  c #A43C0B",
"$  c #A93E0B",
"%  c #A23E11",
"&  c #AF4107",
"*  c #A7400E",
"=  c #AE420B",
"-  c #B74507",
";  c #BA4607",
":  c #BF4A07",
">  c #B4450A",
",  c #B9460A",
"<  c #B5480E",
"1  c #BD490A",
"2  c #AA4513",
"3  c #B14612",
"4  c #BD4A10",
"5  c #C54C07",
"6  c #CA4E07",
"7  c #C34B0A",
"8  c #CA4F09",
"9  c #CE5107",
"0  c #CB510A",
"q  c #D55406",
"w  c #DA5506",
"e  c #DD5905",
"r  c #D4540A",
"t  c #D9560B",
"y  c #DC580D",
"u  c #E35A05",
"i  c #EB5D01",
"p  c #E95C03",
"a  c #E85D03",
"s  c #E95D03",
"d  c #EA5D02",
"f  c #EB5C03",
"g  c #EA5D03",
"h  c #EB5D03",
"j  c #EB5E03",
"k  c #EA5F03",
"l  c #EC5D02",
"z  c #EC5D03",
"x  c #ED5D03",
"c  c #EE5D03",
"v  c #ED5F02",
"b  c #EC5E03",
"n  c #ED5E03",
"m  c #ED5F03",
"M  c #EE5E02",
"N  c #EF5E02",
"B  c #EE5F02",
"V  c #EF5F02",
"C  c #EE5E03",
"Z  c #EF5E03",
"A  c #EF5F03",
"S  c #EA5D04",
"D  c #EC5E04",
"F  c #EC5F04",
"G  c #EC5E05",
"H  c #EF5E04",
"J  c #EB5D04",
"K  c #E05A0A",
"L  c #E65A09",
"P  c #E05A0D",
"I  c #E85A08",
"U  c #F05E01",
"Y  c #F05E02",
"T  c #F05F02",
"R  c #F15F02",
"E  c #F05F03",
"W  c #F15F03",
"Q  c #F35F02",
"!  c #F05E04",
"~  c #F05F04",
"^  c #F05F03",
"/  c #ED6003",
"(  c #EF6102",
")  c #EF6003",
"_  c #EF6003",
"`  c #F06002",
"'  c #F16102",
"]  c #F06003",
"[  c #F16103",
"{  c #F26002",
"}  c #F36002",
"|  c #F36102",
" . c #F26003",
".. c #F36003",
"X. c #F26103",
"o. c #F16203",
"O. c #F36203",
"+. c #F56201",
"@. c #F66301",
"#. c #F76301",
"$. c #F56103",
"%. c #F76102",
"&. c #F76103",
"*. c #F56202",
"=. c #F56302",
"-. c #F56203",
";. c #F56303",
":. c #F66202",
">. c #F76202",
",. c #F66302",
"<. c #F76302",
"1. c #F66203",
"2. c #F76203",
"3. c #F66303",
"4. c #F16004",
"5. c #F26004",
"6. c #F36004",
"7. c #F26005",
"8. c #F46004",
"9. c #F46104",
"0. c #F46105",
"q. c #F66304",
"w. c #F46103",
"e. c #F86200",
"r. c #F86300",
"t. c #FA6300",
"y. c #FA6301",
"u. c #F86202",
"i. c #F86302",
"p. c #F96302",
"a. c #F96401",
"s. c #FA6401",
"d. c #FB6401",
"f. c #FA6601",
"g. c #F86402",
"h. c #FA6402",
"j. c #FA6502",
"k. c #FB6502",
"l. c #FA6403",
"z. c #FB6403",
"x. c #FB6602",
"c. c #FD6401",
"v. c #FD6501",
"b. c #FC6600",
"n. c #FD6601",
"m. c #FF6700",
"M. c #FC6402",
"N. c #FE6402",
"B. c #FF6503",
"V. c #FD6602",
"C. c #FA6405",
"Z. c #FC6404",
"A. c #FB6402",
"S. c #FF6900",
"D. c #FF6801",
/* pixels */
"                        @ 7 >                                                   ",
"                    + 3 L C.                          0 5                       ",
"                  % t A g.9.>                         P c.7 O                   ",
"                % u :.:.Y 9.                          r :.A w O                 ",
"              O u :./ A Y 4.                          r p.| :.w O               ",
"            O w :.A A Y | 9.                          r p.a A :.r o             ",
"          o q | F A A A Y 4.                          r p.A A A Y 8 o           ",
"        + 8 | | / | A A Y 4.                          r g.A | A | ~ 7 X         ",
"      . 7 A :.4.| | | Y | 9.                          t c.| | | / :.a 4 X       ",
"    O 8 A :.| | | | | Y | 9.                          y c.| | | Y A :.a 7 O     ",
"2 4 I Y Y A A / A / A A Y 9.                          r p.A Y Y A A A | a u 4 2 ",
"t c.c.p.:.:.:.:.:.:.:.:.p.Z.                          y c.:.:.:.:.:.:.:.p.g.g.q ",
"w F 5 6 6 6 6 6 6 5 6 6 6 r                           1 q 8 8 6 6 6 6 6 5 6 F q ",
"q q # 5 : : 7 : : : 7 7 : 5                           < 5 7 7 7 7 : 7 7 7 = q q ",
"q w 7 | a S a a F A a F A ~                           r :.F A a S a a A A 5 q q ",
"w w 6 D.g.p.g.g.g.g.g.g.c.c.                          K D.g.g.g.g.p.:.g.c.9 q w ",
"w w , u q q w e w w w q q w                           7 e q w w w w q w w , w w ",
"w e # , - - - - - - , , , 7                           > : , , , - - - , - = w q ",
"w w 7 A a a S p a S p S A ~                           r :.S S S p S S a S 5 w w ",
"q q 5 p.Y | | | Y | | | :.9.                          t c.Y 9.4.| | | | | 6 q q ",
"q q 5 p.A | | / Y Y | Y :.9.                          t c.4.| Y 4.| / | | 6 q q ",
"q q : F a L L L L L L S a F                           r :.S S S L L S S S 7 q w ",
"w w # > = & & > > > > > > ,                           = - = > > = = = > > $ w q ",
"w w : L e e e u u u u u u L                           0 S u u u u e e u u 7 w w ",
"w w 8 c.Y :.:.:.:.:.:.| :.2.                          y c.:.:.:.:.| :.:.:.6 q w ",
"q w 5 C.4.9.4.4.| 9.9.:.:.2.                          t c.~ 9.9.| :.| 4.9.8 q w ",
"q w # , - - - - - - - , , 7                           = ; > - - - - - - - $ w q ",
"q w > q r r q q r r r r 9 r                           7 e q r r r q r q q - q q ",
"q q 5 g.| | | | | | | :.:.9.                          r c.| | | | | | :.| 5 q w ",
"q q 7 | a A F A A A a a / 4.                          r :.F A a a A a A A 5 q q ",
"q w 6 c.| :.| :.:.:.:.:.p.Z.                          y c.:.g.:.:.:.| :.g.6 q q ",
"w e = 6 5 5 5 5 6 6 6 5 5 8                           1 6 5 6 6 6 5 5 6 6 - w w ",
"w e = 9 5 8 0 0 0 0 0 5 7 8 *                         < 6 7 8 0 5 8 8 8 0 - w w ",
"q w 5 p.A / | | | | Y / | 9.<                         y g./ | 4.~ 4.| | | 8 q w ",
"q w 8 c.| :.:.:.:.:.:.| p.Z.<                         y c.:.:.:.:.:.:.:.:.8 q w ",
"q q > e q w w q w w t q w e =                         5 u q q q q q q w q - q q ",
"q u > , - - - - - - , - > 1 %                         = , > - - - - - , - - u q ",
"q :.~ | | A Y | 4.| | 4.| 4.>                         y g.4.4.~ ) | Y | 4.4.4.9 ",
"w c.:.:.:.:.:.:.:.:.:.:.p.C.>                         r c.| p.:.:.:.:.:.:.:.g.q ",
"> < < < > > < < < < < - > <                           3 < < < < < < > < < < < = "
};
