/* XPM */
static char *cb6c5dc1bc414584bb28b5bd27370252b60iVOUPh2JfCtZm[] = {
/* columns rows colors chars-per-pixel */
"40 40 162 2 ",
"   c None",
".  c #8B371A",
"X  c #8E3C1E",
"o  c #963B15",
"O  c #9D3C12",
"+  c #943B1A",
"@  c #993E19",
"#  c #A43C0B",
"$  c #A93E0A",
"%  c #A23E12",
"&  c #AF4107",
"*  c #AE4109",
"=  c #B24207",
"-  c #BA4605",
";  c #BC4807",
":  c #B5440A",
">  c #B94609",
",  c #BE4909",
"<  c #AB4412",
"1  c #AA4418",
"2  c #B24510",
"3  c #BD4A10",
"4  c #B04619",
"5  c #C44C06",
"6  c #CB4E06",
"7  c #C34B09",
"8  c #CA4E09",
"9  c #CE5106",
"0  c #CA5009",
"q  c #D55406",
"w  c #DA5606",
"e  c #DE5805",
"r  c #D35308",
"t  c #DA540A",
"y  c #E35A05",
"u  c #E95D03",
"i  c #EB5D02",
"p  c #EA5D03",
"a  c #EB5D03",
"s  c #EB5E03",
"d  c #EA5F03",
"f  c #EB5D01",
"g  c #EE5E01",
"h  c #EC5D02",
"j  c #ED5D02",
"k  c #EC5D03",
"l  c #ED5D03",
"z  c #EE5D02",
"x  c #ED5E02",
"c  c #EC5F02",
"v  c #ED5F02",
"b  c #EC5E03",
"n  c #ED5E03",
"m  c #ED5F03",
"M  c #EE5E02",
"N  c #EF5E02",
"B  c #EE5F02",
"V  c #EF5F02",
"C  c #EE5E03",
"Z  c #EF5E03",
"A  c #EE5F03",
"S  c #EF5F03",
"D  c #EA5C04",
"F  c #EA5D04",
"G  c #EB5E04",
"H  c #EC5E04",
"J  c #EC5F04",
"K  c #EE5E04",
"L  c #EF5E04",
"P  c #EE5F04",
"I  c #EF5F04",
"U  c #EB5E04",
"Y  c #E45909",
"T  c #E85A08",
"R  c #F05E01",
"E  c #F05F01",
"W  c #F05E02",
"Q  c #F05F02",
"!  c #F15F02",
"~  c #F05F03",
"^  c #F15F03",
"/  c #F35F02",
"(  c #F45F01",
")  c #F15D04",
"_  c #F05E04",
"`  c #F05F04",
"'  c #F15F03",
"]  c #ED6003",
"[  c #EF6002",
"{  c #EF6102",
"}  c #EE6003",
"|  c #EF6003",
" . c #EF6103",
".. c #EF6003",
"X. c #F06002",
"o. c #F16002",
"O. c #F06102",
"+. c #F16102",
"@. c #F06003",
"#. c #F16003",
"$. c #F06103",
"%. c #F16103",
"&. c #F26002",
"*. c #F36002",
"=. c #F26102",
"-. c #F36102",
";. c #F26003",
":. c #F36003",
">. c #F26103",
",. c #F36103",
"<. c #F16202",
"1. c #F16203",
"2. c #F36202",
"3. c #F26203",
"4. c #F36203",
"5. c #F56101",
"6. c #F46201",
"7. c #F56201",
"8. c #F66201",
"9. c #F66301",
"0. c #F46003",
"q. c #F56103",
"w. c #F66102",
"e. c #F76102",
"r. c #F56202",
"t. c #F56302",
"y. c #F46203",
"u. c #F56203",
"i. c #F46303",
"p. c #F56303",
"a. c #F66202",
"s. c #F76202",
"d. c #F66302",
"f. c #F76302",
"g. c #F66203",
"h. c #F76203",
"j. c #F76303",
"k. c #F36403",
"l. c #F76401",
"z. c #F76402",
"x. c #F16004",
"c. c #F06104",
"v. c #F26004",
"b. c #F36104",
"n. c #F66104",
"m. c #F66304",
"M. c #F36103",
"N. c #F86201",
"B. c #F86202",
"V. c #F86302",
"C. c #F96302",
"Z. c #F96401",
"A. c #F86501",
"S. c #FB6401",
"D. c #F86402",
"F. c #FB6403",
"G. c #F86602",
"H. c #FD6401",
"J. c #FE6402",
"K. c #FD6602",
"L. c #FA6402",
"P. c #FF6801",
/* pixels */
"                        @ 4 , 7 0 6 6 - 7 9 9 8 7 > 1 +                         ",
"                    + 2 Y n.-.-.a.a.H.r y z.a.a.x.J ` t < +                     ",
"                  % t W D.D.-.-.-.W a.6 e -.S -.-.W C.C.S 8 O                   ",
"                % y a.a.J J S S ] S a.6 e S S S ] S S J n.W t O                 ",
"              O y a.] S S ` S S S ] a.6 e -.S S S S S J S W a.w O               ",
"            O w a.S S S S ] S S S S -.6 w ] S S S S S ] W u S a.r o             ",
"          o q -.J S S S S S ] S S S -.6 e S S S S S S J S S S S W 8 o           ",
"        + 8 -.-.] ] S W S S S -.] S ( 6 e -.-.-.] S W S S S -.S -.` 7 X         ",
"      . 7 S a.x.-.-.-.-.W -.-.-.-.] -.6 w -.-.-.-.x.W -.-.-.-.-.] a.u 3 X       ",
"    O 8 S a.-.-.-.-.-.W W -.-.-.-.] -.6 e -.-.-.-.-.W -.-.-.-.-.W S a.u 8 O     ",
"< 3 T W W S S ] S ] S S S S ] S -.-.a.6 e -.S W W S S J S S S W S S S -.u y 3 < ",
"t H.H.C.a.a.a.a.a.a.a.a.a.a.a.a.a.W D.9 e a.S a.C.a.a.a.a.a.a.a.a.a.a.a.C.D.D.q ",
"w J 7 6 6 6 6 6 6 5 6 6 6 6 6 6 w J z.6 e a.-.q 8 6 6 6 6 6 7 6 6 6 6 6 5 6 J q ",
"q q # 5 , , 7 , , , 7 , , 7 7 = , ] z.6 e -.x.: : 7 , 7 7 , 7 7 7 , 7 7 7 * q q ",
"q w 7 -.u F u u J S u F u u -.q 7 ] D.6 e k.-.> w S F u u u S u F u u S S 7 q q ",
"w w 6 P.D.C.D.D.D.D.D.D.C.a.H.y 7 -.a.6 e -.-., F H.C.C.D.D.D.D.D.C.a.D.H.9 q w ",
"w w > y q q w e w w w w q w e 7 7 -.a.6 w -.-., 8 e q w w w w w w w q w w ; w w ",
"w e # > > : : : : : > : : > > * 7 -.a.9 e x.-., = > : : > > > > : : : > : * w q ",
"w w 7 S u u F D u F D F u F J r 7 x.D.6 e a.-.; w S u F F u F F u F F F F 7 w w ",
"q q 5 C.W -.-.-.W -.-.-.W W a.w 7 W a.6 e W W , y a.S -.W W -.-.-.-.-.-.-.6 q q ",
"q q 5 C.S -.-.] W W -.-.-.-.a.w 7 ] C.6 e W W > e a.] -.-.] W W x.-.] -.-.6 r q ",
"q q , J u u F u u u u u u u J r 7 ] -.6 e -.] > q F u F F u u F u u u F F 7 q w ",
"w w # = * & * = = = = = = = = $ 7 S a.6 e -.-., $ = * * * = = = * * * = = $ w q ",
"w w , u e e y e y y y y e e u 9 7 -.D.6 e a.-., r u e e y y y y y y e y y 7 w w ",
"w w 8 H.W a.a.a.a.a.a.-.-.-.D.e 7 -.a.6 e W -., y C.W a.a.a.a.a.a.a.a.a.a.6 q w ",
"q w 7 F.x.n.x.x.-.n.n.a.a.-.D.e 7 x.a.6 e W -., u C.-.a.x.x.n.n.-.a.-.n.n.8 q w ",
"q w # > : : : : : : : : : : > $ 7 x.a.6 e -.-., * > : : : : : : : : : : : $ w q ",
"q w : q r r r r r r r r r r q 7 7 S -.6 w S ] ; 7 q r r r r r r r r r r r : q q ",
"q q 7 D.-.-.-.-.-.-.-.a.-.-.a.w 7 S a.6 e W ] > y a.-.-.-.-.W -.-.-.-.a.-.7 r w ",
"q q 7 -.u S J S S S u u S u -.q 7 S -.6 w S -.; w -.u S S S S u u S u S S 5 q q ",
"q w 5 H.a.a.a.a.a.a.a.a.a.a.D.e 7 ] a.6 e -.-.> u D.-.a.a.a.z.a.a.a.-.a.D.6 r q ",
"w e * 6 5 5 5 6 6 6 6 5 5 5 6 > 7 -.a.6 e -.-., , 6 5 5 6 6 6 6 6 6 5 6 6 : w w ",
"w e * 9 7 8 0 0 0 0 0 8 8 7 0 ; 7 x.a.6 e -.-., , 0 7 7 7 0 0 0 7 8 8 8 0 : w w ",
"q w 7 C.S ] -.-.-.-.W ] -.-.z.w 7 x.D.9 y a.-.; y a.W -.-.] -.x.` x.-.-.x.8 q w ",
"t w 8 H.-.a.a.a.a.a.a.a.a.a.D.e 7 -.a.6 e -.W , u C.-.a.n.a.a.a.a.a.a.a.a.8 q w ",
"q q = e q w w q w w t w w q w 7 , ] D.9 y k.x.> 8 w q w q t w q q q q w q : q q ",
"q y = > : : : : : : > : : : : = 9  .z.6 e -.] 7 = : : : : : : : : : > > : : y q ",
"r a.` -.-.S W -.x.-.-.-.S -.x.x.` J a.6 e -.] x.x.-.-.W -.x.x.`  .-.W -.x.x.x.9 ",
"w H.a.a.n.a.a.a.a.a.a.a.W -.-.a.-.x.C.0 y n.x.-.-.-.-.W a.a.C.a.a.a.a.a.a.a.D.q ",
": > > : : : : : : : : : = = = = = * = * * = = = = * * * : : : > : : : : : : > * "
};
