/* XPM */
static char *e_11703694875[] = {
/* columns rows colors chars-per-pixel */
"40 40 187 2 ",
"   c None",
".  c #010000",
"X  c #0B0B0B",
"o  c #171718",
"O  c #000822",
"+  c #1F1F20",
"@  c #251E3D",
"#  c #28292A",
"$  c #333334",
"%  c #6F0000",
"&  c #7C0000",
"*  c #673D1B",
"=  c #6B3500",
"-  c #6C411D",
";  c #74451E",
":  c #76441B",
">  c #5C412F",
",  c #6C4622",
"<  c #724620",
"1  c #7B4C22",
"2  c #744C24",
"3  c #785329",
"4  c #705531",
"5  c #173743",
"6  c #2E2A65",
"7  c #7E0049",
"8  c #672D5D",
"9  c #783074",
"0  c #575054",
"q  c #69575A",
"w  c #6B645E",
"e  c #5D5F60",
"r  c #67666D",
"t  c #7A787A",
"y  c #65687F",
"u  c #800000",
"i  c #970002",
"p  c #990000",
"a  c #92190D",
"s  c #A40000",
"d  c #B70000",
"f  c #B81C00",
"g  c #923332",
"h  c #B7262E",
"j  c #CA0001",
"k  c #C10002",
"l  c #D80005",
"z  c #C92829",
"x  c #874400",
"c  c #A46B00",
"v  c #804D23",
"b  c #845326",
"n  c #835529",
"m  c #85582B",
"M  c #8A5C2C",
"N  c #8A5428",
"B  c #955C2B",
"V  c #885D31",
"C  c #99642D",
"Z  c #8B6635",
"A  c #936331",
"S  c #986634",
"D  c #9E733C",
"F  c #A3652E",
"G  c #A0712D",
"H  c #A26C34",
"J  c #AB6B32",
"K  c #B06F34",
"L  c #A4743B",
"P  c #AD753B",
"I  c #AE793C",
"U  c #AA7435",
"Y  c #B57A3C",
"T  c #BB7838",
"R  c #AB005C",
"E  c #865C5E",
"W  c #AA5552",
"Q  c #976A45",
"!  c #916F4D",
"~  c #A47844",
"^  c #AB7C5F",
"/  c #837776",
"(  c #B4766C",
")  c #CA4B5A",
"_  c #C06F5D",
"`  c #E17478",
"'  c #B6811F",
"]  c #CC9819",
"[  c #CF9E2B",
"{  c #D69A26",
"}  c #D6A92E",
"|  c #E7BB25",
" . c #F3CB2C",
".. c #AB834A",
"X. c #BE8E4C",
"o. c #B88446",
"O. c #93897B",
"+. c #A68B74",
"@. c #B6857C",
"#. c #B18F70",
"$. c #CA924B",
"%. c #D09F7E",
"&. c #C58064",
"*. c #C5AA73",
"=. c #F3B175",
"-. c #EDCD64",
";. c #FFE167",
":. c #2D3881",
">. c #0038AA",
",. c #1C39A4",
"<. c #293FA4",
"1. c #0046B2",
"2. c #2F43A3",
"3. c #2A45B8",
"4. c #4E6285",
"5. c #70769F",
"6. c #4351A7",
"7. c #6743A1",
"8. c #7C74AF",
"9. c #0028C8",
"0. c #0042C3",
"q. c #2449C5",
"w. c #354FC1",
"e. c #355DD6",
"r. c #286EF2",
"t. c #3F68E5",
"y. c #4E6FDC",
"u. c #4F6AC9",
"i. c #697CC7",
"p. c #6B76D0",
"a. c #4877EA",
"s. c #4476F3",
"d. c #847F81",
"f. c #8D78BF",
"g. c #A36EA6",
"h. c #C2668A",
"j. c #838486",
"k. c #8A8A8C",
"l. c #8A8887",
"z. c #948D84",
"x. c #948D88",
"c. c #959189",
"v. c #999387",
"b. c #8F9093",
"n. c #959597",
"m. c #8B8A98",
"M. c #AA9E8F",
"N. c #B19F8C",
"B. c #A19C95",
"V. c #9D9EA1",
"C. c #9FA0A2",
"Z. c #A4A5A6",
"A. c #ACACAD",
"S. c #A7A7AA",
"D. c #B8ADA8",
"F. c #B5B1AC",
"G. c #ADAEB1",
"H. c #A7A9B8",
"J. c #AEB0B3",
"K. c #B3B4B6",
"L. c #B8B6B5",
"P. c #BBBABB",
"I. c #B5B7BB",
"U. c #E98A8D",
"Y. c #DDBF9D",
"T. c #C7AB93",
"R. c #EAB993",
"E. c #DAB1B0",
"W. c #EBB3B7",
"Q. c #E1C49D",
"!. c #FFF391",
"~. c #DCC6AB",
"^. c #E5CDB2",
"/. c #FDF1AD",
"(. c #8EA2C8",
"). c #BBBFD0",
"_. c #BEC0C4",
"`. c #C2C2C3",
"'. c #C5C6CA",
"]. c #C6C8CB",
"[. c #C8CBCD",
"{. c #CED0D4",
"}. c #D7D7D8",
"|. c #D7C7C3",
" X c #E2E3E4",
".X c #E9E8E8",
"XX c #F8F9F9",
/* pixels */
"                                        [ | ;./.!.                              ",
"                                      ' { ] } -.;. .                            ",
"                                        ' U L G c                               ",
"                                          v.P.`.                                ",
"                z l U.W.W.`               b.P.[.                                ",
"            g h l j h ( @.W & %           B.`.].                                ",
"    XXXX.XT.& u g +.M.H.^.~.E.R.        l.b.S.'. X                              ",
"G. X.XXX XXX|.w > R.T.4.v.^ T.Y.#.    / m./ k.'.}.                              ",
"  S.S.A.{..XXXE.f _ &.T.+.q ! ( R p a = r k.G.I.                                ",
"          / E p d j z ) h.g.f.N.*.p.p.u.  v.I._.                                ",
"                  a s s d j R i.(.a.r.s.e.u.y.a.s.s.                            ",
"                        8 9 7.0.9.3.w.q.<.q.0.1.e.a.r.8.$.=.o.                  ",
"                            1.<.2.2.>.>.,.6 5.5.<.3.6.q M Q                     ",
"                                      0 @ e A.K.6                               ",
"                                      ! 4 / A.L.Q ~                             ",
"                                          v.K.).Q                               ",
"                                          c.P.].                                ",
"                                          c.P.].                                ",
"                                          c.P.'.                                ",
"                                          c.P.'.                                ",
"                                          c.P.'.                                ",
"                                          c.P.].                                ",
"                                          c.P.].                                ",
"                                          c.P.].                                ",
"                                          c.P.].                                ",
"                                          c.P.'.                                ",
"                                          c.P.].                                ",
"                                          c.I.J.. . . .                         ",
"                                          z.L.G.. 0 5.S._.V.t e .               ",
"                                          c.L.G.. n.~.I.{.K.J.b.. X o o # # $   ",
"                                          v.P.G.. C.V.k.r j.j.k.. . X o +       ",
"                                          O.L.J.. . j.A.n.C.t . .               ",
"                                          O.F.A.. O . 5                         ",
"                                      $.  O.D.D.C H                             ",
"                        H $.~ V ~ T J K [ +.D.D.x b B A $.Y ..o.X.              ",
"                        m P B Z V V B A Q ^ N.T.U ..o.Y o.Y X.~ B               ",
"                        M C b 1 * ; 2 ; ; M P I L ~ S F H F I X.J               ",
"                          m v 1 ; 3 Z 2 ; 2 ; : m Z n b n v m Z                 ",
"                          b B M b : ; - * 3 , * - ; 1 D L F T I                 ",
"                            m 1 1 2 3 , , m m N D D C L P P o.                  "
};
