/* XPM */
static char *e_21703694874[] = {
/* columns rows colors chars-per-pixel */
"40 40 189 2 ",
"   c None",
".  c #000000",
"X  c #0C0C0C",
"o  c #0F0F10",
"O  c #191A1A",
"+  c #212123",
"@  c #2A2B2C",
"#  c #2F2F31",
"$  c #3B3B3C",
"%  c #7C0000",
"&  c #710000",
"*  c #673D1B",
"=  c #6E3E24",
"-  c #6C411D",
";  c #74451E",
":  c #76441B",
">  c #5C4434",
",  c #6C4622",
"<  c #6C442D",
"1  c #724620",
"2  c #7B4C22",
"3  c #744C24",
"4  c #785329",
"5  c #6C512A",
"6  c #0B164B",
"7  c #20266E",
"8  c #6E2B54",
"9  c #575655",
"0  c #514B50",
"q  c #654948",
"w  c #735A6F",
"e  c #7B7C7E",
"r  c #77787A",
"t  c #676775",
"y  c #8D0000",
"u  c #9A0000",
"i  c #940000",
"p  c #900A15",
"a  c #AC0000",
"s  c #B90000",
"d  c #B02200",
"f  c #B11C22",
"g  c #953934",
"h  c #A22129",
"j  c #CA0000",
"k  c #D70004",
"l  c #CE0013",
"z  c #C82F2E",
"x  c #945D00",
"c  c #8B4600",
"v  c #9D6A06",
"b  c #A46C00",
"n  c #804D23",
"m  c #845326",
"M  c #835529",
"N  c #8B5528",
"B  c #85582B",
"V  c #8B5D2C",
"C  c #945C2C",
"Z  c #975B29",
"A  c #885D31",
"S  c #99632E",
"D  c #8C6434",
"F  c #8A6836",
"G  c #936331",
"H  c #976C37",
"J  c #9E733C",
"K  c #A3652E",
"L  c #A26C34",
"P  c #AB6B32",
"I  c #B06F34",
"U  c #AD763B",
"Y  c #AE793C",
"T  c #A87537",
"R  c #B57A3C",
"E  c #B87A37",
"W  c #800049",
"Q  c #A70069",
"!  c #882B69",
"~  c #C23D46",
"^  c #AD494C",
"/  c #906747",
"(  c #906949",
")  c #8E7247",
"_  c #A37248",
"`  c #A27842",
"'  c #B57F41",
"]  c #A5765B",
"[  c #837978",
"{  c #907172",
"}  c #AF7A6C",
"|  c #CE5B65",
" . c #C17A6D",
".. c #B6811E",
"X. c #CC9817",
"o. c #CF9E2B",
"O. c #D69A26",
"+. c #D8AB37",
"@. c #E7BB25",
"#. c #F3CB2C",
"$. c #AC8248",
"%. c #BE8E4C",
"&. c #BB8647",
"*. c #9F816C",
"=. c #958B7E",
"-. c #9B957E",
";. c #A38B6F",
":. c #BF9D6C",
">. c #B98A74",
",. c #CB934C",
"<. c #C68F6F",
"1. c #E6A76F",
"2. c #EECF66",
"3. c #FFE166",
"4. c #293788",
"5. c #0138AA",
"6. c #243DA6",
"7. c #0045B1",
"8. c #2F42A2",
"9. c #324ABA",
"0. c #5A5E81",
"q. c #774097",
"w. c #4C6A92",
"e. c #7D7E81",
"r. c #636B9D",
"t. c #4359B9",
"y. c #5969B1",
"u. c #6D7FBB",
"i. c #7A77B6",
"p. c #002ACB",
"a. c #0046C9",
"s. c #284AC4",
"d. c #3558CE",
"f. c #3761DC",
"g. c #286FF2",
"h. c #556ED1",
"j. c #7270C7",
"k. c #406BEA",
"l. c #4578F1",
"z. c #4F7BE9",
"x. c #897D80",
"c. c #917FBD",
"v. c #9E73A7",
"b. c #C27291",
"n. c #878789",
"m. c #938D86",
"M. c #938F88",
"N. c #959189",
"B. c #999286",
"V. c #8C8D94",
"C. c #918D90",
"Z. c #8F9093",
"A. c #949699",
"S. c #989899",
"D. c #B19F8C",
"F. c #AE918A",
"G. c #BBA281",
"H. c #9B9DA0",
"J. c #ABABAC",
"K. c #A9A9A7",
"L. c #B6A9A4",
"P. c #ADAEB1",
"I. c #AAA6B0",
"U. c #B3B4B6",
"Y. c #B8B7B6",
"T. c #BABABA",
"R. c #B9B8B8",
"E. c #B8B1AB",
"W. c #E98C8D",
"Q. c #D3B38F",
"!. c #CCB199",
"~. c #EBBB94",
"^. c #C5BAB7",
"/. c #D5B8AD",
"(. c #EDB5B8",
"). c #FFF391",
"_. c #DCC4A4",
"`. c #FEF3AC",
"'. c #9DADC2",
"]. c #BBBDC1",
"[. c #C3C4C4",
"{. c #C4C6CA",
"}. c #C7C8CC",
"|. c #CACBCF",
" X c #DBDBDD",
".X c #EFEEEE",
"XX c #E4E5E6",
"oX c #F7F6F6",
"OX c #FBFEFE",
/* pixels */
"                                        o.@.3.`.).                              ",
"                                      ..O.X.+.2.3.#.                            ",
"                                        ..T v x b                               ",
"                                          m.K.I.                                ",
"                                          M.[.|.                                ",
"                                          B.T.[.                                ",
"                z k W.(.(.                B.T.}.                                ",
"              f k k ~  .F.^ y &           S.[.}.                                ",
"    oX  XXL.% y g ] B.I._._./.Q.        x.Z.J.{.XX                              ",
"J. X.XOXXXoX^.q > ~.!.w.H.>.~./.G.    x.V.x.n.|. X                              ",
"  J.J.T. X.XOX/.d  .>.<.{ q ( } W u i = t n.J.U.                                ",
"        C.x.{ h j l z | b.v.A.>.:.j.i.y.  -.T.{.                                ",
"                  p a a s j Q u.'.z.g.l.f.h.h.z.l.l.                            ",
"                        8 ! q.a.p.s.d.s.s.s.a.a.f.k.g.i.,.1.,.                  ",
"                            7.8.8.6.5.5.6.4.0.r.6.9.t.w G _                     ",
"                                      0 6 9 J.U.7                               ",
"                                      ) 5 [ J.U.( _                             ",
"                                          B.U.^.( <                             ",
"                                          N.T.{.                                ",
"                                          N.T.{.                                ",
"                                          N.T.{.                                ",
"                                          N.T.{.                                ",
"                                          N.T.{.                                ",
"                                          N.T.|.                                ",
"                                          M.T.T.                                ",
"                                          M.U.J.. $ @ e A.n.0                   ",
"                                          M.T.P.. e ].]. X].U.e.. + O + @ #     ",
"                                          M.R.J.. P.P.S.A.Z.A.H.o . o O + @     ",
"                                          m.R.P.. 9 Z.H.r A.n.$ . o X           ",
"                                          m.R.J.. . $ e.e.V.                    ",
"                                          m.T.P..                               ",
"                                          B.T.[.                                ",
"                                          B.Y.[.                                ",
"                                      ,.  =.E.T.E U                             ",
"                        L ,.` A ' I P E E ;.L.E.c N C S &.&.` &.%.              ",
"                        B U C D A V C G T $.D.!.T $.&.Y &.R %._ C               ",
"                        V S m 2 * ; 3 ; ; V U Y T ` H K K K U ,.P               ",
"                          B n 2 : 4 D 3 ; ; : - 4 F M 2 M M B D                 ",
"                          M Z V B : ; - - 4 , = , 3 n ` T K R Y                 ",
"                            M 2 ; 3 4 , 3 4 B N H L S U T U &.                  "
};
