/* XPM */
static char *e_31703694875[] = {
/* columns rows colors chars-per-pixel */
"40 40 195 2 ",
"   c None",
".  c #000000",
"X  c #0C0C0C",
"o  c #1C1C1C",
"O  c #101111",
"+  c #2E0000",
"@  c #000A24",
"#  c #232324",
"$  c #29292A",
"%  c #333335",
"&  c #7E0000",
"*  c #633300",
"=  c #673D1B",
"-  c #462B34",
";  c #7A2222",
":  c #5C4303",
">  c #6C411D",
",  c #74451E",
"<  c #76441B",
"1  c #6C4622",
"2  c #724620",
"3  c #7B4C22",
"4  c #744C24",
"5  c #785329",
"6  c #64473C",
"7  c #001C6D",
"8  c #30387B",
"9  c #5B3B4C",
"0  c #4E4E55",
"q  c #4F5051",
"w  c #575759",
"e  c #755344",
"r  c #6E6F70",
"t  c #747577",
"y  c #706D69",
"u  c #880000",
"i  c #9C0000",
"p  c #90091C",
"a  c #AE0108",
"s  c #BC0000",
"d  c #922E00",
"f  c #AD0024",
"g  c #BD002F",
"h  c #AF1B24",
"j  c #85233B",
"k  c #AB2627",
"l  c #D50000",
"z  c #D3021B",
"x  c #E70000",
"c  c #CB302E",
"v  c #905200",
"b  c #9D6A06",
"n  c #A46C00",
"m  c #804D23",
"M  c #845326",
"N  c #835529",
"B  c #85582B",
"V  c #8B5D2C",
"C  c #8B5528",
"Z  c #945C2C",
"A  c #975B29",
"S  c #865B34",
"D  c #974335",
"F  c #9D632E",
"G  c #8C6335",
"H  c #876737",
"J  c #936331",
"K  c #976C37",
"L  c #9E733C",
"P  c #A3652E",
"I  c #A26C34",
"U  c #AB6B32",
"Y  c #B06F34",
"T  c #AD753B",
"R  c #AE793C",
"E  c #A87537",
"W  c #B57A3C",
"Q  c #B87A37",
"!  c #B33D49",
"~  c #992F6F",
"^  c #C32D5E",
"/  c #8D514E",
"(  c #8A694B",
")  c #93665B",
"_  c #A67743",
"`  c #B57F41",
"'  c #A46A58",
"]  c #825E61",
"[  c #857A7D",
"{  c #A57B76",
"}  c #CF5A4B",
"|  c #C56B6D",
" . c #E36C72",
".. c #B6811E",
"X. c #BB823B",
"o. c #CC9817",
"O. c #CF9E2B",
"+. c #D69A26",
"@. c #D8AB37",
"#. c #E7BB25",
"$. c #F3CB2C",
"%. c #AC8248",
"&. c #BE8E4C",
"*. c #BA8645",
"=. c #958B7E",
"-. c #9A9579",
";. c #A6886A",
":. c #BA8675",
">. c #BC8B6E",
",. c #CC944D",
"<. c #D39073",
"1. c #ECAC72",
"2. c #EECF66",
"3. c #FFE166",
"4. c #002587",
"5. c #23399E",
"6. c #1D3DB0",
"7. c #273FAB",
"8. c #3D4D9F",
"9. c #38458F",
"0. c #0041A5",
"q. c #0043B0",
"w. c #2743B8",
"e. c #3044B0",
"r. c #434696",
"t. c #6D6F80",
"y. c #6873B9",
"u. c #0050CC",
"i. c #0755DD",
"p. c #0046D6",
"a. c #3457D3",
"s. c #2F53D0",
"d. c #2C68E8",
"f. c #3A72EF",
"g. c #4371EF",
"h. c #4879F2",
"j. c #952093",
"k. c #807F81",
"l. c #806E9C",
"z. c #8B6C8D",
"x. c #8856A2",
"c. c #8977A4",
"v. c #6C8CB2",
"b. c #7E8DD1",
"n. c #4F85EC",
"m. c #7990E2",
"M. c #87868A",
"N. c #938E85",
"B. c #938F89",
"V. c #959089",
"C. c #999388",
"Z. c #8E9092",
"A. c #9C9B9B",
"S. c #959597",
"D. c #B39B8C",
"F. c #A88F8D",
"G. c #BDA88F",
"H. c #9D9EA2",
"J. c #938AA8",
"K. c #9EA0A2",
"L. c #A5A4A4",
"P. c #AAA9AB",
"I. c #B5ACA4",
"U. c #ABADB3",
"Y. c #AEB0B3",
"T. c #B3B4B5",
"R. c #BCBBBC",
"E. c #BAB8B7",
"W. c #B8B1AB",
"Q. c #D1959C",
"!. c #E48587",
"~. c #D7AF90",
"^. c #C9AC91",
"/. c #E5B891",
"(. c #C6B5AA",
"). c #C8BDB5",
"_. c #D9A1A6",
"`. c #EEB0B3",
"'. c #BCC1A8",
"]. c #FFF391",
"[. c #C2C0B7",
"{. c #ECCEB0",
"}. c #EDD4AE",
"|. c #FEF3AC",
" X c #C4C4C5",
".X c #C4C6C9",
"XX c #C6C9CD",
"oX c #C8C8C4",
"OX c #D5D6D7",
"+X c #CACDD1",
"@X c #D9DBE0",
"#X c #DFE0E0",
"$X c #E3E0E1",
"%X c #EEEEEE",
"&X c #FAFBFB",
/* pixels */
"                                        O.$.2.|.].                              ",
"                                      ..+.o.@.2.3.$.                            ",
"                                        ..E b v n                               ",
"                                          C.L.P.                                ",
"                                          B. X+X                                ",
"                                          B.R.XX                                ",
"                                          V.).XX                                ",
"                                          B.R.XX                                ",
"                                          B.R..X                                ",
"                    !.`.                  B.R.XX                                ",
"              a z x  ._._.! u &           C.R.+X                                ",
"            & h k D ) F.^.G.D.'           A.E. X                                ",
"   X%X&XOX$X{ + 6 /.I.v.[.~.{.}.      k.M.k.Z.OX#X                              ",
"L.R. XOX$X&X&X(.d <.<.{ ( * G :./ i u ] r M.H.U.                                ",
"      A.L.A.I.| l c } <.Q.c.J.:.' x.z.9   -.[.oX                                ",
"                p i a s g ^ j.J.'.n.f.h.d.y.b.m.h.                              ",
"                      ; j f ~ u.i.a.a.a.s.s.i.i.f.g.d.c.,.1.                    ",
"                          0.q.7.e.w.6.6.e.5.9.8.w.a.f.l.X.<._                   ",
"                                    r.5.7 0 A.U.4.4.- *                         ",
"                                      G : y T.E.e `                             ",
"                                          N.Y.E.( /                             ",
"                                          B.T.T.o @ . r M.M.%                   ",
"                                          B.T.T.. t T.R.@XR.Y.t . # o #         ",
"                                          B.E.T.. P.T.H.L.A.A.H.O . X o # $     ",
"                                          V.T.U.. y S.S.r Z.M.q . O X           ",
"                                          V.T.U.. . q M.M.S.w                   ",
"                                          V.R.Y..                               ",
"                                          V.)..X                                ",
"                                          V.R..X                                ",
"                                          C.R. X                                ",
"                                          B.R..X                                ",
"                                          C.E. X                                ",
"                                          N.E.oX                                ",
"                                      ,.  =.W.).Q E                             ",
"                        I ,._ S W Y U Q Q ;.I.I.v C Z J *.*._ *.&.              ",
"                        B T A H S V Z J E %.D.(.E _ *.W ` R ,._ Z               ",
"                        V J M , = , 4 , , V T R E _ I F I P R &.U               ",
"                          B m M , 5 H , , 3 , > 5 H 5 4 N M B G                 ",
"                          C A V M < , > = 5 1 = 1 3 3 _ E P W R                 ",
"                            V , 3 4 5 1 1 B B C K I F T E T *.                  "
};
