/* XPM */
static char *e_41703694875[] = {
/* columns rows colors chars-per-pixel */
"40 40 191 2 ",
"   c None",
".  c black",
"X  c #09090A",
"o  c #0F0F10",
"O  c #19191B",
"+  c #2E0000",
"@  c #262627",
"#  c #303032",
"$  c #7E0000",
"%  c #633300",
"&  c #673D1B",
"*  c #462B39",
"=  c #7B2220",
"-  c #5B4300",
";  c #6C411D",
":  c #74451E",
">  c #76441B",
",  c #6C4622",
"<  c #724620",
"1  c #7B4C22",
"2  c #744C24",
"3  c #785329",
"4  c #65473D",
"5  c #001D6E",
"6  c #2E387C",
"7  c #5B3A47",
"8  c #505057",
"9  c #755345",
"0  c #66655E",
"q  c #57636A",
"w  c #666769",
"e  c #656668",
"r  c #6E6F72",
"t  c #79726B",
"y  c #880000",
"u  c #990000",
"i  c #920C1D",
"p  c #A80000",
"a  c #BC0000",
"s  c #AE0319",
"d  c #902F00",
"f  c #BD0032",
"g  c #B01D25",
"h  c #86243A",
"j  c #AC2527",
"k  c #D50000",
"l  c #D2041C",
"z  c #E70000",
"x  c #CA312F",
"c  c #955D00",
"v  c #8B4600",
"b  c #9D6A06",
"n  c #A46C00",
"m  c #804D23",
"M  c #845326",
"N  c #835529",
"B  c #8B5528",
"V  c #85582B",
"C  c #8B5D2C",
"Z  c #945C2C",
"A  c #975B29",
"S  c #875C35",
"D  c #974133",
"F  c #9D632E",
"G  c #896536",
"H  c #936331",
"J  c #976C37",
"K  c #9E733C",
"L  c #A3652E",
"P  c #A26C34",
"I  c #AB6B32",
"U  c #B06F34",
"Y  c #AD753B",
"T  c #AE793C",
"R  c #A87537",
"E  c #B57A3C",
"W  c #B87A37",
"Q  c #B43D49",
"!  c #9A2E6E",
"~  c #C33060",
"^  c #8D5150",
"/  c #8D674F",
"(  c #A57743",
")  c #B57F41",
"_  c #A26857",
"`  c #835F61",
"'  c #847D7A",
"]  c #A47974",
"[  c #CF5B4C",
"{  c #C66D70",
"}  c #E46D73",
"|  c #B6811E",
" . c #BA833F",
".. c #CC9817",
"X. c #CF9E2B",
"o. c #CC902E",
"O. c #D8AB37",
"+. c #E7BB25",
"@. c #F3CB2C",
"#. c #AC8248",
"$. c #BE8E4C",
"%. c #BA8645",
"&. c #958B7E",
"*. c #989177",
"=. c #A5876A",
"-. c #BA8675",
";. c #BC8B6E",
":. c #C8934D",
">. c #E09D5D",
",. c #D49275",
"<. c #EECF66",
"1. c #FFE166",
"2. c #002487",
"3. c #233A9F",
"4. c #1F3DAE",
"5. c #1D3EB1",
"6. c #273FAB",
"7. c #394898",
"8. c #0043AA",
"9. c #2743B7",
"0. c #3144B0",
"q. c #404596",
"w. c #665788",
"e. c #6D6F80",
"r. c #7F6F9C",
"t. c #6973B7",
"y. c #0051CD",
"u. c #0557D9",
"i. c #0047D6",
"p. c #3458D4",
"a. c #2F54D1",
"s. c #3E6CE5",
"d. c #316EED",
"f. c #4368C4",
"g. c #4979F0",
"h. c #952494",
"j. c #807F81",
"k. c #8C6B8A",
"l. c #8955A0",
"z. c #8F78A0",
"x. c #6D8DB3",
"c. c #7E8DCF",
"v. c #768EDC",
"b. c #4F85EC",
"n. c #868689",
"m. c #888688",
"M. c #948E85",
"N. c #938F89",
"B. c #959189",
"V. c #999286",
"C. c #888B91",
"Z. c #9A9A9C",
"A. c #9A9997",
"S. c #8B949D",
"D. c #B29A8B",
"F. c #A59594",
"G. c #BCA78E",
"H. c #9690A5",
"J. c #9FA0A3",
"K. c #A6A5A4",
"L. c #A4A5A9",
"P. c #AAA7A9",
"I. c #B5ACA4",
"U. c #B5B2AD",
"Y. c #AAACB2",
"T. c #AEB0B1",
"R. c #BDBAB4",
"E. c #BDBCBD",
"W. c #B5B5B7",
"Q. c #D1959C",
"!. c #E78789",
"~. c #CDAD90",
"^. c #E4B891",
"/. c #C5B4AA",
"(. c #CEAFAE",
"). c #EEB0B3",
"_. c #BDC1A6",
"`. c #FFF391",
"'. c #CFC0B5",
"]. c #EECFB1",
"[. c #EDD5AE",
"{. c #FEF3AC",
"}. c #BEBFC2",
"|. c #C3C4C5",
" X c #C5C6CA",
".X c #C8CACC",
"XX c #D5D6D7",
"oX c #CACDD1",
"OX c #E4DFDF",
"+X c #E7E7E7",
"@X c #FAFBFB",
/* pixels */
"                                        X.+.1.{.`.                              ",
"                                      | X...O.<.1.@.                            ",
"                                        | R b c n                               ",
"                                          V.K.L.                                ",
"                                          N.|.oX                                ",
"                                          N.E. X                                ",
"                                          B.E..X                                ",
"                                          B.E..X                                ",
"                                          N.}. X                                ",
"                                          B.E. X                                ",
"                                          B.}. X                                ",
"                                          N.E. X                                ",
"                                          B.E. X                                ",
"                    !.).                  B.E..X                                ",
"              s l z } Q.).Q y y           V.E.}.                                ",
"            $ g j D / F.~.D.D._           A.W.E.n.. . 8 r                       ",
"  |.+X@XXX+X] + 4 ^.I.x.'.~.].].      ' C.j.C.oXXXe J.E.XXW.Z.w . @ @           ",
"L.'. XXXOX@X@X/.d ,.;.=./ % S ,.^ u y ` r j.Z.Y.j.L.}.Y.E.L.L.H.. . o O @ @ #   ",
"      Z.K.Z.P.{ k x [ !.Q.z.H.] ] l.k.7   *.R.W.. ' A.C.e m.n.r . X X O         ",
"                i u p a f ~ h.H.'.b.d.g.d.t.c.v.f.2.0 A.C.S.q .                 ",
"                      = h s ! y.y.a.p.p.a.a.u.u.s.g.u.w. .>.                    ",
"                          8.8.6.0.9.5.5.6.4.7.7.6.a.s.z. .>.(                   ",
"                                    q.6 5 8 A.Y.2.2.* %                         ",
"                                      G - t T.W.9 (                             ",
"                                          &.T.E./ S                             ",
"                                          B.E. X                                ",
"                                          B.E. X                                ",
"                                          B.E. X                                ",
"                                          B.E. X                                ",
"                                          B.E.|.                                ",
"                                          B./. X                                ",
"                                          B.E.|.                                ",
"                                          V.R.|.                                ",
"                                      :.  &.R./. .R                             ",
"                        P :.( G ) U I U W =.I.I.v B Z Z %.%.) %.:.              ",
"                        C R A G C C H H R #.D./.U #.%.T %.( $.( Z               ",
"                        B H M 1 & : 2 : : B Y Y R ( P L P L T $.I               ",
"                          V M : > 3 G 2 2 1 : > 3 G 3 1 N M V G                 ",
"                          M A C N > : ; & 3 , & , 2 m ( R L E T                 ",
"                            M M 1 2 3 , < 3 V C J K F R R Y %.                  "
};
