/* XPM */
static char *e_51703694875[] = {
/* columns rows colors chars-per-pixel */
"40 40 193 2 ",
"   c None",
".  c black",
"X  c #0C0C0D",
"o  c #0E0E10",
"O  c #191A1A",
"+  c #351F00",
"@  c #222223",
"#  c #2A2A2C",
"$  c #353637",
"%  c #7F0000",
"&  c #760000",
"*  c #673D1B",
"=  c #6B302A",
"-  c #68431D",
";  c #74451E",
":  c #76441B",
">  c #6C4622",
",  c #724620",
"<  c #7B4C22",
"1  c #744C24",
"2  c #785329",
"3  c #72503B",
"4  c #00145B",
"5  c #001777",
"6  c #00297C",
"7  c #77274B",
"8  c #403D6A",
"9  c #434445",
"0  c #585859",
"q  c #77524E",
"w  c #787878",
"e  c #696B7D",
"r  c #8C0000",
"t  c #9B0004",
"y  c #870E1B",
"u  c #A10005",
"i  c #B90000",
"p  c #B10A19",
"a  c #A32F00",
"s  c #A03230",
"d  c #D50000",
"f  c #DD0007",
"g  c #CD1E23",
"h  c #C80037",
"j  c #955D00",
"k  c #8B4600",
"l  c #9D6A06",
"z  c #A46C00",
"x  c #804D23",
"c  c #845326",
"v  c #835529",
"b  c #8B5528",
"n  c #85582B",
"m  c #8B5D2C",
"M  c #945C2C",
"N  c #975B29",
"B  c #885D31",
"V  c #9D632E",
"C  c #8F653B",
"Z  c #8A6737",
"A  c #936331",
"S  c #976C37",
"D  c #9E733C",
"F  c #A3652E",
"G  c #A26C34",
"H  c #AB6B32",
"J  c #B06F34",
"K  c #AB7535",
"L  c #AD753B",
"P  c #AE793C",
"I  c #A67538",
"U  c #B57A3C",
"Y  c #B87A37",
"T  c #9D1F51",
"R  c #852544",
"E  c #AD3540",
"W  c #835C40",
"Q  c #B7464B",
"!  c #946A53",
"~  c #A47843",
"^  c #B57F41",
"/  c #907C7A",
"(  c #AF7E6E",
")  c #CF4D43",
"_  c #D35A60",
"`  c #D47576",
"'  c #B6811E",
"]  c #CC9817",
"[  c #CF9E2B",
"{  c #D69A26",
"}  c #D8AB37",
"|  c #E7BB25",
" . c #F3CB2C",
".. c #AC8248",
"X. c #BE8E4C",
"o. c #BA8645",
"O. c #B68154",
"+. c #958B7E",
"@. c #9B9579",
"#. c #B7866A",
"$. c #B68D71",
"%. c #CC954D",
"&. c #C6876F",
"*. c #E7A86F",
"=. c #EECF66",
"-. c #FFE166",
";. c #263792",
":. c #0D3AAC",
">. c #283EA5",
",. c #223EB1",
"<. c #0044B2",
"1. c #2D44AD",
"2. c #4F5B9D",
"3. c #4B5387",
"4. c #7E6581",
"5. c #5F7DA5",
"6. c #7C64B9",
"7. c #0031D1",
"8. c #0052D6",
"9. c #0048CF",
"0. c #2F50C8",
"q. c #3452C8",
"w. c #214FD2",
"e. c #325FDA",
"r. c #2D4DCB",
"t. c #296EEF",
"y. c #3771F1",
"u. c #5D6DC0",
"i. c #4363D0",
"p. c #426FED",
"a. c #487BF2",
"s. c #457EEC",
"d. c #9A0082",
"f. c #863A89",
"g. c #807F80",
"h. c #8275A4",
"j. c #9578A8",
"k. c #7E8AB1",
"l. c #6D82D8",
"z. c #6586E8",
"x. c #868688",
"c. c #938E86",
"v. c #928E89",
"b. c #9C8789",
"n. c #949089",
"m. c #989389",
"M. c #8D8C93",
"N. c #8F9093",
"B. c #949496",
"V. c #9A9B9D",
"C. c #959699",
"Z. c #B19F8C",
"A. c #B09492",
"S. c #BDB09E",
"D. c #BEA888",
"F. c #9C9DA0",
"G. c #9987B7",
"H. c #AD9EA2",
"J. c #A5A4A3",
"K. c #ABACAC",
"L. c #B7ACA4",
"P. c #ACAEB4",
"I. c #AFB1B5",
"U. c #ADB8B7",
"Y. c #B3B3B5",
"T. c #BBBBBC",
"R. c #BBB8B6",
"E. c #B8B1AB",
"W. c #C99F81",
"Q. c #C98A93",
"!. c #E98E90",
"~. c #CAB49C",
"^. c #CEB29A",
"/. c #EEBF97",
"(. c #CEAEAC",
"). c #C1BCB7",
"_. c #EFB4B6",
"`. c #FFF391",
"'. c #C4C3BD",
"]. c #E3C7A6",
"[. c #FEF3AC",
"{. c #BBBDC0",
"}. c #C4C4C5",
"|. c #C6C7CB",
" X c #C6C8CB",
".X c #C8C9CE",
"XX c #DEDEDE",
"oX c #D5D5D7",
"OX c #CACDD1",
"+X c #D9DBE0",
"@X c #F0ECED",
"#X c #F8F9F9",
"$X c #E2E3E3",
/* pixels */
"                                        [ | -.[.`.                              ",
"                                      ' { ] } =.-. .                            ",
"                                        ' K l j z                               ",
"                                          c.J.K.                                ",
"                                          v.}.OX                                ",
"                                          c.T.|.                                ",
"                                          n.T. X                                ",
"                                          n.}.|.                                ",
"                                          n.{.|.                                ",
"                                          v.T.T.                                ",
"                                          c.R.P.. $ O w N.x.9                   ",
"                                          c.R.I.. w {.{.+X{.U.4.. @ O @ #       ",
"                                          n.Y.Y.. I.I.V.F.C.C.F.o . o O @ #     ",
"                                          n.Y.Y.. 0 B.V.w N.x.9 . o X           ",
"                                          n.Y.I.@ . 9 x.x.N.                    ",
"                                          n.T.Y..                               ",
"                  d !._._.                n.T..X                                ",
"              p f f _ Q.Q.E r &           m.}..X                                ",
"          A.r t s ! +.H.^.~.(.$.          B.Y. X                                ",
"Y.oX#X#X$X@XA.+ 3 /.J.k.~.W.].].D.    / M.g.M.oXXX                              ",
"J.K.R.|.XX#X#X(.a &.#.$.! = W ( R t r q e x.J.I.                                ",
"        V.v.b.Q d g ) ` Q.j.G.$.#.6.6.    @.'. X                                ",
"                y u u i p h T k.U.s.y.z.e.u.l.z.a.                              ",
"                      = 7 T f.9.7.0.q.r.0.w.8.8.p.p.t.h.%.*.                    ",
"                            <.1.1.1.:.:.>.;.3.2.,.q.i.g.H (                     ",
"                                      8 4 0 K.P.5 6                             ",
"                                      Z > w Y.Y.B ~                             ",
"                                          c.Y.).! 2                             ",
"                                          n.{.|.                                ",
"                                          c.)..X                                ",
"                                          m.).|.                                ",
"                                          c.).}.                                ",
"                                          c.R.}.                                ",
"                                      %.  +.E.).Y K                             ",
"                        G %.~ B ^ J H Y Y $.J.E.k b M M o.o.~ o.X.              ",
"                        n K N Z B B M A I ..Z.~.K ..o.P ^ P %.~ M               ",
"                        m A c < * ; 1 : ; m K L I ~ G V G F P X.H               ",
"                          n x < : 2 Z , < < : - 2 S 2 < c c n C                 ",
"                          c N m n : , * * 2 > > - , x ~ I F U P                 ",
"                            b < < , 2 > , 2 n b S D V L K L o.                  "
};
