/* XPM */
static char *e_61703694875[] = {
/* columns rows colors chars-per-pixel */
"40 40 194 2 ",
"   c None",
".  c #010000",
"X  c #0B0B0B",
"o  c #171718",
"O  c #260000",
"+  c #2A2B2C",
"@  c #252527",
"#  c #313132",
"$  c #7D0000",
"%  c #653400",
"&  c #673D1B",
"*  c #7A2324",
"=  c #5A4207",
"-  c #6C411D",
";  c #74451E",
":  c #76441B",
">  c #6C4622",
",  c #724620",
"<  c #7B4C22",
"1  c #744C24",
"2  c #785329",
"3  c #76523F",
"4  c #001B6A",
"5  c #2F387A",
"6  c #56344A",
"7  c #404242",
"8  c #58585D",
"9  c #6C4E41",
"0  c #5F6062",
"q  c #666769",
"w  c #767779",
"e  c #7D776F",
"r  c #840000",
"t  c #9B0000",
"y  c #90071C",
"u  c #A80000",
"i  c #BC0000",
"p  c #AF0110",
"a  c #953400",
"s  c #AD0026",
"d  c #BD0030",
"f  c #AF1D25",
"g  c #86243D",
"h  c #AA2828",
"j  c #D50000",
"k  c #D50015",
"l  c #E70000",
"z  c #CB302E",
"x  c #905200",
"c  c #9D6A06",
"v  c #A46C00",
"b  c #804D23",
"n  c #845326",
"m  c #835529",
"M  c #8B5528",
"N  c #85582B",
"B  c #8B5D2C",
"V  c #945C2C",
"C  c #975B29",
"Z  c #875C35",
"A  c #964637",
"S  c #9D632E",
"D  c #886535",
"F  c #936331",
"G  c #946839",
"H  c #9E733C",
"J  c #A3652E",
"K  c #A26C34",
"L  c #AB6B32",
"P  c #B06F34",
"I  c #AD753B",
"U  c #AE793C",
"Y  c #A87537",
"T  c #B57A3C",
"R  c #B87937",
"E  c #B03341",
"W  c #953377",
"Q  c #C32D5F",
"!  c #8B4A49",
"~  c #8C674F",
"^  c #A67742",
"/  c #B57F41",
"(  c #A46C55",
")  c #856F72",
"_  c #A17570",
"`  c #A26962",
"'  c #D05C4D",
"]  c #C56466",
"[  c #E26F74",
"{  c #B6811E",
"}  c #BC833D",
"|  c #CC9817",
" . c #CF9E2B",
".. c #D69A26",
"X. c #D8AB37",
"o. c #E7BB25",
"O. c #F3CB2C",
"+. c #AC8248",
"@. c #BE8E4C",
"#. c #BA8645",
"$. c #948A7E",
"%. c #9B947B",
"&. c #A6886B",
"*. c #B98573",
"=. c #BA896C",
"-. c #CD954E",
";. c #D29073",
":. c #EAAA70",
">. c #EECF66",
",. c #FFE166",
"<. c #001C83",
"1. c #00278A",
"2. c #23399C",
"3. c #1C3DB0",
"4. c #293FAA",
"5. c #3B478F",
"6. c #0043B0",
"7. c #0042A7",
"8. c #3D4DA0",
"9. c #2943B5",
"0. c #444694",
"q. c #6C6E80",
"w. c #6A75B8",
"e. c #004FCE",
"r. c #0050DA",
"t. c #1159DF",
"y. c #0045D6",
"u. c #3856CE",
"i. c #3357D3",
"p. c #2352D6",
"a. c #2D60DF",
"s. c #2C6FEE",
"d. c #3D73EE",
"f. c #4270ED",
"g. c #4679F2",
"h. c #921F94",
"j. c #817F81",
"k. c #866D90",
"l. c #8858A5",
"z. c #8B77A2",
"x. c #7F8183",
"c. c #708EB4",
"v. c #7E8ED3",
"b. c #4681EE",
"n. c #7790E5",
"m. c #87868A",
"M. c #928D86",
"N. c #938F88",
"B. c #959189",
"V. c #999286",
"C. c #908E90",
"Z. c #8F9193",
"A. c #9B9A9B",
"S. c #939597",
"D. c #AA918F",
"F. c #B39B8B",
"G. c #B0A697",
"H. c #968DA9",
"J. c #A4A3A4",
"K. c #A8A7AA",
"L. c #B5ACA4",
"P. c #BBB3A8",
"I. c #ABACB2",
"U. c #AEB0B3",
"Y. c #AFB1B9",
"T. c #B2B3B5",
"R. c #BBBBBB",
"E. c #BEB9B5",
"W. c #CF949D",
"Q. c #E68A8C",
"!. c #D6AF90",
"~. c #CAAD92",
"^. c #E9BC94",
"/. c #D89EA3",
"(. c #C8BDB3",
"). c #C3AAA7",
"_. c #EEB0B4",
"`. c #BAC0AB",
"'. c #FFF391",
"]. c #C5C4BB",
"[. c #EDCEB1",
"{. c #ECD3AD",
"}. c #FEF3AC",
"|. c #C2C3C4",
" X c #C4C6CA",
".X c #C6C9CD",
"XX c #C9CACC",
"oX c #C9CBC5",
"OX c #CFD1D5",
"+X c #D7D7D8",
"@X c #DFDFE1",
"#X c #E4E1E1",
"$X c #FAFAFA",
"%X c gray94",
/* pixels */
"                                         .O.>.}.'.                              ",
"                                      { ..| X.>.,.O.                            ",
"                                        { Y c x v                               ",
"                                          V.J.I.                                ",
"                                          N.|..X                                ",
"                                          B.R..X                                ",
"                                          N.R. X                                ",
"                                          M.R.U.. o . 7 8                       ",
"                                          M.R.T.. 0 S.T.OXU.Z.q . +             ",
"                                          N.T.I.. J. XU. XI.K.S.. . X @ @ + #   ",
"                                          N.T.T.. Z.A.m.0 x.m.w . . X o         ",
"                                          N.R.I.. . w J.Z.A.q .                 ",
"                                          M.T.U.. # .                           ",
"                                          B.R.|.                                ",
"                                          B.R..X                                ",
"                                          B.R..X                                ",
"                                          B.R..X                                ",
"                                          B.R..X                                ",
"                  j Q._.                  B.R..X                                ",
"              p k l [ /./.E r $           B.|..X                                ",
"            r f h A ` D.~.~.D.(           A.R..X                                ",
"T.oX%X$X#X#X_ O 9 ^.P.c.(.~.[.[.      ) Z.) Z.+X@X                              ",
"K.R.|.OX#X$X$X).a ;.=.&.~ % D ;.! t r ) q.m.A.Y.                                ",
"      A.J.A.J.] j z ' ;.W.z.H._ ` l.k.6   %.].oX                                ",
"                y u u i d Q h.S.`.b.d.g.a.w.v.n.g.                              ",
"                      * g s W e.y.i.i.i.i.p.r.t.g.f.s.z.-.:.                    ",
"                          6.6.9.9.9.3.3.4.2.5.8.9.u.d.k. .;.^                   ",
"                                    0.5 4 8 A.I.<.1.  %                         ",
"                                      D = e T.T.3 +.                            ",
"                                          M.T.R.G !                             ",
"                                          B.`. X                                ",
"                                          N.|. X                                ",
"                                          M.E.|.                                ",
"                                      -.  $.U.(.R Y                             ",
"                        K -.^ Z T P L R R &.L.P.x M V V -.T ^ #.@.              ",
"                        N I C D Z B F F Y +.G.~.L +.#.U +./ @.^ V               ",
"                        B F n ; & ; 1 ; ; B I U Y ^ S S K J U @.L               ",
"                          N b n ; 2 D ; ; < ; - 2 D m 1 m m m G                 ",
"                          M C B n : ; - & 2 > & > ; < ^ Y J T U                 ",
"                            B ; < 1 2 > > N N M H H S I Y I #.                  "
};
