/* XPM */
static char *e_71703694876[] = {
/* columns rows colors chars-per-pixel */
"40 40 188 2 ",
"   c None",
".  c black",
"X  c #0C0A0B",
"o  c #0F0F10",
"O  c #191A1A",
"+  c #2B0000",
"@  c #2A2B2C",
"#  c #212123",
"$  c #2F2F31",
"%  c #3B3B3C",
"&  c #790000",
"*  c #673D1B",
"=  c #62350E",
"-  c #762328",
";  c #5E4616",
":  c #6C411D",
">  c #74451D",
",  c #76441B",
"<  c #6C4622",
"1  c #724620",
"2  c #7B4C22",
"3  c #744C24",
"4  c #785329",
"5  c #7D573F",
"6  c #001770",
"7  c #373A72",
"8  c #7E2542",
"9  c #535357",
"0  c #4C4C4D",
"q  c #74544E",
"w  c #7A7979",
"e  c #6B6D7E",
"r  c #830000",
"t  c #9C0001",
"y  c #8D0D1B",
"u  c #A70000",
"i  c #B90000",
"p  c #B6041B",
"a  c #A80C1E",
"s  c #9B3200",
"d  c #A6113E",
"f  c #A52D2C",
"g  c #D60000",
"h  c #D80011",
"j  c #E40000",
"k  c #CC2829",
"l  c #945D00",
"z  c #8C4600",
"x  c #9D6A06",
"c  c #A16B00",
"v  c #804D23",
"b  c #845326",
"n  c #835529",
"m  c #8B5528",
"M  c #85582B",
"N  c #8B5D2C",
"B  c #945C2C",
"V  c #975B29",
"C  c #865B34",
"Z  c #9D632E",
"A  c #8A6536",
"S  c #936331",
"D  c #94693B",
"F  c #9E733C",
"G  c #A3652E",
"H  c #A26C34",
"J  c #AB6B32",
"K  c #B06F34",
"L  c #AD753B",
"P  c #AE793C",
"I  c #A87537",
"U  c #B57B3C",
"Y  c #B87A36",
"T  c #873B46",
"R  c #AD3340",
"E  c #8E377F",
"W  c #C5204F",
"Q  c #975441",
"!  c #BF575A",
"~  c #876B51",
"^  c #A57843",
"/  c #B57F41",
"(  c #A56F42",
")  c #8F7874",
"_  c #A97766",
"`  c #CE5448",
"'  c #D97273",
"]  c #B6811E",
"[  c #CC9817",
"{  c #CF9E2B",
"}  c #D69A26",
"|  c #D8AB37",
" . c #E7BB25",
".. c #F3CB2C",
"X. c #AC8248",
"o. c #BE8E4C",
"O. c #BA8645",
"+. c #9B957B",
"@. c #A98669",
"#. c #B88A6A",
"$. c #B88372",
"%. c #AA857F",
"&. c #CB9351",
"*. c #C88E73",
"=. c #E8A970",
"-. c #EECF66",
";. c #FFE166",
":. c #002584",
">. c #243898",
",. c #163CAE",
"<. c #293EA7",
"1. c #0043B0",
"2. c #0044AB",
"3. c #3044AD",
"4. c #2642B5",
"5. c #474B8C",
"6. c #46539E",
"7. c #7D7E81",
"8. c #6471BC",
"9. c #003CD3",
"0. c #004ACD",
"q. c #004ED8",
"w. c #0C56DB",
"e. c #3555CD",
"r. c #2850D2",
"t. c #3160DC",
"y. c #2A6FEF",
"u. c #3679F9",
"i. c #4167DB",
"p. c #406FEE",
"a. c #4270EE",
"s. c #487BF2",
"d. c #96008D",
"f. c #807F81",
"g. c #836D92",
"h. c #835EAF",
"j. c #8C77A4",
"k. c #6786AE",
"l. c #7688D5",
"z. c #4580EE",
"x. c #6E8AE5",
"c. c #848486",
"v. c #8B8A8A",
"b. c #928D86",
"n. c #928F89",
"m. c #95918A",
"M. c #999389",
"N. c #8C8B91",
"B. c #8F9093",
"V. c #949699",
"C. c #9B9C9D",
"Z. c #969496",
"A. c #B19F8D",
"S. c #A79697",
"D. c #BCA192",
"F. c #9591A9",
"G. c #A5A4A2",
"H. c #A8ABAF",
"J. c #B5ABA4",
"K. c #BDB2A1",
"L. c #ABADB1",
"P. c #AEB1B5",
"I. c #B2B3B5",
"U. c #BCBBBC",
"Y. c #B7B9B5",
"T. c #D59799",
"R. c #C1889C",
"E. c #E78C8E",
"W. c #CFB08F",
"Q. c #CAAD94",
"!. c #EBBE96",
"~. c #C7B6B0",
"^. c #F0B3B5",
"/. c #FFF391",
"(. c #C5C3BC",
"). c #E8CCAA",
"_. c #FEF3AC",
"`. c #BCBEC1",
"'. c #C5C7CA",
"]. c #C6C9CC",
"[. c #CBCCCC",
"{. c #C3C2C3",
"}. c #D7D9DC",
"|. c #DEDEE0",
" X c #DFE1E1",
".X c #E6E3E4",
"XX c #F9FAFA",
"oX c #F1F1F2",
/* pixels */
"                                        {  .;._./.                              ",
"                                      ] } [ | -.;...                            ",
"                                        ] I x l c                               ",
"                                          M.G.H.                                ",
"                                          n.U.`.                                ",
"                                          b.U.L.. % $ w V.c.0                   ",
"                                          b.U.P.. 7.`.`.|.U.I.7.. # O # @ $     ",
"                                          b.U.L.. L.L.V.V.V.V.C.o . X O # @     ",
"                                          b.U.P.. 9 V.C.w m.c.% . o X           ",
"                                          b.Y.L.X . % 7.k.+.                    ",
"                                          n.U.I..                               ",
"                                          m.U.'.                                ",
"                                          m.U.'.                                ",
"                                          m.U.'.                                ",
"                                          m.U.'.                                ",
"                                          m.U.].                                ",
"                                          m.U.'.                                ",
"                                          m.`.].                                ",
"                                          m.`.].                                ",
"                                          m.`.].                                ",
"                  g E.^.^.                m.~.].                                ",
"              p h j ' T.T.f r &           Z.{.].                                ",
"            & a f Q _ S.W.Q.D.@.          Z.U.'.                                ",
"I.[.oXXX X.X%.+ q !.K.k.~.W.).).      ) N.f.v.}.|.                              ",
"G.Y.~.[. XXXXX~.s *.#.#.~ = D $.T t r q e v.C.P.                                ",
"      C.G.V.S.! g k ` ' R.j.C.*._ h.j.    +.(.[.                                ",
"                y t u i p W d.k.Y.z.u.z.t.8.l.x.s.                              ",
"                      - T d d.w.0.e.e.e.r.r.0.w.a.a.y.j.&.=.                    ",
"                          2.1.<.3.4.,.,.3.>.5.6.<.e.i.g.O.&.(                   ",
"                                    5.7 6 9 G.H.:.:.                            ",
"                                      ~ ; w I.Y.q (                             ",
"                                          b.I.~.Q C                             ",
"                                          Z.U.'.                                ",
"                                      &.  b.Y.(.Y I                             ",
"                        H &.^ C / K J Y Y @.J.J.z m B B O.O.^ O.&.              ",
"                        N I V A N N B S I X.A.~.K X.O.P / P &.^ N               ",
"                        N S b > * 1 3 1 > N L P I ^ H G H G U o.J               ",
"                          M v b > 4 A > 1 2 > , 4 D M 4 b b M A                 ",
"                          b V N b , 2 * * 4 < * : > 4 F I Z U P                 ",
"                            N > > 3 4 < 3 4 M m D F Z I I L O.                  "
};
