/* XPM */
static char *e_81703694876[] = {
/* columns rows colors chars-per-pixel */
"40 40 191 2 ",
"   c None",
".  c #000000",
"X  c #0B0B0B",
"o  c #00001B",
"O  c #131414",
"+  c #1D1D1E",
"@  c #282829",
"#  c #3F2D20",
"$  c #313132",
"%  c #620000",
"&  c #7C0000",
"*  c #720000",
"=  c #631C00",
"-  c #673D1B",
";  c #6C411D",
":  c #73441D",
">  c #79471F",
",  c #6C4622",
"<  c #6D432A",
"1  c #724620",
"2  c #754B24",
"3  c #7B4C22",
"4  c #7A4F2F",
"5  c #785329",
"6  c #715239",
"7  c #383D70",
"8  c #463052",
"9  c #59316D",
"0  c #5D5D5E",
"q  c #454546",
"w  c #6F5842",
"e  c #655F6F",
"r  c #686766",
"t  c #757678",
"y  c #776576",
"u  c #8E0000",
"i  c #920000",
"p  c #8D0D16",
"a  c #AF0000",
"s  c #AB000E",
"d  c #803C00",
"f  c #9F1D21",
"g  c #85343A",
"h  c #C40000",
"j  c #CA000C",
"k  c #DD0000",
"l  c #C61100",
"z  c #C81720",
"x  c #C3272C",
"c  c #984000",
"v  c #925C00",
"b  c #9B6903",
"n  c #804D23",
"m  c #845326",
"M  c #835529",
"N  c #85582B",
"B  c #8B5D2C",
"V  c #8A5628",
"C  c #945C2C",
"Z  c #975B29",
"A  c #885D31",
"S  c #925E3E",
"D  c #9D632E",
"F  c #8B6635",
"G  c #936331",
"H  c #976C37",
"J  c #9E723B",
"K  c #A3652E",
"L  c #A26C34",
"P  c #AB6B33",
"I  c #B06F34",
"U  c #AD7436",
"Y  c #AD763B",
"T  c #AE793C",
"R  c #A57538",
"E  c #B57A3C",
"W  c #BB7837",
"Q  c #82004E",
"!  c #951C48",
"~  c #AA0056",
"^  c #C41C44",
"/  c #824840",
"(  c #966947",
")  c #A27842",
"_  c #B57D45",
"`  c #826F66",
"'  c #9F7E75",
"]  c #89767F",
"[  c #A86E62",
"{  c #B17A6D",
"}  c #C15C4E",
"|  c #C9506C",
" . c #CC7A62",
".. c #B6811E",
"X. c #CC9817",
"o. c #CF9E2B",
"O. c #D69A26",
"+. c #D8AB37",
"@. c #E7BB25",
"#. c #F1CA2B",
"$. c #AA8046",
"%. c #BE8E4C",
"&. c #BA8645",
"*. c #AD8652",
"=. c #8A817A",
"-. c #AE8B6E",
";. c #D3974A",
":. c #C59F7B",
">. c #FDB87A",
",. c #FADB63",
"<. c #E6C36B",
"1. c #003299",
"2. c #0537A4",
"3. c #003CB5",
"4. c #003FBE",
"5. c #1A3DA5",
"6. c #273FA7",
"7. c #573687",
"8. c #2E45A6",
"9. c #2844B7",
"0. c #3C46B1",
"q. c #474789",
"w. c #7E7F84",
"e. c #0031C1",
"r. c #2F52C9",
"t. c #385DD8",
"y. c #2647C0",
"u. c #3D62DD",
"i. c #3568E6",
"p. c #2E6DF3",
"a. c #4770CD",
"s. c #416CE0",
"d. c #547CE3",
"f. c #4475F4",
"g. c #4273EB",
"h. c #857C81",
"j. c #AB629D",
"k. c #876FB5",
"l. c #6B88D3",
"z. c #5F81E0",
"x. c #868688",
"c. c #918D85",
"v. c #948F89",
"b. c #95918A",
"n. c #979184",
"m. c #898993",
"M. c #8F9093",
"N. c #9A9B9D",
"B. c #949698",
"V. c #A79284",
"C. c #B59687",
"Z. c #A29E99",
"A. c #A2A09D",
"S. c #B1A190",
"D. c #9E9EA1",
"F. c #8389A5",
"G. c #A2A2A3",
"H. c #A8A9AC",
"J. c #B4ADA0",
"K. c #ADAFB2",
"L. c #AEB0B3",
"P. c #B2B3B4",
"I. c #B4B6B8",
"U. c #BCBCBC",
"Y. c #BAB6B5",
"T. c #DA9D9E",
"R. c #EB8C8E",
"E. c #CAB19E",
"W. c #D2B090",
"Q. c #D1AF87",
"!. c #E5B38F",
"~. c #C2B7B5",
"^. c #E3ACB0",
"/. c #EAB1B4",
"(. c #FEF090",
"). c #E9D3B9",
"_. c #EDD2AD",
"`. c #FDF1AC",
"'. c #A8B0CB",
"]. c #BFC1C4",
"[. c #C3C3C6",
"{. c #C5C6CA",
"}. c #C7C9CC",
"|. c gray79",
" X c #D1D1D3",
".X c #D9DBDC",
"XX c #E7DFDC",
"oX c #E2E2E2",
"OX c #E4E7E8",
"+X c #FCFBFB",
"@X c #F5F5F5",
/* pixels */
"                                        o.@.,.`.(.                              ",
"                                      ..O.X.+.<.,.#.                            ",
"                                        ..R b v b                               ",
"                                          n.A.B.o o . q 0                       ",
"                                          c.U.I.. r B.I. XL.M.r . @             ",
"                                          c.U.L.. G.[.L.[.K.H.B.. . O + @ @ $   ",
"                                          c.U.K.. M.B.m.0 w.x.t . X X O         ",
"                                          c.U.K.. . t H.M.D.r .                 ",
"                                          c.U.K.. $ .                           ",
"                                          v.U.[.                                ",
"                                          b.U.}.                                ",
"                                          v.U.[.                                ",
"                                          b.U.{.                                ",
"                                          b.U.{.                                ",
"                                          b.U.{.                                ",
"                                          b.U.}.                                ",
"                                          b.~.}.                                ",
"                                          b.].{.                                ",
"                                          b.U.}.                                ",
"                                          b.U.}.                                ",
"                                          b.U.{.                                ",
"                                          b.U.{.                                ",
"                z k R./.^.|               c.U.}.                                ",
"            i x j a f [ { [ g &           Z.{.}.                                ",
"  |.@X+X.X~.& % / Q.S.'.)._.)._.        h.x.G. XoX                              ",
"K.oXoX@XoX+XXX=.< !.C.e y S -.W.-.  & h.m.=.M.[..X                              ",
"  G.A.G.[. XOXT.l }  .Q.C.y ' { Q ! c =   c.U.U.                                ",
"            & i s h j ^ | j.k.V.Q.d.z.d.  m.'.'.                                ",
"                    p i a h ~ a.l.i.i.p.t.t.u.i.f.g.                            ",
"                        9 7.0.e.4.9.0.9.9.9.3.3.r.i.p.k.;.>._                   ",
"                              8.8.8.2.2.1.7 w.F.1.8.q.6 5 4                     ",
"                                      w # r I.I.8                               ",
"                                        6 =.L.Y.H (                             ",
"                                          B.I.~.J B                             ",
"                        H ;.) A _ I P W W V.I.I.d N C G ;.E _ &.%.              ",
"                        V Y Z F B B G F R *.S.E.U ) &.E $.T %.( C               ",
"                        V G V 3 - : 2 : 1 V Y Y R ) H K L K T ;.P               ",
"                          N > 3 > 5 A > 3 2 : : 5 H M 2 M n N F                 ",
"                          V Z B m : > ; - 5 , - , 1 n ) R K E T                 ",
"                            N 3 2 2 5 , 1 5 N V H J D Y Y Y &.                  "
};
