/* XPM */
static char *e_full_open1704010521[] = {
/* columns rows colors chars-per-pixel */
"40 40 185 2 ",
"   c None",
".  c #010000",
"X  c #0C0700",
"o  c #0B0A03",
"O  c #00070D",
"+  c #040B06",
"@  c #100000",
"#  c #150C03",
"$  c #1A0F07",
"%  c #0C1513",
"&  c #1B1C18",
"*  c #131915",
"=  c #200A00",
"-  c #241E1A",
";  c #2E251E",
":  c #332119",
">  c #4D2005",
",  c #52250D",
"<  c #472619",
"1  c #4A2A1C",
"2  c #562712",
"3  c #572A16",
"4  c #552D1C",
"5  c #592E1C",
"6  c #57301F",
"7  c #5D311E",
"8  c #64321E",
"9  c #6E331D",
"0  c #72351E",
"q  c #5C3322",
"w  c #5F3827",
"e  c #513F37",
"r  c #633624",
"t  c #6D3622",
"y  c #633826",
"u  c #6D3926",
"i  c #643728",
"p  c #643A2A",
"a  c #6A3C2A",
"s  c #723720",
"d  c #743B25",
"f  c #7B3C24",
"g  c #733E29",
"h  c #7A3F28",
"j  c #514038",
"k  c #6F402D",
"l  c #74412E",
"z  c #7C412B",
"x  c #644032",
"c  c #6D4333",
"v  c #6D4738",
"b  c #744534",
"n  c #7B4631",
"m  c #7B4935",
"M  c #704738",
"N  c #744A3B",
"B  c #7C4C3B",
"V  c #6F4F44",
"C  c #794F40",
"Z  c #744F41",
"A  c #7E5344",
"S  c #785548",
"D  c #755144",
"F  c #833D23",
"G  c #8D3F22",
"H  c #833F28",
"J  c #854026",
"K  c #8D4227",
"L  c #82432B",
"P  c #8A442B",
"I  c #914325",
"U  c #93462A",
"Y  c #95492D",
"T  c #9A4A2D",
"R  c #984223",
"E  c #844631",
"W  c #884730",
"Q  c #844B35",
"!  c #8A4B34",
"~  c #844D3A",
"^  c #894E38",
"/  c #954E33",
"(  c #9C4E32",
")  c #87513D",
"_  c #8C523C",
"`  c #945036",
"'  c #9D5135",
"]  c #93523B",
"[  c #9A543B",
"{  c #9E593F",
"}  c #A14D2D",
"|  c #A25235",
" . c #AD5534",
".. c #A15539",
"X. c #AA5739",
"o. c #A5593E",
"O. c #AD5A3C",
"+. c #B25535",
"@. c #B35B3C",
"#. c #855443",
"$. c #8C5643",
"%. c #845748",
"&. c #825B4E",
"*. c #8D5B4A",
"=. c #935742",
"-. c #945945",
";. c #9C5A43",
":. c #925E4C",
">. c #9C5E4A",
",. c #875E51",
"<. c #8A5F52",
"1. c #A55C43",
"2. c #AD5E43",
"3. c #B35E41",
"4. c #96614E",
"5. c #9D614D",
"6. c #8B6355",
"7. c #86675D",
"8. c #876A5F",
"9. c #8E695C",
"0. c #946353",
"q. c #9B6452",
"w. c #9A6857",
"e. c #976758",
"r. c #95695C",
"t. c #9C6A5A",
"y. c #A76047",
"u. c #AF6044",
"i. c #A6624B",
"p. c #AB654D",
"a. c #B36245",
"s. c #B4654A",
"d. c #BA6748",
"f. c #B6694E",
"g. c #BC6B4E",
"h. c #B86346",
"j. c #A36651",
"k. c #A16856",
"l. c #AE6A52",
"z. c #A36C5B",
"x. c #AC6D59",
"c. c #B46B53",
"v. c #BB6D52",
"b. c #B36F58",
"n. c #A7715F",
"m. c #BB7056",
"M. c #B5725C",
"N. c #BA735C",
"B. c #9B6F61",
"V. c #9C7164",
"C. c #967A70",
"Z. c #A06F60",
"A. c #A37463",
"S. c #AD7563",
"D. c #AF7867",
"F. c #A77668",
"G. c #B67662",
"H. c #B57967",
"J. c #BC7964",
"K. c #B37C6C",
"L. c #BC7C69",
"P. c #C27054",
"I. c #C5765B",
"U. c #C17B66",
"Y. c #C17D68",
"T. c #BD816F",
"R. c #BB8473",
"E. c #BE8A7A",
"W. c #B48072",
"Q. c #C4806C",
"!. c #C38674",
"~. c #C38A79",
"^. c #C88E7D",
"/. c #C48876",
"(. c #CC907E",
"). c #B48D80",
"_. c #B59285",
"`. c #C18F80",
"'. c #C49384",
"]. c #CD9685",
"[. c #C5998A",
"{. c #CE9C8D",
"}. c #D09A89",
"|. c #D19F90",
" X c #D1A393",
/* pixels */
"7.y x q q q 5 2 3 , > 2 3 4 4 5 4 6 7 6 7 7 7 q 4 q 5 q q q q q q q q q 7 4 r m ",
"r 2     1 5.z.Z.k.Z.                                                        9 s ",
"a r     4 M.L./.~.~.K.S.j...[ ..' |                                         t L ",
"d d     1 L.~./.K.R.F.Z.t.>.[ X. .+.@.@.3.3.                                t z ",
"a t 6.k.B R.}.E.>.B.t.$.A H.x.-.-.[ ` / @.3.                                s H ",
"h 0 V./.*.R.{.'.k.[.].q.p !.L.e.t.k.~ B 3.3.                                d L ",
"u s 9.6.a '. XE.Z.[.}.z.v ~.R.r.z.N._ B 3.@.                                t L ",
"L W     4 ].{.E.A.[.}.z.v E.L.r.z.M.#.%.O.@.                                t P ",
"P P   ; p ^.].E.A.].}.k.M R.J.r.S.m.#.%. .+.                                d Y ",
"z z   O p !.^.R.Z._.].k.c T.G.e.x.s.! %. .+.                                h ( ",
"L z   o p U.!.R.Z.~.(.q.M J.N.q.j.a.! #. .+.                                J } ",
"W z   . r U.Q.L.z.R./.>.M G.M.w.j.3./ C +.+.                                P | ",
"W d   . q U.U.G.t.t.t.#.C G.c.0.4.>.B N  .+.                                P } ",
"L z   . q I.N.J.H.R.K.H.z.q.>.>.1.[ / [  .+.                                P } ",
"h L   . i P.m.M.H.H.D.n.x.5.>.{ ....| }  .+.                                K / ",
"L f   = i g.v.c.q.q.q._ B l.c.4.:.>.^ ~  .@.                                F / ",
"h f   . y g.g.l.e.M.I.{ v c.p.0.j.a.! C +.+.                                J / ",
"g d   . t g.g.s.w.N.I...M c.f.0.5.3.E B O.3.                                L ' ",
"h g   . y g.g.p.q.m.I.' M f.f.4.>.h.^ b V._.                                L ..",
"d d   . r d.h.y.q.f.P.[ c s.p.4.;.a.! b V._.                                K | ",
"h g   % 8 a.O.1.0.f.g.` c u.u.:.=.O.L a V.8.C.                              H ..",
"h f   & q h.h.1.4.g.P.` c s.u.:.=.a.W l 9.E.                                K | ",
"f d   - r f.f.i.4.f.v.W c f.f.*.-.1.b N O.g.                                H | ",
"f f   & r h.h.i.*.*.=.B N p.y.$.#.) m ~ O.f.                                F X.",
"H f   * 8 h.a.i.q.e.e.4.*.) ) _ ` / ` ' 1.v.                                F | ",
"f f   % r h.1.i.q.q.<.*.$.-.[ _ _ _ ~ ^ 1.v.                                F | ",
"H f   + 8 u.2.{ $.=.] z l y.y.#.>.p.~ l 3.f.                                F T ",
"F 9   o 7 o.o.] #.u.a.J a o...B ;.s.W a 2.c.                                F T ",
"f t   # 7 X.' ^ ) O.X.z i ..' b [ s.E a s.M.                                F T ",
"f s   X 5 T T P z | | s r | / b [ s.E c c.M.                                0 U ",
"0 s   X 3 I I F a T T 9 8 / / z [ f.W c m.M.                                s I ",
"s d   . 7 I G f i U T 0 q ' [ u 1.v.Q c N.b.                                s G ",
"0 t   . 4 I R J y Y | 9 q ;.;.l ;.c.m p m.x.                                s F ",
"s u j . 1 P U J y ` ' 8 q ;.-.l B ) x M p.i.                                f G ",
"d t e @ < L U l a z l p a _ _ Q ) _ *.-.1.y.                                s F ",
"d r   $ 4 P K z l l n Q m m m Q ^ _ _ ] ;.y.                                s f ",
"g i   # 5 P L z z n n n m n Q m m m m ) _ $.                                s F ",
"d i   . 5 J f g g a u a p p k                                               9 F ",
"h i   : 4 u u y                                                             9 P ",
"g i Z i q r q y w y w w y y p p p p i p p c N D S &.&.,.6.,.6.,.,.&.&.&.&.V 8 L "
};
