/* XPM */
static char *last_door_open1704011088[] = {
/* columns rows colors chars-per-pixel */
"40 40 179 2 ",
"   c None",
".  c #000100",
"X  c #0B0B04",
"o  c #000409",
"O  c #080F09",
"+  c #120500",
"@  c #130D07",
"#  c #1C0D02",
"$  c #110F09",
"%  c #1A1006",
"&  c #15110B",
"*  c #1D150E",
"=  c #011412",
"-  c #081715",
";  c #1A1C1A",
":  c #161A14",
">  c #251002",
",  c #2F170A",
"<  c #2F190C",
"1  c #201610",
"2  c #271911",
"3  c #1D2321",
"4  c #252521",
"5  c #2D2B27",
"6  c #332B25",
"7  c #462618",
"8  c #4B2919",
"9  c #46291D",
"0  c #542C1B",
"q  c #592D1A",
"w  c #5F321F",
"e  c #62311D",
"r  c #6F341E",
"t  c #71351D",
"y  c #5B3222",
"u  c #623524",
"i  c #653826",
"p  c #6B3926",
"a  c #633B2B",
"s  c #6A3D2B",
"d  c #733A23",
"f  c #7F3D25",
"g  c #703F2A",
"h  c #783E29",
"j  c #653F30",
"k  c #6C402E",
"l  c #74412D",
"z  c #7A432E",
"x  c #6D4334",
"c  c #6D4738",
"v  c #744533",
"b  c #7A4632",
"n  c #764837",
"m  c #7B4935",
"M  c #704738",
"N  c #764B3B",
"B  c #7C4C3B",
"V  c #794F40",
"C  c #7E5344",
"Z  c #823F26",
"A  c #8F3F20",
"S  c #844127",
"D  c #8B4226",
"F  c #83432B",
"G  c #8A452B",
"H  c #914325",
"J  c #984223",
"K  c #94472B",
"L  c #95482C",
"P  c #9B4A2C",
"I  c #834631",
"U  c #844B35",
"Y  c #8A4B34",
"T  c #844D3A",
"R  c #894E38",
"E  c #944E33",
"W  c #9A4E33",
"Q  c #87513D",
"!  c #8C523D",
"~  c #945036",
"^  c #9C5135",
"/  c #93523B",
"(  c #9A553B",
")  c #A24D2D",
"_  c #A15235",
"`  c #AE5535",
"'  c #A2553A",
"]  c #AB5739",
"[  c #A5593E",
"{  c #AD5A3C",
"}  c #B35636",
"|  c #B65837",
" . c #B45A3B",
".. c #855443",
"X. c #8B5643",
"o. c #8F5947",
"O. c #845748",
"+. c #875848",
"@. c #8E5C4A",
"#. c #935742",
"$. c #935945",
"%. c #9C5A43",
"&. c #925E4C",
"*. c #9B5E4A",
"=. c #A45C43",
"-. c #AC5F43",
";. c #B45F42",
":. c #96614E",
">. c #9D614D",
",. c #876B5F",
"<. c #8A6356",
"1. c #946353",
"2. c #9B6452",
"3. c #9A6857",
"4. c #976758",
"5. c #95695C",
"6. c #9C6A5A",
"7. c #A76047",
"8. c #AF6044",
"9. c #A5624B",
"0. c #AB654D",
"q. c #AF684F",
"w. c #B46245",
"e. c #B86346",
"r. c #B4654B",
"t. c #B6694E",
"y. c #BC6B4D",
"u. c #BA6649",
"i. c #A26651",
"p. c #A16957",
"a. c #AD6A52",
"s. c #A46C5B",
"d. c #AC6D59",
"f. c #B46B53",
"g. c #BB6D52",
"h. c #B46F58",
"j. c #A4715F",
"k. c #AA715E",
"l. c #BC7056",
"z. c #B5715B",
"x. c #B9735C",
"c. c #9B6F60",
"v. c #8E7065",
"b. c #9C7264",
"n. c #A06F60",
"m. c #A47363",
"M. c #AD7563",
"N. c #AF7867",
"B. c #A87768",
"V. c #B57662",
"C. c #B57967",
"Z. c #BC7964",
"A. c #B37C6C",
"S. c #BC7C69",
"D. c #C27054",
"F. c #C5765B",
"G. c #C17B66",
"H. c #C17D68",
"J. c #BD816F",
"K. c #BB8473",
"L. c #BE8A7A",
"P. c #B58172",
"I. c #C4806C",
"U. c #C48573",
"Y. c #C58876",
"T. c #C38A79",
"R. c #C98E7C",
"E. c #CC907E",
"W. c #B48D80",
"Q. c #B79387",
"!. c #C18F80",
"~. c #C49384",
"^. c #CD9685",
"/. c #CC9887",
"(. c #C5998A",
"). c #CE9C8D",
"_. c #D09A89",
"`. c #D19F90",
"'. c #D1A393",
/* pixels */
"                                                                                ",
"        9 9.s.m.s.B.                                                            ",
"      = 0 z.S.Y.R.T.A.V.i.%.( ' _ ^ ]                                           ",
"      = 8 S.Y.T.A.A.B.n.s.%.( ] ` ]  . .;.;.                                    ",
"      3.N K.^.L.:.n.6.+.C C.d.&.$.( E W { ;.                                    ",
"    6.R.o.L._.Q.p.~.^.2.j U.S.1.6.p.T B ;.u.                                    ",
"      <.s ~.'.R.n.(._.p.c T.K.6.s.x.X.V ;.;.                                    ",
"      o 0 /.).L.B.(._.p.c L.S.5.s.z.....}  .                                    ",
"      6 u R./.L.m.(._.s.M K.S.5.M.l.T +.] |                                     ",
"      ; a U.R.K.b.!.^.p.x S.C.1.d.t.R +.] }                                     ",
"      1 a S.U.K.m.T.R.2.n C.x.4.i.w.Y ..} }                                     ",
"      + u G.I.Z.n.S.Y.*.n V.z.4.i.;.Y B } |                                     ",
"      . u Z.H.V.6.6.s...V V.f.1.*.*.B N } }                                     ",
"      . u F.x.Z.C.K.A.M.s.2.*.=.%.%.E ( ` }                                     ",
"      + u D.l.z.C.C.N.M.d.>.%.%.' ' _ ) ` }                                     ",
"      > u g.g.f.2.2.2.R V f.a.:.&.*.R T }  .                                    ",
"      * u y.y.q.3.x.F.^ x a.f.1.i.r.U V } |                                     ",
"      - u y.y.q.3.x.G.( M t.t.&.=.;.I N ] w.                                    ",
"      3 u y.g.r.2.l.F.^ M f.t.1.*.e.Y b b.Q.                                    ",
"      4 e u.w.-.2.t.D.( x r.q.:.%.;.U n b.Q.                                    ",
"      5 w ;. .=.:.y.y.~ x 8.8.:.$.{ F s c.,.v.                                  ",
"      5 e w.r.=.:.t.D.~ x 8.8.@.$.;.U l 5.W.                                    ",
"      6 e y.r.9.:.t.h.Y x t.w.&.$.=.v n ] g.                                    ",
"      4 u r.r.9.@.$.$.m N q.7.X...X.b T { u.                                    ",
"      ; e w.r.0.2.1.1.1.@...! ! ~ E ~ ^ =.D.                                    ",
"      : u w.=.7.i.3.&.@.X.$.#.! ! / T T =.h.                                    ",
"      O e w.w.( X.#.! z l =.=...*.a.U s w.t.                                    ",
"      X y [ [ ! ..-.w.S p =.[ B %.r.Y g -.f.                                    ",
"      @ w ' ' Y R { { f i ' ^ v ( r.I s r.l.                                    ",
"      X q P P G b _ _ d u ^ W v ( r.F v h.x.                                    ",
"      @ q H H f s P P t q ^ W h ( t.I x h.x.                                    ",
"      & q D A f i L P t q ( ( g =.g.I x x.z.                                    ",
"      & 0 H J Z u E ^ t y %.%.l %.f.b j d.h.                                    ",
"    , # 8 G L S u ~ ^ e y %.$.l B Q k M 0.q.                                    ",
"    < # 7 S K h s z l i k ! ! T Q ! o.$.%.7.                                    ",
"      * 0 G G h l z b U m b b T ! ! ! / %.7.                                    ",
"      & q G S z z z z z z b m m m m B T ! $.                                    ",
"      % q G Z z l k s k k a k                                                   ",
"      2 8 d p i                                                                 ",
"                                                                                "
};
