/* XPM */
static char *last_door_closed1704010957[] = {
/* columns rows colors chars-per-pixel */
"40 40 124 2 ",
"   c None",
".  c black",
"X  c #170000",
"o  c #240000",
"O  c #2A0000",
"+  c #31130F",
"@  c #361A17",
"#  c #3A1B17",
"$  c #371C1A",
"%  c #3C1E19",
"&  c #3D221C",
"*  c #440000",
"=  c #490000",
"-  c #5C0000",
";  c #471000",
":  c #4D1602",
">  c #4E1803",
",  c #44170B",
"<  c #48150B",
"1  c #4D1B0C",
"2  c #521000",
"3  c #521B07",
"4  c #5D1C00",
"5  c #541E0B",
"6  c #461D13",
"7  c #4E1B11",
"8  c #421F19",
"9  c #54200E",
"0  c #5F2109",
"q  c #44231B",
"w  c #4B251D",
"e  c #4D281F",
"r  c #5E2616",
"t  c #51261C",
"y  c #5B2719",
"u  c #52291F",
"i  c #5D2A1C",
"p  c #65250D",
"a  c #642612",
"s  c #642813",
"d  c #6A2B13",
"f  c #642C1C",
"g  c #6A2E1B",
"h  c #6C311E",
"j  c #70321E",
"k  c #422621",
"l  c #4A2721",
"z  c #442923",
"x  c #4C2A22",
"c  c #462D28",
"v  c #532C23",
"b  c #5C2E22",
"n  c #512F29",
"m  c #5D3125",
"M  c #53342C",
"N  c #5D3429",
"B  c #5D382F",
"V  c #612F21",
"C  c #643224",
"Z  c #6C3525",
"A  c #6F3827",
"S  c #64362A",
"D  c #6C3728",
"F  c #65392C",
"G  c #6D392A",
"H  c #703625",
"J  c #723927",
"K  c #703728",
"L  c #733B2A",
"P  c #793E2B",
"I  c #633D32",
"U  c #6D3E31",
"Y  c #703F32",
"T  c #77412F",
"R  c #79402E",
"E  c #6B4135",
"W  c #694439",
"Q  c #734132",
"!  c #794332",
"~  c #74463A",
"^  c #754A3E",
"/  c #7C4C3D",
"(  c #654A43",
")  c #6C4B42",
"_  c #764D41",
"`  c #794E42",
"'  c #755145",
"]  c #7A5144",
"[  c #74554B",
"{  c #7F564A",
"}  c #77584F",
"|  c #7D594E",
" . c #6E5650",
".. c #6F5852",
"X. c #795D55",
"o. c #7C615A",
"O. c #82564A",
"+. c #85594C",
"@. c #895D4F",
"#. c #835E53",
"$. c #895D50",
"%. c #846256",
"&. c #8D6456",
"*. c #84645B",
"=. c #8B655A",
"-. c #86695F",
";. c #8B6A5E",
":. c #926B5E",
">. c #876B61",
",. c #8D6D61",
"<. c #956E61",
"1. c #986F62",
"2. c #8F7066",
"3. c #947166",
"4. c #997164",
"5. c #9B786B",
"6. c #8F7872",
"7. c #957D74",
"8. c #997E75",
"9. c #A08379",
"0. c #A38C83",
"q. c #A49088",
"w. c #C8B6AF",
"e. c #CBBBB4",
/* pixels */
"8.;.#.P P P L L P L R R R L J P L J P Y P ! P L L L P ! T P P L L P P L F F L ! ",
"- - / F b b m m m m S m m m b m v m m m C m m v m v v m m m v v b v m m F F P L ",
"Q ! ` z w w l v t w q w q q w w w w w q q q q q v v u t t t v v u q % @ k F P ! ",
"G L ^ v C K D J L Z C Z A C Z J J J J V Z K L D J P L Z C L P P J b w % l F L P ",
"D J / v C L Z Z L L A A G Z A L J L G i f C f s j L J A G L L L A V w # x G L T ",
"G J ` v C L J J Z h Z Z Z Z C S Z D C m I E W I G Z Z C g Z P L A b w % x F L R ",
"G P ` x V A A Z ~ ] S F F C C D F J G C U ` +.| %.#.] ^ ` W C L J b w # z F P T ",
"D L ` v V A L p +.2.N G P Z G P J J D C C f J Z ! / / ! <.;.9 P L i w & x S L T ",
"D J ^ l C A P d O.<.v h P D D P P K Z V Z C K V H L J d 1.,.3 R L C w # x F J T ",
"D K / x b Z G a O.,.v f L Z D P L J A b C A K Z J P P g 1.;.3 R J V q % z F P ! ",
"L L ` v C D G p O.,.v f P G D G L L Z b C Z K Z J R P g :.;.3 L L C w # x S L R ",
"G P ] x V G L p +.<.v Z L D J J L L Z V Z Z K C A L P h 4.,.: R L i w 8 z F P R ",
"L L ` x V J L d +.,.v g D Z J J L L D C Z Z Z Z A P R h 4.2.: T L f w q x D P T ",
"D J _ v C Z L d +.,.x f J D J D P J D Z C A J Z A L P h 4.,.3 L J C u # z S L ! ",
"G J _ v C D L a +.,.w f L K J D J L D V C Z Z Z Z L A g 3.;.> T L C e @ k S P ! ",
"Y P / v V L L a +.;.w f P D J L A J K V C Z C V C J A h :.*.1 R L C w $ q S L Q ",
"D J ` v C K L a O.;.w f J A J J D D D V Z Z Z V Z K H g <.*.5 L K V x 8 z D L P ",
"D D ` v C K L d +.,.w f K A G J J J A V Z Z Z V Z Y Z g <.*.5 P D V t % k F L L ",
"D L ] v V D L a +.;.l f L D A D D J Z b V K Z V C L K C ,.*.< L Z V x @ k m D L ",
"G J ` v V J L a O.;.l V L J D J L J C V b Z Z b Z L J j <.*.; L Z V v # z m A G ",
"G J ^ x b K L a O.=.l f J J D D L J C b V D Z Z J D H Z <.o.* g Z 5 , @ z m K P ",
"D L ` x V J L a O.=.l V J C V f J Z V C C D Z Z Z A g Y 5.>.I %.>.0. .o c C K Y ",
"Z J ` x C L K p O.,.v V F F F I U C 9 5 r C Z S C K f _ 9.7.X.7.q.0.( O z m H L ",
"D J ` x V J K C ~ ` S L U E ^ { #.=.X.( I m i a a C Z a <.>.. 6.e.w...X c m Z Y ",
"D L _ l b K J D f r Z Z C Z Z K P ` +.X.#.X.} _ W W F C #.} 1 ~ >.X.n + z N Z P ",
"D J _ v V K A K D C b D S f 2 4 H g 0 f L U ~ _ ^ ^ ~ Y D i S g - * 6 % & b L P ",
"Z J ` x C L J g ` *.m U O.%.>.} U S y s a f r r V J Z D D C Z L Y S l @ & N J L ",
"D K ` x b J D p O.,.x g L Y { =.:.%.#.X.) U S C V V V i r i S J A b w @ k S L Y ",
"D K ` l V L J s { ,.x f J C a d H L ~ +.+.#.O.` _ ~ U F | [ w J J b w # k S L Y ",
"K L ` x V L L d O.<.x f L Z D K A Z a a a C Z G F P G g :.=.1 J K b q # z C A G ",
"D L ` x V L L d +.;.l f K D C Z K K S F D Z Z V V H Z f &.o.1 K J b q @ z S L L ",
"D L _ v Z P Y d +.,.w V K V C Z K H V C Z D D Z Z K Z s &.*.7 D J V w @ k S D G ",
"J P ` v C P L d &.3.q i Z C m Z A C V Z D Z Z Z Z Z Z a &.%.7 G J f q $ z B Z G ",
"P P ` m Z L L d @.;.w y G Z C Z A Z V Z D K H C Z D C f =.%.1 G J m w % z C A J ",
"J P ` v C L J p @.2.q y Z C f Z Z V V Z Z Z C V Z K C a &.%.< D L i q # z C Z U ",
"D P ` v C A G p @.3.M i F N m F B S C F S F S S S F F b ] [ t J G b t % z b V L ",
"G J ^ v C J J A Q ^ G G E G G E Y Q F G Y Y Q G U Y L F G G C A A i e & q b C G ",
"D A ^ m A R L J A r C C Z Z C Z A J Z C C Z J Z H H C C A J Z A Z b w % q m A Y ",
"G P / v F R R R J F Z D Z G J J J L Z A A K G A Z J G D D J G A Z m u % z m J L ",
"! D `                                                                   M B Z Q "
};
