/* XPM */
static char *_b40355e109f45d4c2daf7f8643853a6LzxD3dXx1ZjvZFt7[] = {
/* columns rows colors chars-per-pixel */
"40 40 157 2 ",
"   c None",
".  c black",
"X  c #151414",
"o  c #1F1F1F",
"O  c #21201F",
"+  c #2D211E",
"@  c #000124",
"#  c #000129",
"$  c #001124",
"%  c #001D21",
"&  c #012124",
"*  c #0B2325",
"=  c #152223",
"-  c #1C2324",
";  c #162729",
":  c #1E292A",
">  c #232323",
",  c #292724",
"<  c #2D2826",
"1  c #25292A",
"2  c #2B2929",
"3  c #342623",
"4  c #332E27",
"5  c #312D2A",
"6  c #373027",
"7  c #3C3424",
"8  c #343128",
"9  c #343231",
"0  c #483000",
"q  c #773312",
"w  c #7F3714",
"e  c #442820",
"r  c #624E1F",
"t  c #745C1E",
"y  c #7A6021",
"u  c #4C4B4B",
"i  c #595651",
"p  c #54555A",
"a  c #726C59",
"s  c #81350F",
"d  c #823712",
"f  c #863A13",
"g  c #8B3C14",
"h  c #8A3F1C",
"j  c #933E13",
"k  c #973A19",
"l  c #A13D1C",
"z  c #964116",
"x  c #9B4316",
"c  c #954118",
"v  c #9C4419",
"b  c #A64716",
"n  c #A44616",
"m  c #A24516",
"M  c #A84717",
"N  c #A84716",
"B  c #AA4917",
"V  c #AC4917",
"C  c #A94816",
"Z  c #A14619",
"A  c #A0461A",
"S  c #A1471A",
"D  c #A2471A",
"F  c #A3471A",
"G  c #A14518",
"H  c #A24619",
"J  c #A6491A",
"K  c #A6481A",
"L  c #A6491C",
"P  c #A5481A",
"I  c #AD4A18",
"U  c #AE4A18",
"Y  c #A84A1C",
"T  c #AB4C1D",
"R  c #AE4D1D",
"E  c #AD4B1A",
"W  c #B34D19",
"Q  c #B14C1A",
"!  c #B34D1A",
"~  c #B24D1A",
"^  c #B44D19",
"/  c #B54D1A",
"(  c #B44E1A",
")  c #B74F1A",
"_  c #B64E19",
"`  c #B14E1D",
"'  c #B14C1A",
"]  c #B84F1A",
"[  c #B94F1A",
"{  c #BA4F1A",
"}  c #B5501E",
"|  c #B6511F",
" . c #B7511F",
".. c #B7511E",
"X. c #B6511D",
"o. c #B7501D",
"O. c #BA501A",
"+. c #BB501B",
"@. c #B8501A",
"#. c #BC5019",
"$. c #BF521B",
"%. c #B8511F",
"&. c #B9521F",
"*. c #B8521E",
"=. c #BA521F",
"-. c #BD531F",
";. c #BD541F",
":. c #BE531E",
">. c #9D4325",
",. c #9E4925",
"<. c #AD4D20",
"1. c #B55120",
"2. c #B85220",
"3. c #BD5420",
"4. c #BE5420",
"5. c #BE5420",
"6. c #B0532A",
"7. c #C4541B",
"8. c #C3541C",
"9. c #C5551C",
"0. c #C4541C",
"q. c #C7561C",
"w. c #C1551F",
"e. c #C9561C",
"r. c #CB571D",
"t. c #C75720",
"y. c #C75820",
"u. c #C85820",
"i. c #AB8E20",
"p. c #C39501",
"a. c #CC9E12",
"s. c #D3A200",
"d. c #DBA800",
"f. c #DCAB0E",
"g. c #DBB408",
"h. c #D5A710",
"j. c #ECB703",
"k. c #F1BB04",
"l. c #E5B916",
"z. c #FDC401",
"x. c #FFCA00",
"c. c #FFCC0F",
"v. c #FFD100",
"b. c #EEC213",
"n. c #84807D",
"m. c #CCAF7B",
"M. c #8C8987",
"N. c #828488",
"B. c #9A9B9D",
"V. c #A39F9C",
"C. c #BDA784",
"Z. c #ADAAA8",
"A. c #B7B3B1",
"S. c #BCB9B5",
"D. c #B9B8BA",
"F. c #CFB892",
"G. c #C1BDB9",
/* pixels */
"                g v         v ....v         v 1.1.v         v g                 ",
"                z (         b r.r.I         I r.r.b         ( z                 ",
"                j I         M 8.7.B         B 0.0.M         I j                 ",
"                g m         x { { x         x { { x         m g                 ",
"                f R =.v c =...v x ..2.v v 2...x v ..=.c v ..R f                 ",
"                f ( #.m x #.+.x z +.#.x x #.+.z x +.#.x m #.( f                 ",
"                g v z ....v c ....v x ....x v ....c v ....z v g                 ",
"                j x j +.#.m x #.+.x x +.+.x x +.#.x m #.+.j x j                 ",
"                f ` ..Z + 3 3 O v ....v v ....v O 3 3 + Z ..` g                 ",
"                f W { m = 1 2 & x { { x x { { x & 2 1 = m +.W f                 ",
"                g v v J - 2 2 & Z Z x =.=.x Z Z & 2 2 - J v v g                 ",
"                g x x b = 2 2 & x m z { { z m x & 2 2 = b x x g                 ",
"                f ` =.Z - 2 2 & v =.=.v v =.=.v * 2 2 - Z =.` g                 ",
"                f W { m > 2 2 * x ( ( x x ( ( x = 2 2 > m +.W f                 ",
"                g v v J = 2 2 & Z Z x =.=.x Z Z & 2 2 = J v v g                 ",
"                g x x b = 1 < & x m x ( ( x m x & < 1 = b x x g                 ",
"g J         x =...Z J Z v L x 2.2.v T Z Z R v 2.2.x L v Z J Z =.=.x         J g ",
"j (         b r.7.V g z x m m 7.7.b x x x x b 7.7.m m x z g V 7.r.m         ( j ",
"j (         b 0.0.I w Y ..v b 0.0.B c ....c B 0.0.b v ..Y w I 0.0.b         ( j ",
"f J         z ( W v d z x g z W W x f x x f x W W z g x z d v W ( z         J f ",
"f ..-.J x -.-.Z x -.-.Z v ;.;.Z v 3.3.v v 3.3.v Z -.;.v Z ;.-.x Z -.;.x J -...f ",
"d I ( Z z ( W x z ( W x x W W x x W W x x W W x x W W x x W W z x W ( z Z ( I d ",
"g F z -.-.F x -.-.Z x ;.;.Z v ;.3.v v 3.3.Z v 3.3.v Z ;.;.x Z -.-.x F -.-.z F g ",
"f Z z W W m z W W x z W W x x W W m j I I j m W W x x W W z x W W z Z W W z m f ",
"f ..-.J x -.;.J x ;.;.Z v ;.;.Z v h % * * % h v Z ;.;.v Z ;.;.x J -.-.x J -...f ",
"d I W Z z W W x z W W x x W I Z q - 1 2 2 1 - q Z I W x x W W z x W W z Z W I d ",
"g J x -.-.J x ;.;.J v ;.;.Z v -.e ; 5 9 9 9 ; e -.v Z ;.;.v J ;.;.x J -.-.x J g ",
"f Z z W W Z z W W v x W W x v b > 2 X . . . 2 - b v v W W x v W W z Z W W z Z f ",
"f =.-.J x -.;.J x ;.;.J v ;.;.J : X u Z.A.M.. : J ;.;.v F ;.;.x J ;.;.x J -.=.f ",
"d I ' Z z W I Z x W I v x U U x 1 . S.V.i G.n.. ,.I U x v I W x Z I W z Z ' I d ",
"g J x -.;.J x ;.8.J v 8.8.Z F <.. p D.. . N.B.. 6.Z Z 8.8.v J 8.;.x J ;.;.x J g ",
"f Z z I I Z x I I v x I I v x L . a F.s.s.m.C.0 >.v v I I x v I I x Z I U z Z f ",
"g =.8.E x 8.8.J v 8.8.J v 8.8.T @ g.x.x.x.x.k.t l 8.8.v J 8.8.v J 8.8.x E 8.=.g ",
"d E I Z z I I Z x I I v x I I x @ l.c.p.j.x.k.r k U I x v I I x Z I I x Z I E d ",
"g E x 8.8.E v 8.8.J v t.8.F J ` @ b.v.d.z.x.j.7 R J F 8.8.v J 8.8.v E 8.8.x J g ",
"f Z x I I Z x I E v x I I v v Z @ i.h.f.f.a.y $ m v v I I x Z I I x Z I I x Z f ",
"f =.8.E x 8.8.J v 8.8.J v 8.8.E , # # # # # # , E 8.8.v J 8.8.v J 8.8.x E 8.=.g ",
"d E I Z x I E Z x I E v v E E x > 8 6 4 4 6 5 > x E E v v E I x v E I x Z I E d ",
"g U Z 0.0.U F t.y.U J u.y.I R ..> 2 2 2 2 2 2 > =.I I u.u.J U u.t.Z U 0.0.Z U g ",
"s z j B B x j B M z j M b j j x o > > > > > > o x j j b M j z M B j x B B j z d "
};
