/* XPM */
static char *f3dec9715d3f4680a6eaa209198bd333OPxS43oMSOASAT1s[] = {
/* columns rows colors chars-per-pixel */
"40 40 130 2 ",
"   c None",
".  c #773515",
"X  c #783417",
"o  c #7C3A1B",
"O  c #8B3D17",
"+  c #843C1B",
"@  c #8B3E1B",
"#  c #903F19",
"$  c #87401F",
"%  c #8C411D",
"&  c #954115",
"*  c #94431C",
"=  c #9B451C",
"-  c #9E481E",
";  c #A24517",
":  c #A2461A",
">  c #A3491D",
",  c #AC4C1C",
"<  c #B14C1A",
"1  c #B24D1A",
"2  c #B34D1A",
"3  c #B34D1B",
"4  c #B34D18",
"5  c #B54E18",
"6  c #B54D1A",
"7  c #B44E1A",
"8  c #B54E1A",
"9  c #B54E1B",
"0  c #B64F1A",
"q  c #B74E1B",
"w  c #B64F1B",
"e  c #B74F1B",
"r  c #B04F1F",
"t  c #B54F1C",
"y  c #B64F1C",
"u  c #B14D1B",
"i  c #B84F1A",
"p  c #B7501B",
"a  c #B7501C",
"s  c #B6511F",
"d  c #B8501B",
"f  c #B9501B",
"g  c #BA501B",
"h  c #BB511B",
"j  c #BF521A",
"k  c #BF521B",
"l  c #B8501C",
"z  c #BB501C",
"x  c #BD521C",
"c  c #BE521C",
"v  c #BF521C",
"b  c #BB521D",
"n  c #884020",
"m  c #894325",
"M  c #934422",
"N  c #974520",
"B  c #954620",
"V  c #944622",
"C  c #994620",
"Z  c #994720",
"A  c #9C4720",
"S  c #994820",
"D  c #9D4920",
"F  c #9D4921",
"G  c #9E4820",
"H  c #9F4820",
"J  c #9E4921",
"K  c #9F4921",
"L  c #9D4820",
"P  c #A04920",
"I  c #A14A20",
"U  c #A34A21",
"Y  c #A34B21",
"T  c #A44B20",
"R  c #A44B21",
"E  c #A74D21",
"W  c #A14920",
"Q  c #A84D22",
"!  c #AD4E20",
"~  c #AE4F20",
"^  c #AC4E21",
"/  c #B04F20",
"(  c #B15021",
")  c #B35021",
"_  c #B25221",
"`  c #B05122",
"'  c #B15122",
"]  c #B35022",
"[  c #B35122",
"{  c #B25223",
"}  c #B35223",
"|  c #B55120",
" . c #B55220",
".. c #B55221",
"X. c #B75220",
"o. c #B65221",
"O. c #B75221",
"+. c #B65321",
"@. c #B75321",
"#. c #B55322",
"$. c #B65222",
"%. c #B25124",
"&. c #B25224",
"*. c #B25324",
"=. c #B35225",
"-. c #B45224",
";. c #B55324",
":. c #B65324",
">. c #B75424",
",. c #B75425",
"<. c #B85222",
"1. c #B85322",
"2. c #B95422",
"3. c #BA5422",
"4. c #BD5522",
"5. c #C3541A",
"6. c #C55419",
"7. c #C4541A",
"8. c #C5541A",
"9. c #C6541A",
"0. c #C7551B",
"q. c #C1551F",
"w. c #C9551B",
"e. c #C9561A",
"r. c #C9561B",
"t. c #CB571B",
"y. c #CC571B",
"u. c #C15520",
"i. c #C15826",
"p. c #CA5A23",
/* pixels */
"                $ *         * { { C         S { { *         * n                 ",
"                * 1         : t.t.,         , t.y.:         1 *                 ",
"                * ,         : 5.7.,         , 7.5.:         , *                 ",
"                @ -         * l 8 =         = 8 a *         ; %                 ",
"                + ~ | = * | { * * { | = = | { * * { | * = | ~ +                 ",
"                + 8 x - * x f = * f x = = x f * = l x * - x 8 +                 ",
"                $ * * { &.* * { &.* * { &.* B { &.* * &.{ * * $                 ",
"                @ = * f j ; = j f * * f f * * f j = ; j f * = @                 ",
"                + ~ | -         * | | * * | | *         - | ~ +                 ",
"                + 1 f -         = f i * * i f =         - f 1 +                 ",
"                % = * U         H H * :.:.* H H         U * * $                 ",
"                @ * * :         - - * 8 t * - -         : * * @                 ",
"                + r | -         = <.<.* * <.<.=         - | / +                 ",
"                + 1 p -         * 8 8 * * 8 8 *         - 8 1 +                 ",
"                % = = R         - H * >.>.* H H         U = = %                 ",
"                % = = :         - - * 8 t * - -         : = = %                 ",
"m >         * | | - U - - > * 3.| = Q - - E C | 3.* > - - U = | | *         > $ ",
"M 8         ; t.7., O * - - ; 7.7.: = = = = : 7.7.; : - * O , 7.t.;         8 * ",
"* 1         ; 7.7., o > :.* ; 7.7.: $ &.:.$ : 7.7.; B :.R o , 7.7.;         8 * ",
"+ >         * r , = o * = + * , , * + = = + * , , * + = * o = , r *         > + ",
"+ a 4.> * c <.> * 3.4.- * 3.4.- = 4.4.= = 4.4.= - 4.3.* - 4.3.* - 3.4.* > 4.a + ",
"+ , r - * r 1 = * r 1 = * 1 1 = * 1 1 * * 1 1 * = 1 r * = 1 1 * = 1 r % - r , + ",
"@ > * <.3.> * 3.3.- * 3.3.- * 3.4.S - 4.4.H S 4.4.B H 3.3.* H 3.3.* > <.3.* > $ ",
"+ - * r , - * r , = * r , = * , 1 > * < < * > 1 , * = , 1 * = 1 r * - 1 1 * - + ",
"+ a 4.> * 4.4.> * 4.4.- = 4.4.- - M         B - - 4.4.= - 4.4.* > 4.4.* > 4.a + ",
"+ , , - * , , = * , , = * , , : X             . - , , * = , , * = , , * - r , + ",
"@ > * 4.4.> * 4.4.U * 4.4.- A i.                i.- H 4.4.= H 4.4.* > 4.4.* > % ",
"+ - * , , - * , , = * , , = = ;                 ; = = , , * = , , * - , , * - + ",
"+ l u.> * 4.4.> * 4.4.> = 4.4.>                 > 4.u.= > 4.4.* > 4.c * > c l + ",
"+ , , - * , , - * , , = * , , =                 = , , * = , , * = , , * - , , + ",
"% > * 4.4.> * 4.4.U = 4.4.- U Q                 Q U H 4.4.= > 4.4.* > 4.4.* > % ",
"+ - * , , - * , , = * , , = = -                 - = = , , * = , , * - , , * - + ",
"+ l q.: * 4.4.> = 4.u.> = u.4.>                 > 4.u.= > 4.4.= > 4.4.* > q.l + ",
"+ , , - * , , - * , , = * , , =                 = , , * = , , * = , , * - , , + ",
"% > * 4.4.> * 4.4.> = 4.u.- U ,                 , U > u.4.= > 4.4.* > 4.4.* > % ",
"+ - * , , - * , , = * , , = = -                 - = = , , * = , , * - , , * - + ",
"+ l u.> = u.u.> = u.u.> = u.u.,                 , u.u.- > u.u.= : q.q.= > u.l + ",
"o > , - * , , - * , , = * , , =                 = , , * C , , * = , , * - , > o ",
"% , > p.p.~ > p.p.~ R p.p.Q ~ <.                <.~ Q p.p.> ~ p.p.U ~ p.p.- , % ",
"o & = x l : - f f : - f f ; > ,                 , ; ; j l - : f f = : l j # & + "
};
