/* XPM */
static char *exit_befor1703695139[] = {
/* columns rows colors chars-per-pixel */
"40 40 216 2 ",
"   c None",
".  c black",
"X  c #070606",
"o  c #151410",
"O  c #131314",
"+  c #181818",
"@  c gray11",
"#  c #1D1D1C",
"$  c #1E1E1E",
"%  c #202020",
"&  c gray14",
"*  c gray15",
"=  c gray16",
"-  c #2A2A2A",
";  c gray19",
":  c #323232",
">  c #363737",
",  c gray22",
"<  c #3B3B3A",
"1  c #573215",
"2  c #643915",
"3  c #683A17",
"4  c #6C3D17",
"5  c #6C3D1B",
"6  c #70401B",
"7  c #74431A",
"8  c #70441F",
"9  c #76461D",
"0  c #7C4B1F",
"q  c #6A4322",
"w  c #694423",
"e  c #6B4622",
"r  c #6F4521",
"t  c #6E4724",
"y  c #6F4A24",
"u  c #754721",
"i  c #744722",
"p  c #774A21",
"a  c #764922",
"s  c #734824",
"d  c #794820",
"f  c #7A4B21",
"g  c #7B4B22",
"h  c #7B4D20",
"j  c #794C22",
"k  c #794C25",
"l  c #7F5027",
"z  c #78522B",
"x  c #7F532A",
"c  c #7F5429",
"v  c #7D5831",
"b  c #5F5F5F",
"n  c #636464",
"m  c #656565",
"M  c #676767",
"N  c #69696A",
"B  c #7A6C66",
"V  c #717071",
"C  c #7E7E7F",
"Z  c #814900",
"A  c #8F5600",
"S  c #834A1E",
"D  c #AA670F",
"F  c #AB6916",
"G  c #834E23",
"H  c #804E24",
"J  c #864F25",
"K  c #865123",
"L  c #835125",
"P  c #8A5227",
"I  c #83552A",
"U  c #875629",
"Y  c #88562B",
"T  c #845B2D",
"R  c #885E2D",
"E  c #915728",
"W  c #945C28",
"Q  c #955F2B",
"!  c #915E2E",
"~  c #895A32",
"^  c #8E5E36",
"/  c #91612E",
"(  c #95602D",
")  c #9F662A",
"_  c #99612D",
"`  c #9B632D",
"'  c #9D662C",
"]  c #8E6333",
"[  c #8E6338",
"{  c #926130",
"}  c #916230",
"|  c #916531",
" . c #9A6531",
".. c #9C6733",
"X. c #946834",
"o. c #9E6C32",
"O. c #926C3A",
"+. c #98703B",
"@. c #9C7238",
"#. c #9C723C",
"$. c #9F733E",
"%. c #A0672D",
"&. c #BE7E22",
"*. c #B87C28",
"=. c #B87D2E",
"-. c #A06D34",
";. c #A56E36",
":. c #A67133",
">. c #A67733",
",. c #A97236",
"<. c #A47138",
"1. c #A7733A",
"2. c #A0723C",
"3. c #A9763A",
"4. c #AC7638",
"5. c #A5783E",
"6. c #AF7C3B",
"7. c #AB793D",
"8. c #AC793D",
"9. c #AD7C3C",
"0. c #B67832",
"q. c #B27E3F",
"w. c #A47542",
"e. c #A2764C",
"r. c #B28037",
"t. c #BA8030",
"y. c #B78039",
"u. c #EDB31A",
"i. c #CA9524",
"p. c #DCAE2D",
"a. c #FFCF38",
"s. c #AF8040",
"d. c #A7824C",
"f. c #AB8348",
"g. c #B28140",
"h. c #B48442",
"j. c #B48346",
"k. c #B48247",
"l. c #B38646",
"z. c #B48744",
"x. c #BB8A43",
"c. c #BD8842",
"v. c #B5884A",
"b. c #B68B4B",
"n. c #B48A50",
"m. c #9D8674",
"M. c #C0914F",
"N. c #CE964C",
"B. c #C9994D",
"V. c #C29958",
"C. c #F8D45A",
"Z. c #EBCC62",
"A. c #F1D67B",
"S. c #818182",
"D. c #848383",
"F. c #949394",
"G. c #989899",
"H. c #9A9A9A",
"J. c #9E9C99",
"K. c #9B9C9E",
"L. c #AC9C84",
"P. c #A9A194",
"I. c #ABA19E",
"U. c #9E9EA0",
"Y. c #A2A3A5",
"T. c #A3A3A6",
"R. c #A2A4A7",
"E. c #A4A4A6",
"W. c #A4A5A7",
"Q. c #AAA7A3",
"!. c #A6A6A9",
"~. c #A8A9A9",
"^. c #A8A8AB",
"/. c #AFADAB",
"(. c #ABACAE",
"). c #AFAEAC",
"_. c #B7ABA5",
"`. c #B2AEAB",
"'. c #B0AEAC",
"]. c #B1AEAC",
"[. c #B2AFAD",
"{. c #B3AFAD",
"}. c #B3B0AE",
"|. c #B3B1AE",
" X c #B3B1AF",
".X c #B4B1AF",
"XX c #B4B2AF",
"oX c #AFAFB1",
"OX c #B3B2B0",
"+X c #B4B2B0",
"@X c #B4B3B0",
"#X c #B5B3B0",
"$X c #B6B3B1",
"%X c #B4B4B5",
"&X c #B6B6B9",
"*X c #BABABC",
"=X c #BABABD",
"-X c #BCBDBF",
";X c #C4AF95",
":X c #C2BCB6",
">X c #F5E19B",
",X c #FFFFB9",
"<X c #BFBFC1",
"1X c #BFBFC2",
"2X c #BEC0C2",
"3X c #C0C2C5",
"4X c #C3C5C7",
"5X c #C4C4C5",
"6X c #C6C6C9",
"7X c #C7C5CA",
"8X c #C5C7CA",
"9X c #C7C7CA",
"0X c #C7C7CB",
"qX c #C8C7CB",
"wX c #C8C8CB",
"eX c #CFD0D3",
/* pixels */
"                                    Z.>X                                        ",
"                                y.u.C.,XA.                                      ",
"                                =.&.i.p.a.                                      ",
"                                  *.F D t.                                      ",
"                                    m.B                                         ",
"                                    ~.R.. . > b                                 ",
"                                    {.E.o C =XeXH.m .                           ",
"                                    {.R.. <X2X<X%XS.. # # = :                   ",
"                                    OXH.V &X(.oXG.G.X . # * -                   ",
"                                    {.T.= K.N < D.N . + %                       ",
"                                    ).(.. n <X=XF.. *                           ",
"                                    ).T.. O # <                                 ",
"                                    {.!..                                       ",
"                                    +X8X                                        ",
"                                    +XwX                                        ",
"                                    @X7X                                        ",
"                                    +XwX                                        ",
"                                    +X7X                                        ",
"                                    +X9X                                        ",
"                                    +X9X                                        ",
"                                    XX9X                                        ",
"                                    XX9X                                        ",
"                                    +X7X                                        ",
"                                    XX7X                                        ",
"                                    XX4X                                        ",
"                                    XX7X                                        ",
"                                    XX4X                                        ",
"                                    XX4X                                        ",
"                                    {.4X                                        ",
"                                    `.3X                                        ",
"                                    Q.:X                                        ",
"                        d.+.s.q.7.  J._.A Y } v.e.B.                            ",
"                      c.l.v -.W %.b.P.I.Z O.+.x.V.M.f.                          ",
"                      ! W ] R | X.>.L.;Xr.b.r.q.h.w.J                           ",
"                      ../ j 5 i 6 g 9.l.#. .( %.4.N.,.                          ",
"                      ^ G 7 a T g g K S 2.1.` ' o.2.                            ",
"                        P L 9 I a i i r z y e t g [                             ",
"                        E U 9 4 2 w w 1 3 0 5.:.0.k.                            ",
"                        ~ x k x i U } ( 1.;.8.3.l.                              ",
"                                                                                "
};
