/* XPM */
static char *exit01703525252[] = {
/* columns rows colors chars-per-pixel */
"40 40 216 2 ",
"   c None",
".  c #910044",
"X  c #AA1A56",
"o  c #9F355B",
"O  c #C01C61",
"+  c #C4346B",
"@  c #CA386E",
"#  c #DB3173",
"$  c #9E4B5D",
"%  c #B07857",
"&  c #9A4F64",
"*  c #A84866",
"=  c #AA5C75",
"-  c #B05D79",
";  c #BA5E7D",
":  c #B25676",
">  c #AE4E6F",
",  c #856B7A",
"<  c #A37F60",
"1  c #AD687C",
"2  c #B3617D",
"3  c #BD7271",
"4  c #AE7571",
"5  c #D6447A",
"6  c #CD537E",
"7  c #988400",
"8  c #9C8C12",
"9  c #9B901E",
"0  c #A28B00",
"q  c #A38D0F",
"w  c #A69705",
"e  c #A68D1A",
"r  c #BBAB05",
"t  c #AFA01F",
"y  c #BFB114",
"u  c #B3A31C",
"i  c #A99A25",
"p  c #A58E32",
"a  c #AC8C2E",
"s  c #BAAC29",
"d  c #B9A93B",
"f  c #C4B600",
"g  c #C4B61A",
"h  c #C0AF2B",
"j  c #CABB2D",
"k  c #C7B336",
"l  c #DBC813",
"z  c #E3CF0B",
"x  c #D9C92A",
"c  c #DAC938",
"v  c #E9D437",
"b  c #E4D626",
"n  c #908056",
"m  c #9C9253",
"M  c #AD8150",
"N  c #B59B58",
"B  c #B28F4E",
"V  c #BDAE41",
"C  c #BBAF51",
"Z  c #BCB155",
"A  c #B18A6C",
"S  c #C4975B",
"D  c #C08552",
"F  c #C6B848",
"G  c #C4B14D",
"H  c #D39F7E",
"J  c #C68E66",
"K  c #C7BD6E",
"L  c #CABE69",
"P  c #C1A272",
"I  c #C2B471",
"U  c #DFCC4F",
"Y  c #D8CA5A",
"T  c #E5C442",
"R  c #FFFA43",
"E  c #FDFA4C",
"W  c #F5E856",
"Q  c #D0C676",
"!  c #D6C97F",
"~  c #D7CE69",
"^  c #FDF967",
"/  c #FEFD77",
"(  c #FBEB7D",
")  c #3C678A",
"_  c #FF3E80",
"`  c #E33A80",
"'  c #977C86",
"]  c #AF6C81",
"[  c #BE6282",
"{  c #BB6B85",
"}  c #B27486",
"|  c #DA5583",
" . c #E94E86",
".. c #F94A89",
"X. c #E4558A",
"o. c #FF4C92",
"O. c #FF4D98",
"+. c #FF539A",
"@. c #FD5C9C",
"#. c #F95793",
"$. c #C36485",
"%. c #C9698C",
"&. c #C66688",
"*. c #D4688F",
"=. c #D26E92",
"-. c #DB6791",
";. c #D67295",
":. c #DD749B",
">. c #D97397",
",. c #DA7E85",
"<. c #FC649B",
"1. c #F46C9B",
"2. c #F9699B",
"3. c #E0779C",
"4. c #E3799F",
"5. c #F27A9D",
"6. c #FF5DA9",
"7. c #FF59A3",
"8. c #DC78A0",
"9. c #FD6AAC",
"0. c #FD68A7",
"q. c #EB76A2",
"w. c #E57AA1",
"e. c #EA7EA5",
"r. c #EA7DAE",
"t. c #FB73AC",
"y. c #F675A7",
"u. c #FF64B1",
"i. c #FF6CB1",
"p. c #FD7CB6",
"a. c #2B81AB",
"s. c #7283A0",
"d. c #00CAFF",
"f. c #AB888D",
"g. c #B09291",
"h. c #BEB089",
"j. c #B2B996",
"k. c #B288A5",
"l. c #8FA6B9",
"z. c #B0ABAF",
"x. c #D39B8E",
"c. c #D68599",
"v. c #C7839C",
"b. c #EB809F",
"n. c #E4978F",
"m. c #C9B19F",
"M. c #D790AE",
"N. c #ED82AB",
"B. c #E583AB",
"V. c #F284AC",
"C. c #FA80AE",
"Z. c #EB89B4",
"A. c #F287B0",
"S. c #F58AB4",
"D. c #F98BB5",
"F. c #F48DBD",
"G. c #FA8DBA",
"H. c #FE87BB",
"J. c #E998B5",
"K. c #FC91BD",
"L. c #F793BB",
"P. c #C3A7B6",
"I. c #D9B2A4",
"U. c #E4ACA5",
"Y. c #D9CC8D",
"T. c #D9D38A",
"R. c #E1D990",
"E. c #F1E991",
"W. c #D7C1B8",
"Q. c #EBC4AE",
"!. c #B7B2CB",
"~. c #FC8CC1",
"^. c #FE84C0",
"/. c #FE95C3",
"(. c #FE99C7",
"). c #FE9CCB",
"_. c #FB94CA",
"`. c #FE9ED1",
"'. c #E29AC9",
"]. c #DCAFD2",
"[. c #DEB7D8",
"{. c #D2A2C5",
"}. c #FDA2CD",
"|. c #FCA4CA",
" X c #FFA3D3",
".X c #FFA7D9",
"XX c #FFABDC",
"oX c #F7AAD7",
"OX c #FEB5DA",
"+X c #EFBBC5",
"@X c #FEAEE1",
"#X c #FFADEC",
"$X c #FEB2E5",
"%X c #FEB6E9",
"&X c #FFBAEC",
"*X c #83D0DD",
"=X c #B6C7D6",
"-X c #B8CFE7",
";X c #C6CED0",
":X c #D1CED0",
">X c #FCDBC2",
",X c #FDC6DF",
"<X c #E5C6C0",
"1X c #FCE8CB",
"2X c #D6D6E0",
"3X c #D7DCE6",
"4X c #FFC5F2",
"5X c #FFC0F9",
"6X c #F5CFE4",
"7X c #DCE4E8",
"8X c #E6EAEF",
"9X c #E6E4E4",
"0X c #E9ECF2",
"qX c #EAF1F6",
"wX c #FDFDFE",
"eX c #F0E7ED",
/* pixels */
"                                                                                ",
"                                h.J % N N A l.                                  ",
"                              / ~ T v v l V j.=X                                ",
"                          ^ ^ / / E b j x c x Y T.K s L                         ",
"                        ^ E E E W c s 9 g x j y r s d U R.                      ",
"                      E.R z U z f w p % V f r s t t 0 F R.                      ",
"                        Y f g.m.P P A ' , < a q 8 9 Z G Y.                      ",
"                            Y.=XW.Q.<X=Xs.k.S w % Z C 0 Q                       ",
"                            E.1X1XQ.Q.>XU.H k < ' N q 7 G L I                   ",
"                              j.Q.n.x.I.x.A 8 ) ) m 0 p 7 Q                     ",
"                              {.  U.c.3 3 $ B N A a q q 7 C E.                  ",
"                        ,X4X4X$X%X<XJ.F.Z.B.oX$XoX_.c.M 0 w Y.                  ",
"                      oX5X&X&X&X-Xd.*X<X#X$X&X$XXX).H.; G K                     ",
"                      J.Z.Z.Z.(.P.l.I.}.~.B.F.B.:.N.*.{                         ",
"                        9X<Xg.v.V.4.r.N.>.: . 4 9X2Xf.                          ",
"                        wX0Xz.  G.).~.p.q.c.:XwXwX3X                            ",
"                        0XwX6X).p.OX,X6X8X0XqX3X!.f.                            ",
"                        L.wXwXqX2X0X;XP.M.:.| ` # O * 1                         ",
"                    5.O.D.8X7X3Xl.k.'./.t.+.o.o.+. .@ + >                       ",
"                    q.(.$X[.].[.{.oX&XOXXX XF.y.#.X. .+ X &                     ",
"                     X$X$X%X&X&X&X$XXXXXXX.X X X/.S.q.*.: =                     ",
"                  ).@XXX$X%X&X%X$X$XXXXXXX X X(./.K.D.V.:.$.}                   ",
"                |.XXXX$X$X%X&X%X$X$XXXXXXX.X}.)./.K.S.N.w.=.{                   ",
"                }..X$X@X%X%X%X%X$X$XXXXXXX.X X}.(.G.S.V.e.3.$.2                 ",
"              }.@X@X@X@X%X%X%X$X$XXXXXXXXXXX X).(.K.S.N.N.w.;.$.}               ",
"              }.@X@X@X@X%X%X%X%X$XXXXXXXXXXX X X/./.G.A.N.e.3.$.2               ",
"            }.$X@X@X@X$X%X%X%X%X$XXXXXXX@XXX X).(./.G.S.N.e.e.=.[ ]             ",
"            }.@X$X@X@X%X&X%X%X%X$XXX XXXXX.X X}.)./.K.S.N.w.V.:.&.2             ",
"            $XXX$X@X@X%X%X%X%X$XXX.X XXXXXXX.X X(./.K.G.V.w.V.w.=.2 ]           ",
"          }.@X$X@XXX$X%X%X%X$X$XXXXX XXXXXXX X}.)./.K.G.A.w.N.N.>.$.-           ",
"           X.X$X@XXX$X%X%X%X$X@XXX X}.XX@XXX X X)./.K.G.A.4.5.V.3.%.2 ]         ",
"        |.@X@X$XXXoX%X%X%X%X$X@XXX X X@X@XXX X}.).(.K.K.A.N.3.V.q.;.$.-         ",
"        }..X@X@XXX@X%X%X%X%X@X@XXX X}.@X@XXXXX}.).(./.G.S.V.3.V.N.3.&.2 1       ",
"        XX.X$X@X.X@X%X%X$X$X@X@X X X`.XXXXXX X X).(././.G.V.:.N.C.4.;.2 = }     ",
"      }.@XXX$X@XXX$X$X%X%X@X@X@XXX X}.XX$XXX X X`.(././.G.S.w.3.D.e.3.%.: =     ",
"    1.H..X$X$XXX@X$X%X$X$X@X@X.X X).).XXXXXX X X).(././.G.S.e.>.D.D.q.;.; o &   ",
"    9.7.i.p.t.~.@X&X&X&X%X$X#XXXXX}.).$X$XXXXX X X).(.(.K.K.V.=.-.2.X.6 @ + *   ",
"      t.9.i.@.+.i.^._.`..X`.`._.~.C.y.^.).`.`.`.).(./.H.C.1.| @ @  . .| 6 $.    ",
"              t.9.u.u.u.u.6.6.+.o.# ..u.u.6.0.7.7.+.+.+.o... .6                 ",
"                        t.t.t.2.2.        t.0.<.<.<.<.2.1.                      "
};
