/* XPM */
static char *exit11703525252[] = {
/* columns rows colors chars-per-pixel */
"40 40 210 2 ",
"   c None",
".  c #460A00",
"X  c #7F2E00",
"o  c #703418",
"O  c #683020",
"+  c #654C00",
"@  c #735A32",
"#  c #4C3F59",
"$  c #674E4A",
"%  c #A17500",
"&  c #BD711A",
"*  c #8F5828",
"=  c #9F722B",
"-  c #92753F",
";  c #A97235",
":  c #E27C3F",
">  c #903E48",
",  c #A93952",
"<  c #8C414F",
"1  c #8E5C51",
"2  c #A14B5F",
"3  c #B04E53",
"4  c #A67547",
"5  c #B97F52",
"6  c #AF4460",
"7  c #BA4C6A",
"8  c #B34469",
"9  c #B6556B",
"0  c #B15C76",
"q  c #9B6F6F",
"w  c #B97A62",
"e  c #B57171",
"r  c #C35D57",
"t  c #CD466B",
"y  c #C34465",
"u  c #D2446A",
"i  c #D0496D",
"p  c #DE4C75",
"a  c #C95A79",
"s  c #DC5176",
"d  c #E54F79",
"f  c #E94E78",
"g  c #E45179",
"h  c #EA537C",
"j  c #F1527D",
"k  c #CF7C7E",
"l  c #C87C6F",
"z  c #E3777A",
"x  c #AB8705",
"c  c #B79000",
"v  c #A9871A",
"b  c #B69519",
"n  c #BAA00F",
"m  c #AE8C25",
"M  c #B18E20",
"N  c #A98A32",
"B  c #A9833D",
"V  c #B6943C",
"C  c #B2962A",
"Z  c #BEA137",
"A  c #CBA605",
"S  c #D2B503",
"D  c #C3AA1C",
"F  c #CCB118",
"G  c #E0AD1B",
"H  c #CC9336",
"J  c #C1A422",
"K  c #D3AF33",
"L  c #E7CB05",
"P  c #E6CE0D",
"I  c #FFF51F",
"U  c #FCE700",
"Y  c #E5CC28",
"T  c #EBCC37",
"R  c #EED73A",
"E  c #F0DC35",
"W  c #FCE93B",
"Q  c #FAE42F",
"!  c #98874F",
"~  c #BD9745",
"^  c #A68B43",
"/  c #8C807D",
"(  c #978166",
")  c #BB926E",
"_  c #C89950",
"`  c #FA9D5D",
"'  c #C1A44A",
"]  c #D4AD52",
"[  c #E2B74D",
"{  c #D78E78",
"}  c #DB9F7E",
"|  c #CA906B",
" . c #D5AA72",
".. c #E5CB49",
"X. c #ECD241",
"o. c #E4C05E",
"O. c #FFEC41",
"+. c #FAE551",
"@. c #FFF656",
"#. c #FFF74A",
"$. c #F9D876",
"%. c #FFF661",
"&. c #FFFF63",
"*. c #EBE87A",
"=. c #677687",
"-. c #AA7B8E",
";. c #EC5780",
":. c #F55783",
">. c #FD5484",
",. c #F45A85",
"<. c #FC5986",
"1. c #F45F89",
"2. c #FE5C8B",
"3. c #FF5788",
"4. c #FF5E92",
"5. c #C86483",
"6. c #D66A89",
"7. c #DB7394",
"8. c #EC678D",
"9. c #FB628D",
"0. c #F5618A",
"q. c #FF6494",
"w. c #F36C94",
"e. c #FE6995",
"r. c #FF6A9B",
"t. c #E27494",
"y. c #E6799C",
"u. c #EB7C9D",
"i. c #E77599",
"p. c #FB749B",
"a. c #F5739B",
"s. c #ED6991",
"d. c #EE7EA0",
"f. c #FF75A2",
"g. c #F27FA2",
"h. c #FA7AA2",
"j. c #F67CA8",
"k. c #3EA0B7",
"l. c #5C98BD",
"z. c #6D8DA9",
"x. c #5FA2B6",
"c. c #9D8784",
"v. c #B99D98",
"b. c #9CA082",
"n. c #B491A3",
"m. c #B0A9B0",
"M. c #BAB4B9",
"N. c #A8AFB5",
"B. c #DD9381",
"V. c #E48F8E",
"C. c #DEA181",
"Z. c #D0A490",
"A. c #C9B09E",
"S. c #F2B69B",
"D. c #E9B097",
"F. c #DD8FB3",
"G. c #C29FB2",
"H. c #D596AF",
"J. c #EE82A8",
"K. c #F582A4",
"L. c #FC85AA",
"P. c #FF89AE",
"I. c #F783A8",
"U. c #FE8CB2",
"Y. c #FF8FBA",
"T. c #FA87B3",
"R. c #FF91B6",
"E. c #FF94BB",
"W. c #FF9ABD",
"Q. c #F18EB0",
"!. c #CEBAB9",
"~. c #D1A8B4",
"^. c #E3B7AE",
"/. c #BBC78B",
"(. c #A4C4A8",
"). c #FEC798",
"_. c #F3F28D",
"`. c #EECBB1",
"'. c #FFFFA5",
"]. c #FF95C0",
"[. c #FF9CC3",
"{. c #FF9ECA",
"}. c #F29BC5",
"|. c #C5BEC5",
" X c #FFA1C5",
".X c #FFA2CD",
"XX c #F3A1CE",
"oX c #FFA5D2",
"OX c #FFA8D6",
"+X c #FFACDA",
"@X c #FFB0DE",
"#X c #FFB3E3",
"$X c #FFBBEC",
"%X c #FFB7E8",
"&X c #FFBEF1",
"*X c #D1CACD",
"=X c #D5D2D5",
"-X c #C3CBD6",
";X c #FCC0DD",
":X c #F7DACD",
">X c #FFE5C9",
",X c #FFEFD2",
"<X c #FFC0E7",
"1X c #FFD6F1",
"2X c #E4E2E4",
"3X c #EAE3E5",
"4X c #ECE9EB",
"5X c #FFFCFC",
"6X c #FAF7F7",
"7X c #FFE8F8",
/* pixels */
"                          K &     H                                             ",
"                       .G ` : H [ o./.                                          ",
"                    '._.%.+.Q W W E R X...                                      ",
"                  @.@.#.#.W P P S D S Y R X.]                                   ",
"                @.U P L L S D b M = b n n J Z ' '                               ",
"              +.I Y b  ._ _ % ; 5 ) 4 & N C v N N                               ",
"              T T K x A.!.Z.D.} v.z.m.w M B B N                                 ",
"                  ~ A `.-XN.,X`.`.|.^.} F 4 N m                                 ",
"                    [ $.`.,X>XD.S.S.V._ ^ l.b.c                                 ",
"                    *.(.) S.S.w l B.{ * $ =.! x ~ ~                             ",
"                  ).).H.0 X r t.r 3 o . * ; ; v x V                             ",
"                <X1X7X:XH.G.G.V.y.7.7.F.}.{.W.Q.{ Z                             ",
"              ;X5X2X=XN.c.x.k.)  XE.E.+X.X[.E.L.j.{ n                           ",
"              3Xm.q , 8 2 e k K.T.t.6.T.L.K.i.6.5.w C                           ",
"              2Xn.q 1 5.E.E.Y.L.t.0 < > 9 9 9 e q - %                           ",
"              *X-.#     Y.{.T.i.a y > O o + @ / -X=XA.                          ",
"                    1.j 1.T.p.<.>.j h d i 6 1 ( !.*X4X3X                        ",
"                r.r.2.>.s.T.e.>.2.<.<.h g p u ,       |.=X4X5X6X4X4X            ",
"              q.q.,.u.}.+X+X.XL.0.j j h d g s s s           3X3X=X  !.M.        ",
"            :.r.J.XX@X#XOXOXOXOX[.I.8.s u u u t y y                             ",
"            Q.+X%X%X+X+XOXoXoX.XoX.X[.Q.i.6.a 7 2 7 9                           ",
"            %X%X#X+X+X+XoXoXoX.X.X[.W.W.R.T.L.u.t.6.7.                          ",
"          %X&X@X+X+XOXOXoX.X.X.X.X XW.E.U.P.P.L.K.u.u.7.                        ",
"          #X@X@X+X+XOXoXoX.X{.{. X[.[.E.R.U.P.I.g.u.y.K.y.                      ",
"          $X+X+X+XOXOXoX.X{.[.]. XW.W.W.R.R.P.L.I.u.u.t.u.                      ",
"        #X$X+X+X+XOXOX.X.X{.{.]. XW.W.W.R.R.R.P.L.K.u.u.u.u.                    ",
"        @X%X+X+X+XOXoX.X{.{.].].W. XW.W.W.R.R.P.L.I.u.u.u.K.J.                  ",
"        @X#XOX+X+XOXoX.X{.{.[.].E. XW.W.W.W.R.P.P.I.K.K.u.u.P.u.                ",
"        @X+X+X+X+XOXoX.X{.{.[.E.E.[.[.W.W.W.W.R.P.P.K.g.L.g.u.P.K.              ",
"        $X+X+X+XOXOXoX.X{.{.].E.R.[. X XW.W.W.R.R.P.L.K.K.L.K.L.U.K.            ",
"      #X$X+XOX+XOXOXoX{.{.[.].E.R.E.W. X XW.W.E.R.P.P.L.K.L.L.L.L.U.I.          ",
"      #X%X+X+X+X+XOXoX{.{.{.[.E.E.E. X XW.W.W.W.R.R.P.P.L.L.L.P.L.L.U.L.        ",
"      $X@X+X+X@XOXOXoX.X{.].].].E.Y.[. X X[.W.W.W.E.U.P.P.L.L.P.P.P.L.P.E.8.d   ",
"    %X$X+X+X+X+XOXOXOX{.{.{.[.].E.E.]..X X X XW.W.E.R.R.U.P.P.L.P.P.T.P.w.h 2.d ",
"    %X+X+XOX+X@X+XOXoX.X{.{.[.].E.Y.E.[. X X XW.W.W.W.R.U.U.P.P.P.K.w.h f :.h   ",
"  #X&X#X@X+X@X+XOXOX{.{.{.{.].].E.E.E.[. X X X XW.W.W.E.E.R.U.L.8.p h j h h     ",
"e.T.].[.{.oX+X@X+X+XoXoX{.{.{.].].].].]. X X X[.W.W.E.U.I.a.8.h j :.g           ",
"q.4.4.q.4.r.f.T.Y.].].E.].T.T.T.T.j.h.a.w.p.h.h.p.p.e.9.9.<.3.;.h h             ",
"          4.4.4.4.4.4.<.2.3.2.3.3.>.>.>.>.:.1.0.0.0.1.1.0.1.                    ",
"                4.4.2.2.2.3.3.3.<.<.:.                                          "
};
