/* XPM */
static char *exit21703525252[] = {
/* columns rows colors chars-per-pixel */
"40 40 215 2 ",
"   c None",
".  c #473D03",
"X  c #720038",
"o  c #354B25",
"O  c #4D4000",
"+  c #564B00",
"@  c #594D02",
"#  c #564805",
"$  c #5D5200",
"%  c #535F00",
"&  c #524F0E",
"*  c #615400",
"=  c #655800",
"-  c #6B5D01",
";  c #6A5D0C",
":  c #7B6C01",
">  c #736702",
",  c #7E7000",
"<  c #6D610F",
"1  c #5B4934",
"2  c #655029",
"3  c #563842",
"4  c #673C45",
"5  c #4C4846",
"6  c #6A4A4E",
"7  c #765B49",
"8  c #6F504F",
"9  c #45787C",
"0  c #656870",
"q  c #857400",
"w  c #8C7501",
"e  c #817528",
"r  c #9D2E59",
"t  c #A83D65",
"y  c #B43A67",
"u  c #B82964",
"i  c #CA3E72",
"p  c #CA356F",
"a  c #834B5E",
"s  c #8E5450",
"d  c #9C566F",
"f  c #8A5163",
"g  c #A85E77",
"h  c #BC4F77",
"j  c #957A6C",
"k  c #A9637D",
"l  c #B4637F",
"z  c #C84E7B",
"x  c #D44C7E",
"c  c #C15C7D",
"v  c #938301",
"b  c #9D8A00",
"n  c #978A12",
"m  c #AA9604",
"M  c #B49F00",
"N  c #B5990C",
"B  c #A79916",
"V  c #BFAA05",
"C  c #B6A406",
"Z  c #AFA01F",
"A  c #B4A417",
"S  c #BA9F20",
"D  c #B9A836",
"F  c #C7B302",
"G  c #CBB705",
"H  c #CAB30A",
"J  c #D8C401",
"K  c #D9CA13",
"L  c #E4CD02",
"P  c #E8CB01",
"I  c #E6D207",
"U  c #F2DC05",
"Y  c #EAD613",
"T  c #E9D51E",
"R  c #FEE805",
"E  c #F6E216",
"W  c #FFFF1D",
"Q  c #FEF408",
"!  c #D2C23F",
"~  c #E1CC23",
"^  c #F2D430",
"/  c #F4E121",
"(  c #FCF92A",
")  c #FFFE38",
"_  c #EDE42F",
"`  c #AB9949",
"'  c #BCAB43",
"]  c #958271",
"[  c #A08169",
"{  c #98A375",
"}  c #BFA365",
"|  c #B1A77B",
" . c #C9B452",
".. c #E0B64B",
"X. c #D4C446",
"o. c #F3C549",
"O. c #FFFF5A",
"+. c #F9F04A",
"@. c #DECF65",
"#. c #E9D062",
"$. c #F7E966",
"%. c #FFFE64",
"&. c #F9E572",
"*. c #4D7881",
"=. c #647D9A",
"-. c #8F7E86",
";. c #B96885",
":. c #BC7194",
">. c #D65785",
",. c #DF4780",
"<. c #E5548A",
"1. c #EB548C",
"2. c #E15588",
"3. c #E95B92",
"4. c #F45D96",
"5. c #FB5996",
"6. c #FB5E9A",
"7. c #EB4C87",
"8. c #C46C8C",
"9. c #CA6C8D",
"0. c #C5668A",
"q. c #C7708F",
"w. c #CD6E90",
"e. c #D76992",
"r. c #CB7392",
"t. c #C8799C",
"y. c #D07595",
"u. c #D6799A",
"i. c #DB7B9D",
"p. c #DA7498",
"a. c #D2668D",
"s. c #E76593",
"d. c #F46199",
"f. c #FC629D",
"g. c #F16D9D",
"h. c #E5779C",
"j. c #DE7EA1",
"k. c #FE64A3",
"l. c #FE6AA5",
"z. c #FF6CAC",
"x. c #F969A5",
"c. c #E379A2",
"v. c #FF71AD",
"b. c #F27DAC",
"n. c #FF6FB2",
"m. c #FF73B3",
"M. c #FF79B3",
"N. c #3094BB",
"B. c #3AB9E8",
"V. c #979696",
"C. c #938C91",
"Z. c #AB8D82",
"A. c #B19387",
"S. c #B88E9B",
"D. c #AE9188",
"F. c #AFA19E",
"G. c #91A5B8",
"H. c #B6B4B4",
"J. c #D89B9B",
"K. c #C2A18C",
"L. c #DC81A3",
"P. c #DD85AD",
"I. c #E582A5",
"U. c #EB85AA",
"Y. c #E884AB",
"T. c #F189AE",
"R. c #F284AE",
"E. c #E486B5",
"W. c #F58CB2",
"Q. c #FB8DB5",
"!. c #FE8EB9",
"~. c #FA83B5",
"^. c #FB90B7",
"/. c #FD93BC",
"(. c #FE98BF",
"). c #EF91BD",
"_. c #DAB3A9",
"`. c #D2B3AA",
"'. c #BAD2B1",
"]. c #FFFF87",
"[. c #F0EC9B",
"{. c #E5C3B6",
"}. c #E3C4AA",
"|. c #FFEDB2",
" X c #F3F7AF",
".X c #FD96C1",
"XX c #FE9BC4",
"oX c #FE9EC9",
"OX c #F49CCA",
"+X c #FEA2CD",
"@X c #FEA6D1",
"#X c #FEAAD5",
"$X c #FFACDA",
"%X c #FCB1DE",
"&X c #FEBCD2",
"*X c #FFACE2",
"=X c #FFB5E3",
"-X c #FFB9EB",
";X c #B2FFFF",
":X c #CCCBCB",
">X c #C5C8C3",
",X c #C2C9D8",
"<X c #D9D7D7",
"1X c #DBCACA",
"2X c #F4D4C6",
"3X c #F0DBD2",
"4X c #F9E6C7",
"5X c #FEE8D8",
"6X c #FFC8FF",
"7X c #DBE3E6",
"8X c #E6E6E6",
"9X c #EEF2F6",
"0X c #FEFEFE",
"qX c #F2F5F4",
"wX c #FFF0E4",
/* pixels */
"                                      D                                         ",
"                                    [.|.4X..[. X                                ",
"                      ( %.%.O.+.( / _ &.#.^ ..| G.                              ",
"                    ( ) W %.].].].%.O.O.Q Y L ` 9                               ",
"                  ~ E L N  ./ $.$.$.#.@.' ~ +. .M Z                             ",
"                    2 w A.{.} b v v q # m I ~ ! ' F V                           ",
"                       .,XG.2X`.| Z.Z.D.` G H F H Z N                           ",
"                      |.9X8XwX2X3X,X=.-.] e : : v n B H                         ",
"                    '.}.wX3X{.5XwX1XV.] S w 1 2 & @ .                           ",
"                        _.J._._.`.K.} ' { 0 7 < - - - -                         ",
"                          ] j j 6 % % 9 B.N.@ $ ; > : q q : b q                 ",
"                        b.P.L.t.:.:.q.k 0 o # # $ - q b m M M M F               ",
"                  ;X X&X6X-X*X*X-X*X@X!.p.s @ @ @ - : m G P U R R J G           ",
"                >X4X&X-X#X).~.XXoXoXXX.X~.;.1 + # @ * q M G I U Q E R G         ",
"                h.c.P.i.p.r.l h.~.Y.j.0.d 4 2 $ @ # # @ - w C ~ Y E T R J       ",
"                :.u.y.q.k a 4 3 3 6 6 8 7 2 * ; = * * @ $ - > A K U / Y V       ",
"                  Y.R.c.e.>.3.d.>.8 5 C.{.F.  + & + * * = - > q C L U Y n       ",
"                x.~.m.m.M.m.z.z.k.<.y f >XqXH.          & # * > v J Y Y n       ",
"              c.$XM.k.z.z.x.k.f.4.7.x p 0.<XqXV.            & . v L H A         ",
"            L.%X=X@Xb.x.5.6.6.k.6.4.1.>.p t <X<X              @ M F             ",
"            +X#X$X=X%XOXT.x.4.1.1.7.,.i h u r <X<X5 V.>X8X                      ",
"          /.#X@X$X$X*X=X%X+XOX).).c.i.e.>.0.t S.qXqX0X0X<X8X:X                  ",
"          +X+X@X@X$X$X$X%X%X%X@X$X#XoXXX(.W.I.a.S.:X9X<X:X8X                    ",
"        W.+X+X+X+X#X#X#X#X@X@X+XoX@XoXXX/.^.L.q.;.X                             ",
"        (.XX+XXX+X+X@X@X@X@X@X+XXX+X+XXX(.^.U.q.9.;.a                           ",
"      U.XXoXoXXX+X@X@X@X@X@X@X+XXX+X+XoX(.^.T.u.0.9.g f                         ",
"      T.XXXXoXXXoX+X@X+X+X+X@X@X.XoX+X+XXX(.W.i.8.q.8.;.d                       ",
"      T.XXoXXX.XoX+X+X+X@X@X@X+XXX.X+X+XXX.X^.U.r.;.r.q.8.g                     ",
"      /..XXXXX/.oX+X+X+X+X@X@X+XoX!.+X@XoXXX(.T.j.8.9.y.r.q.;.                  ",
"    I.XX.XXX/./.XXoXoX+X+X+X+X+X+X/.XX+X+XoX.XQ.I.y.;.y.u.u.y.8.g               ",
"    I..XXXoX/./.XXoXoX+X+X@XoX@XoX.X.XoXoXoX.X/.T.j.8.8.u.i.i.u.y.k             ",
"    I.(..XXX!.!.XXXXoXoXoX+X@XoXoX.X!.oXoXXXXX(.Q.I.u.;.w.j.j.j.i.u.;.          ",
"    U.(.XXXXQ./.XXXXXX+X+X+X+XoXoXXX!..XoXoXXX.X^.T.c.r.0.y.I.I.I.I.I.8.        ",
"    Q.(.XXXXQ.!.XXXXXX+X+X+X+X+XoXXX!./.oXXXXX.X/.W.U.u.q.8.i.U.U.T.U.T.L.r     ",
"  I.XX(.XXXXQ./.XXXXXXXX+X+X+X+XoXoX/.!.XXoXXXXX(.^.W.I.i.q.9.I.W.W.^.I.>.x >.z ",
"  U.@XoX+XoX!.(.XX+X+X+X+X+X+X+XoXoX(.~.XXoXoXoXXX(.^.^.U.c.y.9.p.h.s.<.4.f.d.>.",
"<.g./.+X#X#X/.(.#X#X#X$X#X$X$X#X$X@X+X/.XX#X#X#X@X+XoXXXW.h.c y z 7.6.f.f.d.    ",
"d.n.z.M.~.~.f.x.W..X+X+X+X@X+X#X+X+X(.U.U././.).).^.b.c.s.>.2.<.z               ",
"  v.m.z.z.k.5.k.n.n.m.v.v.v.v.v.z.l.l.k.5.z.z.n.z.z.z.k.k.d.3.>.                ",
"                  m.m.m.m.v.v.z.z.z.k.k.  k.v.v.m.v.z.                          "
};
