/* XPM */
static char *mario_front1703525253[] = {
/* columns rows colors chars-per-pixel */
"40 40 239 2 ",
"   c None",
".  c black",
"X  c #3D0000",
"o  c #2C1624",
"O  c #480102",
"+  c #520809",
"@  c #720C0D",
"#  c #7A3B01",
"$  c #563530",
"%  c #6D3D31",
"&  c #78443A",
"*  c #6B463A",
"=  c #3D2855",
"-  c #462E6E",
";  c #653063",
":  c #6A4B42",
">  c #735451",
",  c #7B6155",
"<  c #8A0000",
"1  c #950B0B",
"2  c #B30000",
"3  c #B90204",
"4  c #A50313",
"5  c #BC0A16",
"6  c #AC120F",
"7  c #94241F",
"8  c #BE3F00",
"9  c #9C0030",
"0  c #B81B28",
"q  c #96342B",
"w  c #BA2A34",
"e  c #B7313C",
"r  c #C60608",
"t  c #D60000",
"y  c #C21419",
"u  c #D8181C",
"i  c #D30819",
"p  c #E90505",
"a  c #F40000",
"s  c #FB0000",
"d  c #F40A0E",
"f  c #E81619",
"g  c #FE171A",
"h  c #F4110B",
"j  c #F6201F",
"k  c #D10A2B",
"l  c #E80720",
"z  c #FA1724",
"x  c #EF0032",
"c  c #DA2630",
"v  c #EA282F",
"b  c #FB2429",
"n  c #FC2A34",
"m  c #F8313A",
"M  c #E72E38",
"N  c #94450D",
"B  c #B25400",
"V  c #95422C",
"C  c #874537",
"Z  c #96452F",
"A  c #A35538",
"S  c #B25A3C",
"D  c #B4592C",
"F  c #BE623A",
"G  c #C25F26",
"H  c #CE6B3B",
"J  c #A31457",
"K  c #C13F46",
"L  c #F7394B",
"P  c #915A4E",
"I  c #8A5654",
"U  c #A55644",
"Y  c #B15647",
"T  c #A14D59",
"R  c #98634A",
"E  c #976756",
"W  c #876558",
"Q  c #B2734E",
"!  c #A36858",
"~  c #B86A56",
"^  c #B77856",
"/  c #A77051",
"(  c #90556F",
")  c #916B68",
"_  c #AB7561",
"`  c #A67764",
"'  c #B77964",
"]  c #AB797A",
"[  c #D0424F",
"{  c #F44350",
"}  c #F0474D",
"|  c #C76B48",
" . c #C16D56",
".. c #D27655",
"X. c #FF605F",
"o. c #D07663",
"O. c #D7767A",
"+. c #CA7962",
"@. c #F87172",
"#. c #F06A6B",
"$. c #FDDA00",
"%. c #FFEE00",
"&. c #BD8057",
"*. c #B7966C",
"=. c #C8875B",
"-. c #EB8454",
";. c #C88769",
":. c #C78A71",
">. c #D38F75",
",. c #C89377",
"<. c #D7977B",
"1. c #D78266",
"2. c #E49070",
"3. c #F9A57C",
"4. c #D4BB75",
"5. c #E2CE6D",
"6. c #DBC979",
"7. c #0B2C95",
"8. c #173293",
"9. c #233B94",
"0. c #273A8F",
"q. c #1136A2",
"w. c #133BAC",
"e. c #1837A0",
"r. c #133EB2",
"t. c #0633AF",
"y. c #2B3DA4",
"u. c #4A1C80",
"i. c #67238C",
"p. c #1545BC",
"a. c #1943B5",
"s. c #0D44B5",
"d. c #344BAA",
"f. c #2A49B6",
"g. c #374CB2",
"h. c #3854B3",
"j. c #0070B3",
"k. c #764C8F",
"l. c #4F6397",
"z. c #5253AD",
"x. c #6E5AAD",
"c. c #4F4B81",
"v. c #003DCB",
"b. c #1749C4",
"n. c #1B4BC5",
"m. c #1A4ECB",
"M. c #154DCB",
"N. c #1B51CE",
"B. c #1750CD",
"V. c #004CD4",
"C. c #0157D9",
"Z. c #1C55D4",
"A. c #1C59D7",
"S. c #1E59DA",
"D. c #1A57DA",
"F. c #004DCF",
"G. c #234DC2",
"H. c #2552CA",
"J. c #2B56C9",
"K. c #3759C9",
"L. c #225CDC",
"P. c #265AD6",
"I. c #395CD7",
"U. c #3868DE",
"Y. c #005EE4",
"T. c #005FED",
"R. c #1F5EE2",
"E. c #215FE1",
"W. c #0466E7",
"Q. c #1A61E2",
"!. c #0062F0",
"~. c #2B64E4",
"^. c #2665E9",
"/. c #3368E4",
"(. c #2369F3",
"). c #425FCE",
"_. c #715ED6",
"`. c #675ED7",
"'. c #5465DA",
"]. c #4163E0",
"[. c #6B6FC0",
"{. c #9D379F",
"}. c #D20D8B",
"|. c #93568B",
" X c #8E48B3",
".X c #5E88B9",
"XX c #0588C8",
"oX c #B78C89",
"OX c #9397A9",
"+X c #9EA4B1",
"@X c #ADADB7",
"#X c #DA9E82",
"$X c #D69395",
"%X c #D19295",
"&X c #E7989A",
"*X c #E0888B",
"=X c #DEA284",
"-X c #D2A381",
";X c #E9A788",
":X c #F6AD89",
">X c #FBB58D",
",X c #FFBB92",
"<X c #F6B993",
"1X c #EDB59C",
"2X c #EE9DA0",
"3X c #CBA5A4",
"4X c #EBB0AB",
"5X c #FFCA9D",
"6X c #F9C59A",
"7X c #FFD19E",
"8X c #FCC9A2",
"9X c #FFD5A8",
"0X c #E7C5A9",
"qX c #DDD78E",
"wX c #95A9CD",
"eX c #B6BAC5",
"rX c #BDB9C4",
"tX c #ADB6C9",
"yX c #C8C5CB",
"uX c #CCCDD5",
"iX c #CED2D8",
"pX c #D2D1D4",
"aX c #DCDADD",
"sX c #DCD4D7",
"dX c #D3CED4",
"fX c #F3C4C4",
"gX c #E4DBDB",
"hX c #FFDBC7",
"jX c #DEDEE2",
"kX c #EBE7E6",
"lX c #E8E5E6",
"zX c #F2ECEA",
"xX c #F5F0EE",
"cX c #FAF2EF",
"vX c #FBF5F3",
"bX c #FEF9F6",
"nX c #FEFCFC",
"mX c #F5F2F1",
"MX c #ECEEF0",
/* pixels */
"                                L s s s a a a L                                 ",
"                            m n s @.2XfXfX2X@.s v M                             ",
"                        { n b a @.kX*X*X$XO.sXO.p v v [                         ",
"                      L n d b p &X3X$XgXsX%X%X%Xt y r v [                       ",
"                    { n d f p f p O.&X&X&X$XO.t i r r 3 c K                     ",
"                    L d f f u u y r 2 2 2 3 2 6 0 y 5 0 6 e                     ",
"                    n u 5 7 @ + X % _ _ _ ` % X + @ 7 4 7 c                     ",
"                    l 4 C ~ ! _ oX) =.>.>.;.) oX` E ` C 1 w                     ",
"                    o.@ ,.6X<XgXwX.X3X,X:XoX.XwX@X:.<.` O Y                     ",
"                  :X,X~ &.8X8XMXj.l.3X8X>XoXl.XXtX=X;XW > <.<.                  ",
"                  :X3.q *.7X<XhXyX0X9X9X5X5X<XrX4X3.3.*.% >.>.                  ",
"                  6X9X=X0X: : *.6X9X5X5X6X,X>X;X^ $ $ =X` 2.<.                  ",
"                    6X9X8X_ o . W <X>X>X:X;X=XW . o I ;X;X#X                    ",
"                        6X5X3./ $ * W ! ` W : o W ,.:X;X                        ",
"                          <X>X5X,X;X' ' ` E :.4.=X=X;X                          ",
"                            |.|.=X>X,X,X;X=X#X,.|.(                             ",
"                      n h L ].C.i.8  . .~ T N - 7.7.J 6 w                       ",
"                    z z s }.Y.!. Xl x l i k 9 u.t.t.J 2 5 5                     ",
"                m g g z s %XqX6.I.].'._._.`.I.K.4.5.] 2 6 2 y e                 ",
"              n g g l p {.qX%.4.H.Q.Q.!.W.W.C.P.6.$.*.i.1 4 2 d v               ",
"            s b g z t {.!.'.[.V.Q./.~./.~.P.P.V.F.z.d.s.; < 4 h j a             ",
"          2XX.s p r < N./.Q.W.~./.~.~.~.L.L.A.L.P.V.F.G.y.@ y p a X.&X          ",
"      xXnXbXMX4X[ < - P.E.L.P.E.^.L.L.L.L.A.Z.Z.Z.H.m.G.f.= r } fXxXxXbXaX      ",
"    vXnXbXMXjXuXOX+   J.H.N.L.Z.A.A.A.Z.Z.N.m.m.n.b.p.a.g.    sXMXcXvXvXnXkX    ",
"  bXnXbXvXkXlXdXOX    h.M.n.n.n.b.b.b.b.b.p.p.p.r.r.r.y.d.    pXvXbXbXvXzXvXlX  ",
"mXnXnXbXkXiXyXaXeX    h.m.p.w.r.r.r.w.w.w.w.w.w.w.w.w.r.h.    zXxXgXzXvXxXkXMXiX",
"lXbXlXkXjX+XOXgXuX    I.L.m.p.r.q.q.q.q.q.q.q.q.q.q.w.r.d.    bXsXpXgXzXkXuXuXeX",
"  pXjXaXaXiXeXuXtX    I.R.L.L.B.p.q.7.9.9.7.7.q.r.m.m.M.f.    pXuXkXnXlXeXeX@X  ",
"      yX@X            ^.L.E.L.Z.M.r.7.    8.p.Z.L.A.Z.M.f.            +X+X      ",
"                    U.^.E.P.L.B.b.w.8.    a.S.A.L.L.Z.Z.B.g.                    ",
"                    /.^.E.L.Z.Z.p.w.8.    H.D.S.L.L.A.Z.B.f.                    ",
"                    U.E.E.P.L.m.p.w.0.      S.L.L.A.A.Z.B.f.                    ",
"                    /.E.E.L.Z.n.r.q.        P.D.A.L.S.Z.m.H.                    ",
"                  /.(.E.L.P.Z.n.r.9.        J.S.L.P.P.P.D.D.J.                  ",
"                  ).K.J.N.F.V.b.a.9.        K.L.S.Y.Y.D.H.f.h.                  ",
"              1.o...G U I k.z.b.t.9.        A.Y.D.x.|.T S G H  .'               ",
"            +.-.-.2...F A N # ; c.c.        x.k.T B B | 1...H H | !             ",
"            ~ H ....| S A q % * : >         R A A U Y  .+...F S A P             ",
"            E U V V q C % & > > W             *.E ! A Z V V Z C I >             ",
"              ;.&.^ Q Q / R )                     <.=.=.^ Q / R P               "
};
