/* XPM */
static char *mario_left1703688185[] = {
/* columns rows colors chars-per-pixel */
"40 40 213 2 ",
"   c None",
".  c #000000",
"X  c #290000",
"o  c #002E1F",
"O  c #001E31",
"+  c #07222B",
"@  c #3D3934",
"#  c #520700",
"$  c #7A1207",
"%  c #5B2500",
"&  c #482300",
"*  c #6A2904",
"=  c #7C3E00",
"-  c #753600",
";  c #5B3828",
":  c #593C35",
">  c #42372E",
",  c #7B2E29",
"<  c #693C29",
"1  c #763E24",
"2  c #653B36",
"3  c #773639",
"4  c #7D4104",
"5  c #4A453C",
"6  c #564934",
"7  c #7A4525",
"8  c #79422B",
"9  c #6D4534",
"0  c #7B4834",
"q  c #002458",
"w  c #05355C",
"e  c #00374A",
"r  c #353F54",
"t  c #29364E",
"y  c #001472",
"u  c #062F6F",
"i  c #283D62",
"p  c #633B57",
"a  c #5F2C6C",
"s  c #603664",
"d  c #0F4B4B",
"f  c #344855",
"g  c #084579",
"h  c #364B68",
"j  c #234976",
"k  c #2D4C72",
"l  c #484546",
"z  c #564943",
"x  c #47545C",
"c  c #55505D",
"v  c #754743",
"b  c #68594C",
"n  c #7B594B",
"m  c #6F5556",
"M  c #776254",
"N  c #535969",
"B  c #496976",
"V  c #7B7878",
"C  c #8F0000",
"Z  c #990000",
"A  c #AB0000",
"S  c #AB0613",
"D  c #B6020B",
"F  c #8F1A28",
"G  c #B90D26",
"H  c #972A26",
"J  c #9B2D31",
"K  c #883438",
"L  c #933A3A",
"P  c #B4292D",
"I  c #B83233",
"U  c #A53636",
"Y  c #C30000",
"T  c #C90000",
"R  c #DA0001",
"E  c #D00000",
"W  c #CD0D14",
"Q  c #E40000",
"!  c #EB0000",
"~  c #EB141F",
"^  c #E71915",
"/  c #F3121E",
"(  c #ED0512",
")  c #D91C23",
"_  c #CF1E28",
"`  c #ED1B24",
"'  c #EA1B25",
"]  c #F31521",
"[  c #F31B24",
"{  c #F11F28",
"}  c #C82328",
"|  c #D32329",
" . c #D42A2C",
".. c #DC2429",
"X. c #C93637",
"o. c #EC2329",
"O. c #EA2328",
"+. c #F32B2E",
"@. c #F32229",
"#. c #F2383D",
"$. c #F42D37",
"%. c #834618",
"&. c #974E00",
"*. c #854B2B",
"=. c #844727",
"-. c #864B33",
";. c #A6453E",
":. c #84364B",
">. c #B62041",
",. c #8B3F6C",
"<. c #905151",
"1. c #9D724B",
"2. c #846959",
"3. c #916847",
"4. c #AB794C",
"5. c #8C796A",
"6. c #927B6B",
"7. c #BB7A68",
"8. c #D46E6E",
"9. c #BBA900",
"0. c #8F8E33",
"q. c #D5CB08",
"w. c #BC844C",
"e. c #B6824E",
"r. c #B58353",
"t. c #9B8473",
"y. c #838A63",
"u. c #A78875",
"i. c #AE8F77",
"p. c #C0874B",
"a. c #D28673",
"s. c #003384",
"d. c #004286",
"f. c #00538A",
"g. c #1A558E",
"h. c #004D98",
"j. c #01599C",
"k. c #065594",
"l. c #115492",
"z. c #235288",
"x. c #2F5586",
"c. c #00658D",
"v. c #0049A6",
"b. c #015CA2",
"n. c #0558A5",
"m. c #005CB4",
"M. c #115BA0",
"N. c #0264AE",
"B. c #0763A9",
"V. c #1C69AF",
"C. c #0367B2",
"Z. c #0269B5",
"A. c #0A69B4",
"S. c #026AB8",
"D. c #0A67B2",
"F. c #166AB4",
"G. c #1B6CB6",
"H. c #1267B1",
"J. c #3774BC",
"K. c #2B6BB2",
"L. c #67718B",
"P. c #7C8182",
"I. c #8A8585",
"U. c #979797",
"Y. c #8E8C8E",
"T. c #A89581",
"R. c #B79883",
"E. c #B29291",
"W. c #B2A995",
"Q. c #969CA9",
"!. c #92B0BF",
"~. c #A3A5A5",
"^. c #ACACAB",
"/. c #B8AEAB",
"(. c #B2B2B1",
"). c #C48786",
"_. c #C69596",
"`. c #F39493",
"'. c #C6A48C",
"]. c #CAB298",
"[. c #D2B195",
"{. c #DBB99C",
"}. c #D8B496",
"|. c #D0A991",
" X c #E3BC9E",
".X c #D3BAAA",
"XX c #C2B2B3",
"oX c #E4BDA1",
"OX c #F7AAAB",
"+X c #EBC29F",
"@X c #CEC5BC",
"#X c #EAC4A5",
"$X c #ECC6A8",
"%X c #ECCBAC",
"&X c #F3CAAB",
"*X c #FBCFAB",
"=X c #FDD1AF",
"-X c #FFD5B3",
";X c #FFD9B6",
":X c #FBD8B5",
">X c #F9CFB1",
",X c #BFD1D9",
"<X c #C7C7C7",
"1X c #D5CCCB",
"2X c #F2D8D7",
"3X c #E4E2DD",
"4X c #DDE2E1",
"5X c #E4E5E5",
"6X c #EDEDED",
"7X c #E7EFEF",
"8X c #F4F3F3",
"9X c #F5FCFC",
"0X c #FDFDFD",
/* pixels */
"                                                                                ",
"                                                                                ",
"                                                                                ",
"                            m A )  .) | } I L                                   ",
"                          ).8X1XR ] { [ [ ] [ ) P v                             ",
"                        V OX`.0X/.! +.` { [ ` [ ] ` P 5                         ",
"                        I.4X8.2XXX! +.{ ` ` ` ` ` ` ] ' K                       ",
"          K _ .._ ) ) o.Q T <.P.H W o.@.{ o.` ` ' ` ' [ ] J                     ",
"          :.I X. . . .D U ;.# . C A Z A E Q ] o.` ' { O.{ / J                   ",
"                    X.F T.W.^.U.u.a.7.t.R.7.} ( +.+.] ] +.O.] ` O.P p           ",
"                         XI.!.7X.X-X-X;X-X].6 , S T R R R ~ ' [ [ ] ] 3         ",
"          T.oX&X&X#X[.R.{.e c.<X.X-X&Xu.2.0 -.% o i.|.'.7.W { [ [ ] ] ,         ",
"        u.;X;X-X-X-X;X;X-X'.~.@X{. X>X5.. - # n  X$X].%X>XM A  .`  .K           ",
"        t.;X;X;X-X-X;X;X%X#X$X'.> z -X#X2.n u.#X-Xt.R.-X:XM & 2 :.              ",
"          5.'.[.}.[.|.i.b . > . b {.=X=X&X$X=X=X-X$X-X&X6.# 9                   ",
"                  + . . . b z 6.&X;X*X*X-X-X-X;X{.i.u.9 * 1 f                   ",
"                      l ].;X;X-X;X=X-X-X;X=X#XT.O X % - ; 1 2                   ",
"                          t.[.$X$X$X+X}.E.L.f.u s :.$ f   z                     ",
"                              d L H w h.n.s.>...^ / ] J                         ",
"                            0 G S s.Z.Z.p R ^ o.` ' @.( 2                       ",
"                          j s &.0.y.M.g T $.F G [ ~ ~ [ W d                     ",
"                        h m.B q.q.9.f w ,.W E C #.#.#.#.#.<.                    ",
"                      r G.N.6 9.0.x w l.N.f.,.t D ! ! Q ! Y .                   ",
"                      l.S.V.j.y g d.j.A.K.C.Z.f.<.8.).)._._.~.^.                ",
"                    6 j.A.Z.F.A.N.G.A.C.C.J.d.^.5X7X9X9X9X9X8X<X                ",
"                      j S.Z.D.G.F.A.C.C.G.v.q XX6X0X0X0X0X0X8X5XU.              ",
"                        z.Z.Z.Z.C.C.C.G.h.Y.5X9X0X0X0X8X9X8X8X6X5XV             ",
"                          h z.b.C.C.V.C.q 5X0X0X0X0X5Xc 8X(.^.1X1X(.            ",
"                              @ b.Z.D.H.n.L.^.<X5X0X8X8X0X9X8X0X0XI.            ",
"                                g.Z.C.C.K.v.N 3X0X0X0X0X0X0X8X4X~.              ",
"                                j Z.D.A.C.G.n.x.Q.Q.V ~.<XY.                    ",
"                                i C.C.C.A.S.G.S.v.y                             ",
"                              t j.C.F.H.H.H.C.G.J.K.6                           ",
"                        6 2 < : z.j.N.Z.S.S.S.A.Z.C.z.x                         ",
"                    l 2 *.*.*.%.- < c k z.j.j.b.b.j.j.r                         ",
"                    l %.K 1 =.8 K %.%.= - < 2 2 2 2 - ;                         ",
"                      6 *.*.=.7 8 8 0 *.7 %.%.4 4 %.%.6                         ",
"                        3.w.w.p.p.p.4.4.4.3.1.w.r.e.1.                          ",
"                                                                                ",
"                                                                                "
};
