/* XPM */
static char *mario_back01703688184[] = {
/* columns rows colors chars-per-pixel */
"40 40 238 2 ",
"   c None",
".  c #061E17",
"X  c #181010",
"o  c #370000",
"O  c #320F0B",
"+  c #042118",
"@  c #18210F",
"#  c #2A230E",
"$  c #3D1A22",
"%  c #3E2733",
"&  c #5E0204",
"*  c #491902",
"=  c #461B16",
"-  c #5B1414",
";  c #680100",
":  c #760000",
">  c #761A14",
",  c #552103",
"<  c #47271F",
"1  c #572718",
"2  c #482506",
"3  c #792900",
"4  c #652916",
"5  c #722A13",
"6  c #551931",
"7  c #7A1932",
"8  c #68182E",
"9  c #552A27",
"0  c #52362B",
"q  c #4B2A30",
"w  c #783925",
"e  c #70293B",
"r  c #111A4F",
"t  c #331F44",
"y  c #1B2A58",
"u  c #082854",
"i  c #372456",
"p  c #342F57",
"a  c #001B7A",
"s  c #081265",
"d  c #012D6C",
"f  c #072768",
"g  c #0D356C",
"h  c #13326B",
"j  c #1A3365",
"k  c #022E74",
"l  c #0A2E77",
"z  c #023375",
"x  c #01327B",
"c  c #03397B",
"v  c #0C3776",
"b  c #143775",
"n  c #102C72",
"m  c #243B79",
"M  c #2A2E66",
"N  c #521B46",
"B  c #6B1A41",
"V  c #492E51",
"C  c #742B59",
"Z  c #473762",
"A  c #513869",
"S  c #1C457A",
"D  c #324366",
"F  c #4B4A72",
"G  c #5A555B",
"H  c #930002",
"J  c #9A0008",
"K  c #88071D",
"L  c #950313",
"P  c #9C071A",
"I  c #881817",
"U  c #961615",
"Y  c #8C0A06",
"T  c #A50002",
"R  c #AA0002",
"E  c #A8010D",
"W  c #B40001",
"Q  c #B4000E",
"!  c #BB0008",
"~  c #AC0414",
"^  c #A5091B",
"/  c #B40212",
"(  c #B80516",
")  c #882E00",
"_  c #8D3715",
"`  c #A43400",
"'  c #B42B0E",
"]  c #841828",
"[  c #981728",
"{  c #8F0922",
"}  c #A91124",
"|  c #8A293B",
" . c #972634",
".. c #96383B",
"X. c #812329",
"o. c #A52834",
"O. c #B02E2E",
"+. c #C50007",
"@. c #DD0406",
"#. c #C30312",
"$. c #CA0714",
"%. c #D70911",
"&. c #D7161C",
"*. c #DE140C",
"=. c #E70304",
"-. c #FD0100",
";. c #F60303",
":. c #EC1919",
">. c #F91718",
",. c #F21110",
"<. c #D0280F",
"1. c #E52300",
"2. c #DD1C20",
"3. c #C01D26",
"4. c #E41F22",
"5. c #D83233",
"6. c #C52B30",
"7. c #EB2425",
"8. c #FC2B2B",
"9. c #F92726",
"0. c #FE2D32",
"q. c #E83335",
"w. c #FB3334",
"e. c #FD3C3C",
"r. c #F43737",
"t. c #F53130",
"y. c #FF423C",
"u. c #90334D",
"i. c #A02151",
"p. c #CC3B43",
"a. c #B34F50",
"s. c #915C6D",
"d. c #A46269",
"f. c #8D666B",
"g. c #C94F52",
"h. c #FE4343",
"j. c #FE4D4C",
"k. c #FF4748",
"l. c #FD5454",
"z. c #FE5B5B",
"x. c #FF5C54",
"c. c #EC5255",
"v. c #FA615F",
"b. c #CF5565",
"n. c #FE5F60",
"m. c #D6676E",
"M. c #FE6262",
"N. c #FD6C6C",
"B. c #FF6768",
"V. c #FE7474",
"C. c #FD7C7B",
"Z. c #F2787A",
"A. c #FF706D",
"S. c #FC827A",
"D. c #001F8F",
"F. c #002C82",
"G. c #013484",
"H. c #00358B",
"J. c #003D8D",
"K. c #073884",
"L. c #003C92",
"P. c #063AA8",
"I. c #034289",
"U. c #014493",
"Y. c #044995",
"T. c #00519D",
"R. c #005E92",
"E. c #1C4C8E",
"W. c #2E4D8E",
"Q. c #05609E",
"!. c #256596",
"~. c #36719E",
"^. c #0448A6",
"/. c #025BA4",
"(. c #0359A8",
"). c #1551A7",
"_. c #0866AC",
"`. c #0063B3",
"'. c #026DBC",
"]. c #0267B9",
"[. c #0074BC",
"{. c #0779BA",
"}. c #1677BA",
"|. c #136BB1",
" X c #2A6AA6",
".X c #2373B6",
"XX c #47678F",
"oX c #0175C2",
"OX c #017BC9",
"+X c #007BC5",
"@X c #1375C2",
"#X c #9A7593",
"$X c #BD7880",
"%X c #EF7A8D",
"&X c #0983BF",
"*X c #3689BB",
"=X c #3E82AE",
"-X c #438DB9",
";X c #6891B4",
":X c #64A2BB",
">X c #0187CB",
",X c #008BD5",
"<X c #0197D6",
"1X c #178FCE",
"2X c #3396CB",
"3X c #2498D5",
"4X c #2D90C6",
"5X c #03A2DF",
"6X c #39AADA",
"7X c #08A9E5",
"8X c #14AEE5",
"9X c #2AB3E5",
"0X c #48A8D6",
"qX c #46B9E7",
"wX c #5BBAE5",
"eX c #4DBFF5",
"rX c #5AABD5",
"tX c #3BCAF6",
"yX c #58C8EC",
"uX c #52C6F3",
"iX c #68C4E4",
"pX c #71C5E3",
"aX c #B59294",
"sX c #B79DA9",
"dX c #D59497",
"fX c #EA878A",
"gX c #FE8C8C",
"hX c #FC8886",
"jX c #FE9494",
"kX c #FB9A9A",
"lX c #FCAAA6",
"zX c #D3A5AB",
"xX c #BDB8CB",
"cX c #90BADC",
"vX c #AAC5DA",
"bX c #DACAD3",
"nX c #F0D2D0",
"mX c #CBD0E0",
/* pixels */
"                                  gXgXgXgXgXgXgXgXjXjXkX                        ",
"                            l.z.B.V.C.C.V.V.V.V.C.hXgXjXkXjXkX                  ",
"                        p.w.h.h.h.e.h.j.j.j.j.l.l.z.z.M.N.C.gXjXjX              ",
"                      u.o.3.4.>.>.8.w.e.h.h.j.j.j.j.l.z.z.M.B.V.gXgX            ",
"                    ..] K K U ( &.:.>.>.9.9.8.e.r.h.l.l.z.z.z.B.V.gXC.          ",
"                  u.o.^ ^ ^ L J J R +.=.=.-.>.9.8.w.e.e.h.h.j.j.z.M.A.          ",
"                  ..[ P { P } O.O.6.5.5.q.r.r.r.e.e.e.h.j.j.j.j.l.z.M.          ",
"                  o. . .5.j.c.z.z.n.n.n.M.M.B.A.N.V.V.C.Z.C.V.V.N.n.z.          ",
"                  ..u.o.6.r.k.j.j.l.j.j.j.l.z.M.M.N.V.Z.V.N.V.A.z.z.j.          ",
"                b.p.O.o.[ } $.2.4.4.7.t.w.w.w.w.e.h.l.z.l.z.l.j.j.0.S.          ",
"                k.-.>.:.&.&.$.( / / Q ! ! #.#.+.%.%.@.2.t.t.w.w.y.,.k.lX        ",
"                h.>.-.>.-.-.;.=.@.%.$.$.#.( ( / ~ / ~ E T T E E @.;.-.0.        ",
"                  w.,.' O.<.*.*.=.=.%.%.%.$.$.#.#./ / ~ U 7 - 5 :.>.8.          ",
"                          0 < 4 > I U U U U U Y I > > 4 = O 9 ..                ",
"                          X.2 2 # @ + + @ + + . . . + # o o ;                   ",
"                              V q $ * 2 * * * = = O < O F :X                    ",
"                        8 8 8 B 6 i r r y % 6 - ; & q O ~.qXcXjXhX              ",
"                    7 7 { K H H J 7 M f s f y i N i r S 4X>X3X%Xx.V.C.          ",
"                B X.K Y L J J ^ T J C f M d d d z f k .X2X~.4Xm.-.q.j.N.S.      ",
"              7 { L J P L L ^ ^ W Q A k b k l l f Y.'.+X@X@X.X#XW P +.7.j.V.    ",
"          | [ ^ Q / ( ~ W R W +.W C z n k x x z I.`.[.'.].].^.T.G ; ] H J y.x.  ",
"         .} ~ / / ~ R P 7 6 B C A c x l x k f Y.`.`.].[.@XoXoXoXXX; K L I T v.  ",
"      : J R ! #.$.+.i.i u u d z z x k x k x T.`.].`.[.[.[.{.'.+X-Xe ; 8 X.; m.nX",
"    xXaXa.P O.^ R i.W.z y j h n h g g f r n v S g v S g E.!.!.*X;Xa.5.5.a.m.dX  ",
"  vXbXkXfXfXZ.c.g.  c m b b b b v c l Y._._.Q.Y.!.S T._.@X1X1X3X*XG O.q.t.g.aX  ",
"  vXxXdXz.j.k.b.      b h K.J.J.L.I.G.Y.'.[.`.`. XS Y.(.(.].oX>XaXa.d.f.d.a.    ",
"vXmXzXhXc.a.5.y.b.    m b G.J.J.U.U.U.G.c I.z h j z z l l z U.*X                ",
"bXnXlXkXsXdXb.m.$X    ).G.G.H.H.H.J.I.J.c b S y j z c c z I.[.9X                ",
"    lXlXlXhXA.fX      ).L.K.H.H.H.k a l z j y y f z x x K.`.>X8XwX              ",
"                      ).^.K.H.H.L.^.(.{.Q.s   y d x G.x /.OX,X7XqX              ",
"                      ).^.K.L.L.`.<X<X7X<Xs   j d x G.G./.+X<X7XqX              ",
"                      ^.^.K.J._.|.4X3X6XqX-X  S k x G.U./.{.1X6XyX              ",
"                      ^.P.P.(._.)..X4X0XwXwX    K.x F.H.T._.1X3XqXwX            ",
"                    ^.P.F.F.(.OXOXOXOX7XeXpX    b H.H.F.J.`.oX<X9XyX            ",
"                    P.^.).).`.,X7X8X9X9XtXiX    E.G.G.G.G./.>X3X9XyXpX          ",
"                  L.L./. X X).|.|.}.2X0XeXpX      l K.K.b Q.{.&X4X0XwX          ",
"          < < 0 N M m K.c z x F.Y.*X4X3XuXpX      k c x K.Y.|.&X4X<X0XdX        ",
"        9 1 , 1 , , 9 q V V Z A A XX~.~.;X        V p p Z Z Z D F s.b.e.8.      ",
"      0 9 2 4 4 4 5 3 3 3 ) ) ) ) U ` 1.1.          4 _ _ ` ` ` <.;.;.-.7.      ",
"        % < < 1 1 1 9 5 w w w _ _ ' ,.9.y.            4 w _ <.O.<.              "
};
