/* XPM */
static char *wall01703525253[] = {
/* columns rows colors chars-per-pixel */
"40 40 67 1 ",
"  c None",
". c #031B16",
"X c #0D1B16",
"o c #001A19",
"O c #121C16",
"+ c #1D1F17",
"@ c #171F18",
"# c #1A1F19",
"$ c #3A1F11",
"% c #25231B",
"& c #2B251C",
"* c #3D2012",
"= c #32261C",
"- c #3F2B1E",
"; c #2D2C2B",
": c #302D2B",
"> c #392F2B",
", c #442314",
"< c #4A2715",
"1 c #4D2816",
"2 c #432D1F",
"3 c #4B2E1E",
"4 c #4F301F",
"5 c #50301F",
"6 c #5D331E",
"7 c #61351F",
"8 c #72391F",
"9 c #4E3020",
"0 c #543422",
"q c #5F3421",
"w c #633621",
"e c #673B26",
"r c #6A3C25",
"t c #663C28",
"y c #6B3F29",
"u c #733B21",
"i c #713E2A",
"p c #6D412B",
"a c #764025",
"s c #7A4024",
"d c #75452E",
"f c #7C4329",
"g c #844729",
"h c #84482A",
"j c #884829",
"k c #9C512E",
"l c #965437",
"z c #9C5737",
"x c #9E5837",
"c c #9C5738",
"v c #9E5838",
"b c #A1542F",
"n c #A55632",
"m c #A85731",
"M c #A75833",
"N c #A95934",
"B c #A15A3A",
"V c #AD5F38",
"C c #B15D35",
"Z c #B76037",
"A c #B96137",
"S c #B76239",
"D c #BA6339",
"F c #C4673B",
"G c #BD6A45",
"H c #C36D47",
"J c #C46E48",
/* pixels */
"                                        ",
"                                        ",
"                                        ",
"    HHHHHHHHHHHJHHG  HHHHHHHHHHHHJHG    ",
"   BFDDDDDDDDDDDDDCrdDADDDDADDDDDDDDh   ",
"   zNNMMNbNMMMMnNNn6rNNnMMMMMMMNnNMNf   ",
"   cCNNNNNNNNNNNNNn6rNNNNNNNNNNNNNMNf   ",
"   zCNNMNMMNMNNNNNn6rmNNNNNnNnNNNMNNf   ",
"   cCMMNMNMNNNnnMMn6rNNMMNNNNNnNNNNNs   ",
"   cCNNMNMNNnNNNNMn78NnNNnnNnNnNNNNmf   ",
"   cCMMMnNNNMMNMNMn7rnNNNnNMNnNNNNNNf   ",
"   vCNMMNNNNNNNNNNb7rNNNNNNNNNNNNNNNh   ",
"   lNNnnnnnnnnbnnnbwrbMbnnnnnnnbbMMbf   ",
"    *$$$$$,1,$****$==******<<,$,,**,    ",
"    pprrer0&2ettrtrrrttrttt-&0rtttpr    ",
"    DDDSSDn=hDSDSDSDSAASSSDa2MDDSSDD    ",
"   cCMMMMmk3gmMMnnnMnnnnnnmu0nnnbNNms   ",
"   cCmMNmmb3gNMNNnNMnNNNNNNi5nNNNNNmf   ",
"   BCMNMmNk3gNNmNNMMnNnNNNNu5zNNNmNNf   ",
"   cCNMNNNb3jNmNNNMNNNNNNnNu3nNnNNNmf   ",
"   cCNMMNNb3gNNmNNNnNNNnNNMs5bNNnNNNf   ",
"   cCNMMMNb3gmmNnNNNNnNNNMNs5bNNNNNNf   ",
"   cCMMMMNk3gmmMNNNnnNnNNnNu3bNnNNNNf   ",
"   cZCNCNNn3gCCNNNNCNCVNCNCu5nCNCNNVf   ",
"    iuu8uu82qui8uuuuuuuuuuu6288uuu8u    ",
"    o@XXXX#&%XXXXXo++oXXXXX&=@XXXOOo    ",
"    VVNVNVVVNVVNNCn55MCNMVVVNVMVVNVM    ",
"   BCCNCCCNNCNNCNVNwrCCNCNCNCNCNNCCCh   ",
"   cCNMNmNMMmmmmMMnwunnmMMMMNnNnnnNNf   ",
"   cCNMMmmmNmMMNMNmwrmMMNMNNNnNNNNNNf   ",
"   cCNNmBmNNmmNMMNmwrmmNmMNMNMMMNnMNf   ",
"   zCNNMNNmmNmMNMMmwrNMMmNMNMMMMNNVNf   ",
"   cCNNnNNMMMNNNNNnwrNNNnNNnNNnMMMNNf   ",
"   BNNNNnnMMMMnNNNnwrmnNNnNnnNNnMMNNf   ",
"   xCVCNNCNCCNNCNNNrrCmCCNNNNCVNCNCNh   ",
"   lnkkkkkkkzkkkkkkwrkkkkkkbkkkkkkkbi   ",
"    >;:::::::::::::   :::::::::::::;    ",
"                                        ",
"                                        ",
"                                        "
};
