/* XPM */
static char *x1703525253[] = {
/* columns rows colors chars-per-pixel */
"40 40 180 2 ",
"   c None",
".  c #000001",
"X  c #0A0604",
"o  c #0B0C0C",
"O  c #1B0E0A",
"+  c #140A08",
"@  c #1A100D",
"#  c #000011",
"$  c #000C12",
"%  c #0F1010",
"&  c #00141A",
"*  c #151616",
"=  c #1D1917",
"-  c #330000",
";  c #251C19",
":  c #341A1A",
">  c #35241F",
",  c #3D241D",
"<  c #342620",
"1  c #372821",
"2  c #3C2C24",
"3  c #3B2520",
"4  c #500000",
"5  c #5D1B15",
"6  c #750000",
"7  c #7B0000",
"8  c #7B0C00",
"9  c #7E1300",
"0  c #512003",
"q  c #40261D",
"w  c #7F2100",
"e  c #782600",
"r  c #7A380F",
"t  c #733616",
"y  c #432621",
"u  c #442C22",
"i  c #4C2C20",
"p  c #463227",
"a  c #4E3027",
"s  c #453329",
"d  c #4C352A",
"f  c #4F382C",
"g  c #5C3425",
"h  c #583328",
"j  c #533B2E",
"k  c #593D2F",
"l  c #553428",
"z  c #573D30",
"x  c #5A3E30",
"c  c #613625",
"v  c #643A2A",
"b  c #6E3D29",
"n  c #653826",
"m  c #713A28",
"M  c #5E4132",
"N  c #74412D",
"B  c #79432D",
"V  c #614334",
"C  c #6F4D39",
"Z  c #774735",
"A  c #3A494A",
"S  c #595655",
"D  c #754D41",
"F  c #795951",
"G  c #7C684C",
"H  c #7A605A",
"J  c #776E6C",
"K  c #6F7172",
"L  c #777878",
"P  c #7C7C7C",
"I  c #8A1F00",
"U  c #8D2B00",
"Y  c #872600",
"T  c #952D00",
"R  c #863400",
"E  c #8A3500",
"W  c #853A07",
"Q  c #933300",
"!  c #943B00",
"~  c #993D00",
"^  c #9A3500",
"/  c #9E4400",
"(  c #9A4408",
")  c #8B411A",
"_  c #95461B",
"`  c #9E4815",
"'  c #A0480F",
"]  c #A14C1D",
"[  c #80462F",
"{  c #8D4728",
"}  c #9D4D25",
"|  c #97482D",
" . c #914725",
".. c #844A33",
"X. c #8B4C33",
"o. c #814D3A",
"O. c #8B4F39",
"+. c #934E33",
"@. c #9A4F32",
"#. c #8E5138",
"$. c #955136",
"%. c #9C5437",
"&. c #93543C",
"*. c #9C5539",
"=. c #9C583C",
"-. c #A24F24",
";. c #A55027",
":. c #A04F31",
">. c #A35535",
",. c #A75837",
"<. c #A25739",
"1. c #A4593A",
"2. c #AB5C3C",
"3. c #885342",
"4. c #965D46",
"5. c #A65E43",
"6. c #A95E41",
"7. c #81694D",
"8. c #9D6748",
"9. c #83655D",
"0. c #976454",
"q. c #887052",
"w. c #8D7759",
"e. c #927556",
"r. c #9B7E5C",
"t. c #AA6144",
"y. c #AC644A",
"u. c #A06C4C",
"i. c #A37453",
"p. c #896D66",
"a. c #877570",
"s. c #8B7A76",
"d. c #897976",
"f. c #9D7D74",
"g. c #A0776C",
"h. c #9E815C",
"j. c #A0815E",
"k. c #92827E",
"l. c #A98963",
"z. c #B09068",
"x. c #B9956C",
"c. c #BC986E",
"v. c #BC9A70",
"b. c #C29E73",
"n. c #C5A074",
"m. c #CEA878",
"M. c #CBA577",
"N. c #D5AD7D",
"B. c #D9AF7D",
"V. c #DAB07E",
"C. c #878585",
"Z. c #918D8C",
"A. c #958A87",
"S. c #939292",
"D. c #A79996",
"F. c #B39F9A",
"G. c #A8A8A7",
"H. c #ADACAB",
"J. c #A1A2A2",
"K. c #B8AFAB",
"L. c #AFB1B1",
"P. c #B8B7B7",
"I. c #B8B9B8",
"U. c #DCB381",
"Y. c #E1B682",
"T. c #E4B984",
"R. c #C4BCBA",
"E. c #C9C6C5",
"W. c #CBCCCC",
"Q. c #C4C7C8",
"!. c #CBD0D1",
"~. c #D5D6D6",
"^. c #D9D5D5",
"/. c #DBDEDF",
"(. c #E4E6E6",
"). c #EAE9E9",
"_. c #EEF1F1",
"`. c #F3F5F5",
"'. c #FEFEFE",
"]. c #F6F9F9",
/* pixels */
"                                                                                ",
"                                    #.O...                                      ",
"                  o X O . h =.*.2.2.2.2.6.2.1.X.; X X X . =                     ",
"                % X . . . O +.1.,.1.1.1.,.<.2.b . . . $ @ o                     ",
"                    u b . . @ *.1.,.<.1.<.2.[ . . b +.>                         ",
"                    X.2.X.* # c 1.<.<.,.<.<.i & Z 2.1.%.=                       ",
"                  b 2.*.y.{ . $ #.2.<.<.1.4.. - / 2.1.2.O.                      ",
"                  <.2.1.! 0.d.. g o.%.+.o.4 A R.D.R >.1.2.b                     ",
"                B 2.5.E D._.'.P.. 0 t.2.- S ).'.'.~.Z >.2.1.q                   ",
"              u 1.6.( s.'.'.'.'.~.S | ) K '.'.'.'.'.I.9 y.1.<.&                 ",
"              ..1.y.8 W.'.'.'.`.(.J.e E G.(.`.'.'.'._.D >.1.2.+.                ",
"            v 2.<.2.t ).'.'.'.~.L.K *._ P Z.W.'.].'.'.a.` 1.<.2.$.,             ",
"          v 1.1.<.2.t (.'.'.'.).L C._ } P P (.'.].'.].p.` 1.1.=.2.1.g           ",
"        N 2.1.1.%.y.8 Q.'.].'.'.'.s.` ,.F `.'.].'.'.(.r 2.1.1.1.%.1.2.n         ",
"      N 2.1.<.<.2.5.} F _.'.'.'.P.Y t.t.Q A.].'.'.].A./ t.2.,.1.1.1.1.2.g       ",
"    g 2.1.1.1.1.R ` y.( 9.E.^.D.R 2.1.%.6.! p.R.E.f.! t.<. .3.%.1.1.1.2.1.q     ",
"    O.2.<.<.,.Z Q.k.I y.-.U U ~ 2.1.1.1.<.6.;.T T ] 5.5.7 E.!.6 t.<.<.<.2.B     ",
"  > <.1.<.<.,.b `.'.Z.Y y.6.6.5.*.*.*.%.%.%.=.5.5.1.y.T H.'._.C <.1.<.<.2.%.;   ",
"  , <.1.<.<.6.e /.'.'.Z.R 3.X.X.X.X.X.X.X.+.X.X.X.#.W J ].'.'.s./ 5.<.<.,.1.,   ",
"    %.1.<.<.y.w L.^.F.g.{ <.*.1.1.1.1.2.1.1.1.1.<.*.$.4.f.K./.a./ 5.<.<.2.%.    ",
"    B 2.>.<.*...) T ^ -.1.1.1.<.,.1.<.<.<.1.1.<.1.1.1.,.' T E N O.,.<.<.2.N     ",
"    q 1.2.<.<.,.6.5.5.1.<.<.1.1.1.1.1.1.1.1.1.1.<.<.,.1.5.5.t.1.*.1.,.2.$.      ",
"      c 2.1.1.,.,.2.,.<.2.,.1.1.<.>.>.:.%.>.>.,.1.1.1.1.1.1.1.1.1.1.2.$.        ",
"        h X.2.2.2.2.2.6.2.2.@.@.=.8.8.i.i.8.4.$.+.| ,.2.2.2.2.2.2.$...          ",
"              B ..O.O.O.O.5 e.M.m.N.V.U.U.U.N.m.b.x.C m X...X.                  ",
"                          w.Y.Y.V.V.V.B.N.V.V.V.V.T.b.                          ",
"                          B.Y.N.V.V.V.V.V.V.B.B.B.B.T.q.                        ",
"                        G T.V.V.V.V.V.B.V.V.V.V.V.B.T.z.                        ",
"                        G Y.V.V.V.V.V.V.V.V.V.V.B.B.Y.c.                        ",
"              z z z M l M B.V.N.V.B.B.V.V.V.B.V.B.N.T.r.: M j f p 1             ",
"          f M M M x x V > r.T.U.B.B.B.B.B.V.B.B.V.T.x.s x M x M M M d           ",
"        f V x x x x x x M 3 e.m.U.Y.T.T.Y.T.Y.U.N.j.a j M k x x k k M j         ",
"      1 V k x x x x x x x M y j 7.h.v.n.n.n.l.e.M y M x x x x x x x x M 1       ",
"      2 x x x x x x x x x x M M a .         . u x V x x x x x x x z k M u       ",
"      1 M x x x x x k x x x x V s             2 M x x x x x x x x x x M 1       ",
"        d V x x x x x x M M z s                 < j M M x M x x x M V d         ",
"          2 j z x x z z j                           2 p d j x x j j s           ",
"                                                                                ",
"                                                                                ",
"                                                                                "
};
