/* XPM */
static char *collectable_l1704011612[] = {
/* columns rows colors chars-per-pixel */
"40 40 230 2 ",
"   c None",
".  c #000004",
"X  c #000015",
"o  c #000030",
"O  c #272133",
"+  c #7F0000",
"@  c #79602E",
"#  c #796A43",
"$  c #820102",
"%  c #8C0102",
"&  c #85030B",
"*  c #930002",
"=  c #9C0002",
"-  c #9A070B",
";  c #860A12",
":  c #940710",
">  c #87181B",
",  c #97141B",
"<  c #A30002",
"1  c #AB0002",
"2  c #B30002",
"3  c #BB0004",
"4  c #BF000B",
"5  c #A70D18",
"6  c #A4131A",
"7  c #AB1117",
"8  c #B80C1B",
"9  c #85241A",
"0  c #8A1F23",
"q  c #971C23",
"w  c #B81C26",
"e  c #A71E24",
"r  c #8A2929",
"t  c #863824",
"y  c #8E3534",
"u  c #943138",
"i  c #952A32",
"p  c #B5212B",
"a  c #B12E36",
"s  c #C30001",
"d  c #CC0000",
"f  c #C5000B",
"g  c #CB000C",
"h  c #D60002",
"j  c #C90516",
"k  c #D20016",
"l  c #D4021C",
"z  c #E20000",
"x  c #EB0000",
"c  c #F40000",
"v  c #F90000",
"b  c #E80019",
"n  c #F9001A",
"m  c #DA0A23",
"M  c #C31A27",
"N  c #DD1429",
"B  c #EB0E2A",
"V  c #F50325",
"C  c #F90223",
"Z  c #F20C29",
"A  c #F4002D",
"S  c #EC122C",
"D  c #E6152B",
"F  c #F3172D",
"G  c #E81B34",
"H  c #F41A32",
"J  c #F50030",
"K  c #CB2331",
"L  c #D52737",
"P  c #D82935",
"I  c #E42133",
"U  c #EC2536",
"Y  c #E42C3C",
"T  c #EB2A3A",
"R  c #EA243B",
"E  c #FA2432",
"W  c #F62839",
"Q  c #F6313F",
"!  c #EA333F",
"~  c #894835",
"^  c #895133",
"/  c #875338",
"(  c #87462C",
")  c #8A663C",
"_  c #876D35",
"`  c #B73E49",
"'  c #FC1747",
"]  c #FF0B45",
"[  c #CE3B4A",
"{  c #E72A47",
"}  c #E93547",
"|  c #F63346",
" . c #F23053",
".. c #915347",
"X. c #AE5257",
"o. c #8E6744",
"O. c #8A7548",
"+. c #927247",
"@. c #96784A",
"#. c #977D51",
"$. c #986A53",
"%. c #A85F63",
"&. c #986D71",
"*. c #A8686D",
"=. c #A86B75",
"-. c #BC6572",
";. c #BA737E",
":. c #A47274",
">. c #D54A5A",
",. c #F94E55",
"<. c #D15B6C",
"1. c #FA5E67",
"2. c #EB5878",
"3. c #F75A7B",
"4. c #F54F6B",
"5. c #C66A79",
"6. c #D76676",
"7. c #F6727C",
"8. c #F66A7A",
"9. c #9D8455",
"0. c #A68949",
"q. c #A68B59",
"w. c #AE9253",
"e. c #AC935C",
"r. c #B49A59",
"t. c #AE914F",
"y. c #BDA35E",
"u. c #9F8A60",
"i. c #A28D65",
"p. c #AA8F60",
"a. c #A99567",
"s. c #B59C63",
"d. c #B59B64",
"f. c #AC9872",
"g. c #AB9476",
"h. c #BBA464",
"j. c #BDA56A",
"k. c #BDA868",
"l. c #BBA87F",
"z. c #C2A964",
"x. c #C4AE6A",
"c. c #C8AF63",
"v. c #CAB26A",
"b. c #C9B067",
"n. c #C4AC73",
"m. c #CBB674",
"M. c #D3BD75",
"N. c #D0B86C",
"B. c #DAC376",
"V. c #DAC478",
"C. c #D8C16D",
"Z. c #E2C979",
"A. c #B67C84",
"S. c #D67688",
"D. c #D66F86",
"F. c #F57988",
"G. c #EB758D",
"H. c #89868E",
"J. c #AB8187",
"K. c #AC8E94",
"L. c #BBAA86",
"P. c #BFB291",
"I. c #A798AD",
"U. c #AEA6BB",
"Y. c #D88199",
"T. c #CB8797",
"R. c #FD8B92",
"E. c #F28892",
"W. c #C9BA92",
"Q. c #DE8FA6",
"!. c #F08AA1",
"~. c #EFA1AA",
"^. c #EEA9B7",
"/. c #FEB9BD",
"(. c #F5A8AB",
"). c #C3AEB8",
"_. c #E7D291",
"`. c #D2C7A5",
"'. c #AAADC1",
"]. c #B3BED4",
"[. c #B7B3CB",
"{. c #D3B5C8",
"}. c #E6B7C6",
"|. c #FFBFC6",
" X c #B4C3DB",
".X c #BAC5DC",
"XX c #BDC9DC",
"oX c #B6C2D5",
"OX c #BDCAE4",
"+X c #B9C6E2",
"@X c #BFD0EF",
"#X c #C4C9DD",
"$X c #DFC9DD",
"%X c #FCC5CD",
"&X c #F7CCD2",
"*X c #F0D2D9",
"=X c #C2CEE3",
"-X c #C2CEEA",
";X c #D4CFE4",
":X c #CAD4E6",
">X c #C5D2EC",
",X c #CBD5EA",
"<X c #CED9EB",
"1X c #C5D1E4",
"2X c #D1DCEE",
"3X c #DDDAEB",
"4X c #C6D5F2",
"5X c #CAD6F2",
"6X c #CDDAF4",
"7X c #CEDBF8",
"8X c #D2DDF2",
"9X c #D1DEFA",
"0X c #E8DAE7",
"qX c #FFDBE0",
"wX c #D6E2F5",
"eX c #DAE4F5",
"rX c #D5E2FD",
"tX c #DAE5FC",
"yX c #DDEAFD",
"uX c #FAEAEC",
"iX c #E2EDFE",
"pX c #F9ECF8",
"aX c #E6F2FF",
"sX c #EBF5FF",
"dX c #ECFAFF",
"fX c #E7F8FF",
"gX c #F4FDFF",
"hX c #FEFFFF",
"jX c #FAF4F7",
"kX c #EAE3EE",
/* pixels */
"                                |.&X*XuXjXhXgXgX                                ",
"                          !.F.F.4.' '  .1.R./.qXjXgXgX                          ",
"                      E.F.] v v C W H n v v v v J F.|.uXjX                      ",
"                  !.4.n J 1.7.1.H v v W E W | W A v c A F.%X0X                  ",
"                D.] F.%XuXhXhXhXuX%X,.v E n n V F W | H V b 3.^.                ",
"              3.7.qXhXhXhXhXhXhXhXhXuXR.v E n C V A Z H R { R { !.              ",
"            3.~.jXhXhXhXhXhXhXhXhXhXhXhXR.v E n V V J B S S G } } !.            ",
"          2.^.gXhXhXhXhXhXhXhXhXhXhXhXhXjX1.v W V Z Z Z Z S G G } { G.          ",
"        D.~.gXgXhXhXhXhXhXhXhXhXhXhXhXjXhX&Xc W F F F S B S B R b { G.Q.        ",
"      Y.G.gXhXhXgXhXhXhXhXhXhXhXhXhXhXhXhXjX1.c Q F F F S B I z 6.0XfXpX$X      ",
"      2.*XgXgXgXgXhXhXhXhXhXhXhXhXhXhXhXhXhXR.x Q E U G F D D b 0XdXaXaXsX      ",
"    D.G.sXsXgXgXgXhXhXhXhXhXhXhXhXhXhXhXhXhX(.c ! U U U G T z Q.dXaXaXiXsXyX    ",
"     .{.dXsXgXdXgXhXgXhXhXhXhXhXhXhXhXgXgXhX(.x ! T T U I Y z $XdXaXiXyXiXyX    ",
"  Y.G ;XsXaXsXdXgXgXgXgXhXgXgXgXgXgXgXgXgXgX~.x ! U T I T D D 0XaXiXiXyXtXdXeX  ",
"  6.L 0XiXiXsXsXsXsXgXgXgXgXgXgXgXgXgXgXdXgX7.x Y I P G } z >.kXaXiXyXtXtXiXeX  ",
"  <.[ 3XyXiXiXiXaXsXsXsXsXdXsXdXsXdXdXsXdXkXP h I D I N Y z 6.aXiXiXtXtXrXrXyX  ",
"T.>.j ;XyXeXeXyXyXiXiXiXaXaXaXaXaXiXaXaXfX}.h P l l m m L h S.aXyXtXtXtX9X9XsX  ",
"5.>.s {.wX2XeXeXeXeXyXyXyXyXyXyXiXiXiXiXiX6.h P l l m m L h S.yXtXtX9X9XrX9XaXeX",
"5.[ 3 T.8X<X2X2X8X8X8XwXwXwXeXtXtXtX9XiX{.h K g k k k k L d S.rX9X9X9X7X9X8XiXeX",
"5.M j w #X:X1X:X:X<X<X<X<X8X8X6X8X8XrX;XK d j f h k j g K d 5.9X7X7X7X7X7X7XtX8X",
"5.M p 3 A.=X#X#X=X1X1X1X1X1X,X,X:X6X:X<.3 M s f f f f f M s >.>X7X5X5X5X5X5X8X2X",
"-.a 7 w 2 K.XXXXoXXXXXXXXXXXOX#X>X#X-.2 w 3 4 3 3 4 4 3 8 s f =X4X>X4X4X5X5X8X2X",
"5.X.5 7 6 1 :.U.oXoX].].oX X X XU.` 1 w 2 2 2 3 3 2 4 4 2 w 2 {.4X-X>X>X>X,X8X2X",
"  X.5 6 - , * q &.I.U.U.U.U.I.*.< < e 1 1 1 1 1 1 1 2 2 1 p 1 A.@XOX-X-X>X>X8X2X",
"  *.a , , ; > * > & q u u % * * - , = = = < < < < 1 < 1 1 7 1 X.+X+X+XOX-X-X8X<X",
"    *., r ; & ; + + + $ $ $ > > ; % % * * * * = = = < = < < 6 1 '.+X+X+X+X=XwX<X",
"      *.r r r y r 0 9 > ; & + $ $ $ & $ % % % % * * = = = = 6 < =.+X].].].#X8X  ",
"        &.%...~ / / / / ~ ( t 9 + $ + + + & $ % & % % * * - = - = I. X].].-X#X  ",
"          J.&.o.O.@ O.@.+.+.o.o.o.( @ ; + + + + $ $ % % % * * , * i U.]..X#X).  ",
"              j.k.K.s.k.d.w.q.@.@ #.+./ ^ t 9 & $ $ + $ % % % % , = = =.J.A.    ",
"              _.V.K.x.Z.B.M.b.L.H._ p.9.9.+.) ^ t r > ; & & & : : q , 1 X.      ",
"            `._.x.. k.Z.V.V.C.L.H.+.d.e.p.q.9.9.+.) ^ ~ y u r 0 r i X.=.        ",
"              _.k.O v.Z.B.B.V.O.. e.M.j.s.s.a.e.q.q.#.+.o...%.:.:.:.J.          ",
"              _.k.X b.V.B.B.B.O.o h.V.m.k.j.j.j.s.d.e.q.q.q.g.                  ",
"              W.v.O.v.B.N.M.B.# . j.B.v.m.x.k.k.j.j.j.h.s.L.                    ",
"              W.M.v.v.b.v.v.N.w.# x.x.x.k.k.k.k.h.h.j.h.m.P.                    ",
"                l.c.r.y.y.y.y.z.h.h.d.h.s.r.h.s.y.y.y.n.W.                      ",
"                  f.h.t.t.t.w.w.t.t.w.r.r.r.r.r.w.y.n.L.                        ",
"                      i.e.q.0.0.0.0.0.0.t.t.r.r.s.l.                            ",
"                            a.i.u.i.i.i.i.a.f.                                  "
};
