/* XPM */
static char *collectable_f1704011612[] = {
/* columns rows colors chars-per-pixel */
"40 40 217 2 ",
"   c None",
".  c black",
"X  c #3B0001",
"o  c #34180E",
"O  c #3E2918",
"+  c #4B0001",
"@  c #490706",
"#  c #530102",
"$  c #5A0102",
"%  c #5D0909",
"&  c #590B07",
"*  c #5C130C",
"=  c #650001",
"-  c #6A0103",
";  c #640909",
":  c #6B0A0A",
">  c #6B0708",
",  c #720304",
"<  c #7E0102",
"1  c #730A0A",
"2  c #7B0B0B",
"3  c #6C130D",
"4  c #62130D",
"5  c #70150E",
"6  c #6C1815",
"7  c #761A1A",
"8  c #771817",
"9  c #6B221E",
"0  c #6A321E",
"q  c #5E3D29",
"w  c #6F3226",
"e  c #55301C",
"r  c #5B4629",
"t  c #78472A",
"y  c #645634",
"u  c #7E5C37",
"i  c #77653C",
"p  c #7D6B40",
"a  c #7F6262",
"s  c #840000",
"d  c #8B0000",
"f  c #830B0B",
"g  c #8C0B0B",
"h  c #950000",
"j  c #9C0000",
"k  c #940D0D",
"l  c #9B0D0D",
"z  c #881615",
"x  c #921A1A",
"c  c #991616",
"v  c #A30000",
"b  c #A40E0E",
"n  c #AC0E0E",
"m  c #AB0200",
"M  c #B40000",
"N  c #BA0A0B",
"B  c #A41A1A",
"V  c #AA1E1E",
"C  c #A81313",
"Z  c #B51111",
"A  c #BB1211",
"S  c #B71D1D",
"D  c #93201F",
"F  c #AB211E",
"G  c #A82625",
"H  c #B62222",
"J  c #AE3836",
"K  c #CA0000",
"L  c #C20707",
"P  c #D30000",
"I  c #D80506",
"U  c #C31211",
"Y  c #CC1212",
"T  c #C61D1D",
"R  c #D71515",
"E  c #C1120A",
"W  c #EB0000",
"Q  c #E20002",
"!  c #F60000",
"~  c #FE0000",
"^  c #E71515",
"/  c #FF1414",
"(  c #FF1B1B",
")  c #F41919",
"_  c #DD241E",
"`  c #FF1F20",
"'  c #C92524",
"]  c #D72423",
"[  c #CC302D",
"{  c #E72727",
"}  c #FF2323",
"|  c #FD2B2A",
" . c #F92827",
".. c #FE312E",
"X. c #FD3935",
"o. c #E73736",
"O. c #8C4E3A",
"+. c #927B3C",
"@. c #FE413E",
"#. c #874544",
"$. c #A64E4C",
"%. c #856A42",
"&. c #8A7747",
"*. c #967D48",
"=. c #8D7A50",
"-. c #8F6C6B",
";. c #A26C6B",
":. c #AC7978",
">. c #D44D4A",
",. c #F85956",
"<. c #D96462",
"1. c #FC7C7A",
"2. c #ED6C69",
"3. c #97824E",
"4. c #9B834D",
"5. c #988047",
"6. c #9B8551",
"7. c #9D8759",
"8. c #9C8955",
"9. c #8E854F",
"0. c #A1874C",
"q. c #A38A4C",
"w. c #A48C54",
"e. c #A88851",
"r. c #AB9359",
"t. c #AB965A",
"y. c #B49A5C",
"u. c #B49A5A",
"i. c #BDA15F",
"p. c #B79D61",
"a. c #A9997B",
"s. c #BDA363",
"d. c #B0A179",
"f. c #CDAE5F",
"g. c #C1A665",
"h. c #C4A966",
"j. c #CAAE69",
"k. c #C8AC68",
"l. c #CDB16B",
"z. c #D2B56D",
"x. c #D8B96E",
"c. c #DCBD72",
"v. c #DDBF79",
"b. c #CAAD69",
"n. c #E1BF72",
"m. c #DBC375",
"M. c #E4C376",
"N. c #EDCB7B",
"B. c #E8C777",
"V. c #F4D27E",
"C. c #F1CF7D",
"Z. c #928A8A",
"A. c #939494",
"S. c #9B9B9B",
"D. c #979A9A",
"F. c #8D8A8A",
"G. c #A58281",
"H. c #B78887",
"J. c #A99A9A",
"K. c #B19B9A",
"L. c #A4A3A3",
"P. c #ACADAD",
"I. c #B7ADAA",
"U. c #B5B4B5",
"Y. c #BBBEBE",
"T. c #B8B9B8",
"R. c #B4B1AC",
"E. c #C89998",
"W. c #CF8B89",
"Q. c #FD8583",
"!. c #EC8F8D",
"~. c #C7ABA9",
"^. c #C5B7B6",
"/. c #D5B9B8",
"(. c #F7A8A7",
"). c #F9BCBA",
"_. c #F3B6B4",
"`. c #DBD985",
"'. c #FCDA84",
"]. c #F8DA85",
"[. c #EED380",
"{. c #FEE48B",
"}. c #FEE98E",
"|. c #F5E58B",
" X c #FEEE91",
".X c #FEF494",
"XX c #FEFA97",
"oX c #FEFE9C",
"OX c #FFF798",
"+X c #FDF18F",
"@X c #FEFEA3",
"#X c #BDC1C1",
"$X c #C3C5C5",
"%X c #C8C7C7",
"&X c #C5CACA",
"*X c #CCCCCC",
"=X c #D3C9C8",
"-X c #CED3D4",
";X c #D4D4D4",
":X c #DBDBDB",
">X c #D8D6D6",
",X c #E7CDCB",
"<X c #F6C7C6",
"1X c #E7DBDB",
"2X c #F7DAD9",
"3X c #EFE0DF",
"4X c #DDE2E2",
"5X c #E3E3E3",
"6X c #E4EBEB",
"7X c #EBEBEB",
"8X c #E8E6E7",
"9X c #F1EDED",
"0X c #EEF4F4",
"qX c #F4F4F4",
"wX c #F9F6F7",
"eX c #F6FCFC",
"rX c #F9FAF9",
/* pixels */
"                                ! ~ ~ | ..~ ~ ~                                 ",
"                          o.! ~ 1.(.<X1X,X2X).Q.~ ~ @.                          ",
"                      ]  .! 2.,X6X6X6X0X0X0XeXeX9Xx.~ | X.                      ",
"                  [ ^ { W !.4X6X8X7X7X7X0XqX0XqXrXrX(.~ } } @.                  ",
"                ' I ] W !.4X5X8X7X7X0XqXqXqXqXwXwXrXeX(.~ ../ ..                ",
"              H K ] I <.:X5X5X8X7X9X9XqXqXqXwXrXrXrXrXeX1.~ | / |               ",
"            H L Y ] P /.4X4X5X8X7X0XqXqXwXqXwXwXwXrXwXeX2X~ ` ` / |             ",
"          G N U T P <.-X;X4X5X8X7X9X9XqXwXwXeXwXwXrXrXrXeXQ.~ } ( / ..          ",
"        G Z Z A ' P E.;X>X5X5X8X7X7XqXqXqXrXwXrXrXrXrXwXeX).~ | / ( ( |         ",
"        $.m Z A T K ~.;X>X:X4X5X8X7X7XqXqXqXrXwXwXrXrXrXeX2X~ | / ` ~ ,.        ",
"      Y.:.v S Z S K ^.;X;X:X4X5X6X7X7XqXqXrXwXrXrXwXrXwXeX2X~ ` ( | ~ Q.0X      ",
"      &XH.v G Z S K ~.-X;X:X1X5X5X7X7X7XqXqXrXqXwXrXwXwXeX2X~ } ( X.~ (.eX      ",
"    L.#XK.j V Z S M ~.-X;X>X:X5X5X5X8X7X9XqXqXqXqXrXrXwXeX<X~ | / | ~ ).eX8X    ",
"    U.Y.K.j B n H M :.*X*X>X:X5X5X5X5X8X7X0X7XqXqXqXwXwXeX(.~ | / | ~ <XeXrX    ",
"  S.R.T.J.h B C Z M J ^.*X;X>X:X4X5X8X8X8X7X7X9XqXqXqXqX9X,.!  .)  .~ <XeXrX5X  ",
"  S.L.T.J.h c l b G M H.&X%X;X>X:X5X5X5X5X6X8X7X8X7X0XeX_.W { ^ ^  .! ).eXwX5X  ",
"  L.L.P.G.d x l l C b m I.$X%X*X;X:X:X:X4X5X5X8X8X8XwX3X] Q ^ ^ ^ { W (.qX9XqX  ",
"A.S.L.P.-.d x k l l B v J I.$X$X%X*X;X>X:X:X1X:X5X0X8X>.P ] R R ^ { Q !.rXqXrX>X",
"A.D.S.L.#.s z g g k l c j G K.#X$X$X%X*X*X;X;X>X4X/.>.K ' I R R R R Q >.9XqXqX>X",
"A.A.A.Z.< 2 2 2 f g g g x g j ;.K.U.Y.$X$X&X&X^.a.M M H U U U Y Y Y ] I ,XrX7X>X",
"A.F.A.-.- 8 2 2 2 2 2 f f z z d d O.;.;.:.-.$.j v B V n Z Z A A U U ' K W.qX8X;X",
"A.A.F.9 - : : 1 1 1 2 2 2 2 2 8 8 s < s s s d x x k l b b b n n Z Z A N U 1X8X*X",
"A.D.a = 6 > : > > : > : : 1 1 : 1 8 7 7 7 7 z 2 f f f g k k b b b n n G M W.:X%X",
"D.F.- : ; ; ; ; ; > ; > > > > > 1 : : 5 6 5 3 5 1 1 2 2 f g g g k l b b V v ~.#X",
"-.w - 3 > ; ; ; ; ; ; ; ; 3 3 3 - = - = - - - > 5 7 5 3 1 1 2 f f g k k c j B a.",
"  2 1 > : ; ; ; ; ; $ 4 ; $ # $ % 0 t t t t w ; $ $ = 3 5 3 1 1 2 2 f f f g c   ",
"  7 1 : > ; ; % % * % @ + q i 4.y.s.h.k.z.z.x.z.h.q.O.$ $ > 3 > : : 1 2 2 2 z   ",
"    2 > > ; % % & @ @ r i 8.u.+.r.k.k.l.z.m.B.j.u.B.m.k.*.4 $ 3 > > > : 1 2     ",
"    7 > ; % & @ X O y p 3.t.+.^.a.f.z.m.B.N.B.a.U.l.N.M.c.s.u # * ; > > 1 7     ",
"      7 - % @ X O y i &.8.h.q.R.a.V.}.}..XOX+Xd.I.m..X].N.c.h.+.+ * ; = 8       ",
"        6 $ X o r y &.r.h.M.s.. &.}..XXXoXoXoX9.. `.@X@XOX].n.p.e + % 6         ",
"          9 # O y i 8.h.z.B.s.. &.{..X.XXXoXoX9.. `.@X@X@X@X Xm.r + 9           ",
"              q p &.t.s.l.M.s.. &.{.}. XOXOXoX9.. `.@XoXoXoX.X'.%.              ",
"                %.&.w.y.s.z.l.. 6.'.'. X}..XoXt.. +XoXXXOX.X{.].                ",
"                =.=.6.r.p.s.l.y.j.N.V.V.'.{.}.C.c. X X}.'.'.].v.                ",
"                7.7.3.6.w.y.s.k.z.x.n.B.N.C.V.].'.'.'.[.[.N.B.j.                ",
"                  7.4.4.7.8.w.t.y.s.g.b.z.x.c.n.M.M.M.n.x.z.p.                  ",
"                    8.w.4.3.4.4.4.0.w.r.u.y.y.i.g.y.y.u.u.0.                    ",
"                      7.6.0.q.0.4.4.*.*.*.*.5.4.0.0.4.4.7.                      ",
"                            8.6.4.6.4.4.4.4.6.4.4.w.                            "
};
