/* XPM */
static char *collectable_r1704011611[] = {
/* columns rows colors chars-per-pixel */
"40 40 230 2 ",
"   c None",
".  c #000004",
"X  c #000015",
"o  c #000030",
"O  c #272133",
"+  c #7F0000",
"@  c #79602E",
"#  c #796A43",
"$  c #820102",
"%  c #8C0102",
"&  c #85030B",
"*  c #930002",
"=  c #9C0002",
"-  c #9A070B",
";  c #860A12",
":  c #940710",
">  c #87181B",
",  c #97141B",
"<  c #A30002",
"1  c #AB0002",
"2  c #B30002",
"3  c #BB0004",
"4  c #BF000B",
"5  c #A70D18",
"6  c #A4131A",
"7  c #AB1117",
"8  c #B80C1B",
"9  c #85241A",
"0  c #8A1F23",
"q  c #971C23",
"w  c #B81C26",
"e  c #A71E24",
"r  c #8A2929",
"t  c #863824",
"y  c #8E3534",
"u  c #943138",
"i  c #952A32",
"p  c #B5212B",
"a  c #B12E36",
"s  c #C30001",
"d  c #CC0000",
"f  c #C5000B",
"g  c #CB000C",
"h  c #D60002",
"j  c #C90516",
"k  c #D20016",
"l  c #D4021C",
"z  c #E20000",
"x  c #EB0000",
"c  c #F40000",
"v  c #F90000",
"b  c #E80019",
"n  c #F9001A",
"m  c #DA0A23",
"M  c #C31A27",
"N  c #DD1429",
"B  c #EB0E2A",
"V  c #F50325",
"C  c #F90223",
"Z  c #F20C29",
"A  c #F4002D",
"S  c #EC122C",
"D  c #E6152B",
"F  c #F3172D",
"G  c #E81B34",
"H  c #F41A32",
"J  c #F50030",
"K  c #CB2331",
"L  c #D52737",
"P  c #D82935",
"I  c #E42133",
"U  c #EC2536",
"Y  c #E42C3C",
"T  c #EB2A3A",
"R  c #EA243B",
"E  c #FA2432",
"W  c #F62839",
"Q  c #F6313F",
"!  c #EA333F",
"~  c #894835",
"^  c #895133",
"/  c #875338",
"(  c #87462C",
")  c #8A663C",
"_  c #876D35",
"`  c #B73E49",
"'  c #FC1747",
"]  c #FF0B45",
"[  c #CE3B4A",
"{  c #E72A47",
"}  c #E93547",
"|  c #F63346",
" . c #F23053",
".. c #915347",
"X. c #AE5257",
"o. c #8E6744",
"O. c #8A7548",
"+. c #927247",
"@. c #96784A",
"#. c #977D51",
"$. c #986A53",
"%. c #A85F63",
"&. c #986D71",
"*. c #A8686D",
"=. c #A86B75",
"-. c #BC6572",
";. c #BA737E",
":. c #A47274",
">. c #D54A5A",
",. c #F94E55",
"<. c #D15B6C",
"1. c #FA5E67",
"2. c #EB5878",
"3. c #F75A7B",
"4. c #F54F6B",
"5. c #C66A79",
"6. c #D76676",
"7. c #F6727C",
"8. c #F66A7A",
"9. c #9D8455",
"0. c #A68949",
"q. c #A68B59",
"w. c #AE9253",
"e. c #AC935C",
"r. c #B49A59",
"t. c #AE914F",
"y. c #BDA35E",
"u. c #9F8A60",
"i. c #A28D65",
"p. c #AA8F60",
"a. c #A99567",
"s. c #B59C63",
"d. c #B59B64",
"f. c #AC9872",
"g. c #AB9476",
"h. c #BBA464",
"j. c #BDA56A",
"k. c #BDA868",
"l. c #BBA87F",
"z. c #C2A964",
"x. c #C4AE6A",
"c. c #C8AF63",
"v. c #CAB26A",
"b. c #C9B067",
"n. c #C4AC73",
"m. c #CBB674",
"M. c #D3BD75",
"N. c #D0B86C",
"B. c #DAC376",
"V. c #DAC478",
"C. c #D8C16D",
"Z. c #E2C979",
"A. c #B67C84",
"S. c #D67688",
"D. c #D66F86",
"F. c #F57988",
"G. c #EB758D",
"H. c #89868E",
"J. c #AB8187",
"K. c #AC8E94",
"L. c #BBAA86",
"P. c #BFB291",
"I. c #A798AD",
"U. c #AEA6BB",
"Y. c #D88199",
"T. c #CB8797",
"R. c #FD8B92",
"E. c #F28892",
"W. c #C9BA92",
"Q. c #DE8FA6",
"!. c #F08AA1",
"~. c #EFA1AA",
"^. c #EEA9B7",
"/. c #FEB9BD",
"(. c #F5A8AB",
"). c #C3AEB8",
"_. c #E7D291",
"`. c #D2C7A5",
"'. c #AAADC1",
"]. c #B3BED4",
"[. c #B7B3CB",
"{. c #D3B5C8",
"}. c #E6B7C6",
"|. c #FFBFC6",
" X c #B4C3DB",
".X c #BAC5DC",
"XX c #BDC9DC",
"oX c #B6C2D5",
"OX c #BDCAE4",
"+X c #B9C6E2",
"@X c #BFD0EF",
"#X c #C4C9DD",
"$X c #DFC9DD",
"%X c #FCC5CD",
"&X c #F7CCD2",
"*X c #F0D2D9",
"=X c #C2CEE3",
"-X c #C2CEEA",
";X c #D4CFE4",
":X c #CAD4E6",
">X c #C5D2EC",
",X c #CBD5EA",
"<X c #CED9EB",
"1X c #C5D1E4",
"2X c #D1DCEE",
"3X c #DDDAEB",
"4X c #C6D5F2",
"5X c #CAD6F2",
"6X c #CDDAF4",
"7X c #CEDBF8",
"8X c #D2DDF2",
"9X c #D1DEFA",
"0X c #E8DAE7",
"qX c #FFDBE0",
"wX c #D6E2F5",
"eX c #DAE4F5",
"rX c #D5E2FD",
"tX c #DAE5FC",
"yX c #DDEAFD",
"uX c #FAEAEC",
"iX c #E2EDFE",
"pX c #F9ECF8",
"aX c #E6F2FF",
"sX c #EBF5FF",
"dX c #ECFAFF",
"fX c #E7F8FF",
"gX c #F4FDFF",
"hX c #FEFFFF",
"jX c #FAF4F7",
"kX c #EAE3EE",
/* pixels */
"                                gXgXgXpXuXqX&X}.                                ",
"                          gXgXjXqX/.R.1.| ' ' 4.F.F.G.                          ",
"                      pXuX%XF.J v v v v C H W C v v ] F.G.                      ",
"                  0X%XF.J c c V W Q W E W v v E 1.7.1.J n 3.!.                  ",
"                ~.3.b V G Q W H C C n E v ,./.uXhXhXhXuX&XE.] G.                ",
"              !.{ { { W H Z V V C n E v R.uXhXhXhXhXhXhXhXhX*X8.3.              ",
"            !.{ } { S B Z Z V n n W v R.hXhXhXhXhXhXhXhXjXhXhXhX~.3.            ",
"          G.{ } G G S B Z Z Z V W v 1.jXhXjXhXhXhXhXhXhXhXhXhXhXhX^.2.          ",
"        Q.G.{ b I B S B F F S F E v &XhXhXhXhXhXhXhXhXhXhXhXhXhXhXgX~.D.        ",
"      $XpXfX0X6.z I B S F D F Q c 1.jXhXhXhXhXhXhXhXhXhXhXhXhXhXgXgXgXF.Y.      ",
"      sXaXaXdX0Xb D S G G E E Q c E.hXhXhXhXhXhXhXhXhXhXhXhXhXgXgXgXgX*X2.      ",
"    yXgXiXaXaXdXE.z ! D U U U ! c (.hXjXhXhXhXhXhXhXhXhXhXhXhXgXgXgXdXsXG.D.    ",
"    iXyXiXiXaXsX$Xh Y I U T T ! x (.gXhXhXhXhXhXhXhXhXhXhXhXgXgXgXgXsXsX{. .    ",
"  eXsXyXyXiXiXfXkXD D Y I T T ! x ~.gXgXgXgXgXgXgXhXhXgXhXgXgXgXsXfXaXfX3XG Y.  ",
"  eXaXrXyXyXiXiXkX>.z Y I I I ! h 7.gXdXgXgXgXgXgXgXgXgXgXgXsXsXaXaXiXaX3XL 6.  ",
"  yXrXrX9XiXyXiXiX6.z } N D N I h Y kXdXsXsXsXsXfXfXfXsXsXsXfXaXaXiXyXyX3XL <.  ",
"  sX9X9X9XyXrXiXiXS.h [ m m m m I h }.fXaXaXaXaXaXaXiXsXiXiXiXyXyXyXeXtX;Xj >.T.",
"eXsX9X9X9X9XrXyXyXS.h L m m m k P h <.yXiXiXiXyXyXiXyXyXyXyXtXeXeXwX2XeX{.s >.S.",
"eXiX9X7X9X9X9X9XrXS.d L k k k k g K h {.yXtXrXtXrXrXeXwXwX8X2X2X<X2X;X2XT.3 [ 5.",
"3XrX6X7X7X7X7X9X9X5.d K g j g g d j d K ;XrX8X8X8X2X2X<X<X<X<X,X:X:X,X#Xp j w 5.",
"wXwX6X5X4X4X5X7X5X>.4 M f f f f f s M s <.,X5X:X,X,X1X1X1X=X#X1X#X#X1XA.3 p w ;.",
"2X<X5X4X4X4X4X4X{.4 3 8 4 4 4 4 3 4 s p 2 -.#X:XOXXXXX XXXXX#XoXXX#XJ.2 w 7 K -.",
"2X6X,X>X>X>X@X@X{.2 w 3 4 2 4 2 3 2 2 2 e 2 X.U.XX X X].oX].oXoX'.=.< 7 6 5 [ ;.",
"2X8X>X>X@XOX@X@XA.2 p 2 2 2 1 2 1 1 1 1 1 e < < *.I.U.'.'.U.I.&.q = q - , 5 X.  ",
":X8X=XOXOXOXOX+XX.1 7 1 < 1 < < < < < = = = , : * % * u u 0 % % & 0 : , q a =.  ",
",XeXOXOXOX.X+XU.< 6 1 < < = = = = * * * * % % ; > > $ $ + + + > ; + > 0 0 %.    ",
"  2X#X.X X].+X=.< 6 < = = * * * % % % $ $ $ + + $ $ $ ; + 0 r r r r r r %.      ",
"  #X=XoX]. XI.= - - = * % * % % % $ & $ + $ + + 9 t ( ~ ..~ ..@ ~ ..%.:.        ",
"  ).#X.X].I.i * , * * % % % $ $ $ + $ $ + ( ( o.o.O.O.O.#.+._ o.o.&.A.          ",
"    A.J.=.: * , * % % $ $ $ $ $ ; 9 t ^ o.+.9.@ @.q.w.s.k.a.K.k.n.              ",
"      X.= , q : : & $ $ ; > r t ^ ) +.9.9.e._ H.l.c.V.V.Z.k.K.V._.              ",
"        *.X.u i r r u y ~ / ) +.#.u.q.q.a.k._ H.L.C.Z.Z.Z.k.. k._.`.            ",
"          J.:.=.:.%...o.+.9.9.q.e.d.d.s.j.m.a.. O.B.B.B.Z.c.O z._.              ",
"                  g.q.q.a.e.d.h.s.j.j.n.m.V.h.o O.B.B.B.Z.x.X k._.              ",
"                    l.s.s.h.h.h.k.k.x.m.m.B.h.. # B.M.N.C.v.O.v.W.              ",
"                    W.n.k.h.k.h.h.k.k.k.x.v.x.# w.N.v.v.v.b.v.M.W.              ",
"                      P.n.y.h.y.y.r.h.y.y.h.h.h.k.y.y.y.y.r.c.L.                ",
"                        L.n.y.r.r.r.r.e.e.w.w.t.w.t.t.t.t.s.f.                  ",
"                            f.s.s.r.t.t.0.0.0.0.0.0.q.e.p.                      ",
"                                  f.i.i.i.u.i.u.i.a.                            "
};
